%TF.GenerationSoftware,KiCad,Pcbnew,8.0.6*%
%TF.CreationDate,2024-11-08T20:03:32-06:00*%
%TF.ProjectId,lora micronode,6c6f7261-206d-4696-9372-6f6e6f64652e,rev?*%
%TF.SameCoordinates,Original*%
%TF.FileFunction,Legend,Top*%
%TF.FilePolarity,Positive*%
%FSLAX46Y46*%
G04 Gerber Fmt 4.6, Leading zero omitted, Abs format (unit mm)*
G04 Created by KiCad (PCBNEW 8.0.6) date 2024-11-08 20:03:32*
%MOMM*%
%LPD*%
G01*
G04 APERTURE LIST*
%ADD10C,0.100000*%
%ADD11C,0.200000*%
%ADD12C,0.300000*%
%ADD13C,0.125000*%
%ADD14C,0.150000*%
%ADD15C,0.120000*%
%ADD16C,0.127000*%
%ADD17C,0.000000*%
%ADD18C,0.010000*%
G04 APERTURE END LIST*
D10*
X126319598Y-93868419D02*
X126319598Y-94582704D01*
X126319598Y-94582704D02*
X126271979Y-94725561D01*
X126271979Y-94725561D02*
X126176741Y-94820800D01*
X126176741Y-94820800D02*
X126033884Y-94868419D01*
X126033884Y-94868419D02*
X125938646Y-94868419D01*
X127271979Y-94868419D02*
X126795789Y-94868419D01*
X126795789Y-94868419D02*
X126795789Y-93868419D01*
X128176741Y-94773180D02*
X128129122Y-94820800D01*
X128129122Y-94820800D02*
X127986265Y-94868419D01*
X127986265Y-94868419D02*
X127891027Y-94868419D01*
X127891027Y-94868419D02*
X127748170Y-94820800D01*
X127748170Y-94820800D02*
X127652932Y-94725561D01*
X127652932Y-94725561D02*
X127605313Y-94630323D01*
X127605313Y-94630323D02*
X127557694Y-94439847D01*
X127557694Y-94439847D02*
X127557694Y-94296990D01*
X127557694Y-94296990D02*
X127605313Y-94106514D01*
X127605313Y-94106514D02*
X127652932Y-94011276D01*
X127652932Y-94011276D02*
X127748170Y-93916038D01*
X127748170Y-93916038D02*
X127891027Y-93868419D01*
X127891027Y-93868419D02*
X127986265Y-93868419D01*
X127986265Y-93868419D02*
X128129122Y-93916038D01*
X128129122Y-93916038D02*
X128176741Y-93963657D01*
X128891027Y-93868419D02*
X128891027Y-94582704D01*
X128891027Y-94582704D02*
X128843408Y-94725561D01*
X128843408Y-94725561D02*
X128748170Y-94820800D01*
X128748170Y-94820800D02*
X128605313Y-94868419D01*
X128605313Y-94868419D02*
X128510075Y-94868419D01*
X129843408Y-94868419D02*
X129367218Y-94868419D01*
X129367218Y-94868419D02*
X129367218Y-93868419D01*
X130748170Y-94773180D02*
X130700551Y-94820800D01*
X130700551Y-94820800D02*
X130557694Y-94868419D01*
X130557694Y-94868419D02*
X130462456Y-94868419D01*
X130462456Y-94868419D02*
X130319599Y-94820800D01*
X130319599Y-94820800D02*
X130224361Y-94725561D01*
X130224361Y-94725561D02*
X130176742Y-94630323D01*
X130176742Y-94630323D02*
X130129123Y-94439847D01*
X130129123Y-94439847D02*
X130129123Y-94296990D01*
X130129123Y-94296990D02*
X130176742Y-94106514D01*
X130176742Y-94106514D02*
X130224361Y-94011276D01*
X130224361Y-94011276D02*
X130319599Y-93916038D01*
X130319599Y-93916038D02*
X130462456Y-93868419D01*
X130462456Y-93868419D02*
X130557694Y-93868419D01*
X130557694Y-93868419D02*
X130700551Y-93916038D01*
X130700551Y-93916038D02*
X130748170Y-93963657D01*
X131462456Y-93868419D02*
X131462456Y-94582704D01*
X131462456Y-94582704D02*
X131414837Y-94725561D01*
X131414837Y-94725561D02*
X131319599Y-94820800D01*
X131319599Y-94820800D02*
X131176742Y-94868419D01*
X131176742Y-94868419D02*
X131081504Y-94868419D01*
X132414837Y-94868419D02*
X131938647Y-94868419D01*
X131938647Y-94868419D02*
X131938647Y-93868419D01*
X133319599Y-94773180D02*
X133271980Y-94820800D01*
X133271980Y-94820800D02*
X133129123Y-94868419D01*
X133129123Y-94868419D02*
X133033885Y-94868419D01*
X133033885Y-94868419D02*
X132891028Y-94820800D01*
X132891028Y-94820800D02*
X132795790Y-94725561D01*
X132795790Y-94725561D02*
X132748171Y-94630323D01*
X132748171Y-94630323D02*
X132700552Y-94439847D01*
X132700552Y-94439847D02*
X132700552Y-94296990D01*
X132700552Y-94296990D02*
X132748171Y-94106514D01*
X132748171Y-94106514D02*
X132795790Y-94011276D01*
X132795790Y-94011276D02*
X132891028Y-93916038D01*
X132891028Y-93916038D02*
X133033885Y-93868419D01*
X133033885Y-93868419D02*
X133129123Y-93868419D01*
X133129123Y-93868419D02*
X133271980Y-93916038D01*
X133271980Y-93916038D02*
X133319599Y-93963657D01*
X134033885Y-93868419D02*
X134033885Y-94582704D01*
X134033885Y-94582704D02*
X133986266Y-94725561D01*
X133986266Y-94725561D02*
X133891028Y-94820800D01*
X133891028Y-94820800D02*
X133748171Y-94868419D01*
X133748171Y-94868419D02*
X133652933Y-94868419D01*
X134986266Y-94868419D02*
X134510076Y-94868419D01*
X134510076Y-94868419D02*
X134510076Y-93868419D01*
X135891028Y-94773180D02*
X135843409Y-94820800D01*
X135843409Y-94820800D02*
X135700552Y-94868419D01*
X135700552Y-94868419D02*
X135605314Y-94868419D01*
X135605314Y-94868419D02*
X135462457Y-94820800D01*
X135462457Y-94820800D02*
X135367219Y-94725561D01*
X135367219Y-94725561D02*
X135319600Y-94630323D01*
X135319600Y-94630323D02*
X135271981Y-94439847D01*
X135271981Y-94439847D02*
X135271981Y-94296990D01*
X135271981Y-94296990D02*
X135319600Y-94106514D01*
X135319600Y-94106514D02*
X135367219Y-94011276D01*
X135367219Y-94011276D02*
X135462457Y-93916038D01*
X135462457Y-93916038D02*
X135605314Y-93868419D01*
X135605314Y-93868419D02*
X135700552Y-93868419D01*
X135700552Y-93868419D02*
X135843409Y-93916038D01*
X135843409Y-93916038D02*
X135891028Y-93963657D01*
D11*
X137176095Y-86347656D02*
X137318952Y-86395275D01*
X137318952Y-86395275D02*
X137557047Y-86395275D01*
X137557047Y-86395275D02*
X137652285Y-86347656D01*
X137652285Y-86347656D02*
X137699904Y-86300036D01*
X137699904Y-86300036D02*
X137747523Y-86204798D01*
X137747523Y-86204798D02*
X137747523Y-86109560D01*
X137747523Y-86109560D02*
X137699904Y-86014322D01*
X137699904Y-86014322D02*
X137652285Y-85966703D01*
X137652285Y-85966703D02*
X137557047Y-85919084D01*
X137557047Y-85919084D02*
X137366571Y-85871465D01*
X137366571Y-85871465D02*
X137271333Y-85823846D01*
X137271333Y-85823846D02*
X137223714Y-85776227D01*
X137223714Y-85776227D02*
X137176095Y-85680989D01*
X137176095Y-85680989D02*
X137176095Y-85585751D01*
X137176095Y-85585751D02*
X137223714Y-85490513D01*
X137223714Y-85490513D02*
X137271333Y-85442894D01*
X137271333Y-85442894D02*
X137366571Y-85395275D01*
X137366571Y-85395275D02*
X137604666Y-85395275D01*
X137604666Y-85395275D02*
X137747523Y-85442894D01*
X138318952Y-86395275D02*
X138223714Y-86347656D01*
X138223714Y-86347656D02*
X138176095Y-86300036D01*
X138176095Y-86300036D02*
X138128476Y-86204798D01*
X138128476Y-86204798D02*
X138128476Y-85919084D01*
X138128476Y-85919084D02*
X138176095Y-85823846D01*
X138176095Y-85823846D02*
X138223714Y-85776227D01*
X138223714Y-85776227D02*
X138318952Y-85728608D01*
X138318952Y-85728608D02*
X138461809Y-85728608D01*
X138461809Y-85728608D02*
X138557047Y-85776227D01*
X138557047Y-85776227D02*
X138604666Y-85823846D01*
X138604666Y-85823846D02*
X138652285Y-85919084D01*
X138652285Y-85919084D02*
X138652285Y-86204798D01*
X138652285Y-86204798D02*
X138604666Y-86300036D01*
X138604666Y-86300036D02*
X138557047Y-86347656D01*
X138557047Y-86347656D02*
X138461809Y-86395275D01*
X138461809Y-86395275D02*
X138318952Y-86395275D01*
X139223714Y-86395275D02*
X139128476Y-86347656D01*
X139128476Y-86347656D02*
X139080857Y-86252417D01*
X139080857Y-86252417D02*
X139080857Y-85395275D01*
X140033238Y-86395275D02*
X140033238Y-85871465D01*
X140033238Y-85871465D02*
X139985619Y-85776227D01*
X139985619Y-85776227D02*
X139890381Y-85728608D01*
X139890381Y-85728608D02*
X139699905Y-85728608D01*
X139699905Y-85728608D02*
X139604667Y-85776227D01*
X140033238Y-86347656D02*
X139938000Y-86395275D01*
X139938000Y-86395275D02*
X139699905Y-86395275D01*
X139699905Y-86395275D02*
X139604667Y-86347656D01*
X139604667Y-86347656D02*
X139557048Y-86252417D01*
X139557048Y-86252417D02*
X139557048Y-86157179D01*
X139557048Y-86157179D02*
X139604667Y-86061941D01*
X139604667Y-86061941D02*
X139699905Y-86014322D01*
X139699905Y-86014322D02*
X139938000Y-86014322D01*
X139938000Y-86014322D02*
X140033238Y-85966703D01*
X140509429Y-86395275D02*
X140509429Y-85728608D01*
X140509429Y-85919084D02*
X140557048Y-85823846D01*
X140557048Y-85823846D02*
X140604667Y-85776227D01*
X140604667Y-85776227D02*
X140699905Y-85728608D01*
X140699905Y-85728608D02*
X140795143Y-85728608D01*
X137557048Y-87624266D02*
X138318953Y-87624266D01*
X137938000Y-88005219D02*
X137938000Y-87243314D01*
X139557048Y-87624266D02*
X140318953Y-87624266D01*
D12*
G36*
X133041582Y-114181755D02*
G01*
X133041582Y-113900387D01*
X134111000Y-114302288D01*
X134111000Y-114502323D01*
X133041582Y-114904225D01*
X133041582Y-114622857D01*
X133712395Y-114402306D01*
X133041582Y-114181755D01*
G37*
G36*
X134111000Y-113349009D02*
G01*
X134111000Y-113631109D01*
X132944496Y-113631109D01*
X133013739Y-113813558D01*
X132713686Y-113813558D01*
X132612936Y-113590076D01*
X132612936Y-113349009D01*
X134111000Y-113349009D01*
G37*
G36*
X133828533Y-113090355D02*
G01*
X133828533Y-112807889D01*
X134111000Y-112807889D01*
X134111000Y-113090355D01*
X133828533Y-113090355D01*
G37*
G36*
X133785042Y-111749838D02*
G01*
X133860421Y-111766352D01*
X133936006Y-111798707D01*
X134000326Y-111845441D01*
X134014646Y-111859371D01*
X134063532Y-111923348D01*
X134094850Y-111989921D01*
X134115475Y-112066382D01*
X134124641Y-112139789D01*
X134126387Y-112192763D01*
X134122420Y-112271361D01*
X134107764Y-112353715D01*
X134082309Y-112426005D01*
X134039994Y-112496301D01*
X134013547Y-112526521D01*
X133951700Y-112576530D01*
X133878999Y-112612250D01*
X133806483Y-112631785D01*
X133725657Y-112640380D01*
X133701038Y-112640826D01*
X133019967Y-112640826D01*
X132935820Y-112635339D01*
X132860333Y-112618877D01*
X132784668Y-112586626D01*
X132720314Y-112540040D01*
X132705993Y-112526154D01*
X132657106Y-112462178D01*
X132625788Y-112395605D01*
X132605164Y-112319144D01*
X132595997Y-112245737D01*
X132594251Y-112192763D01*
X132866094Y-112192763D01*
X132880657Y-112266860D01*
X132924346Y-112318426D01*
X132995329Y-112348651D01*
X133071751Y-112358372D01*
X133091774Y-112358726D01*
X133628864Y-112358726D01*
X133703585Y-112353059D01*
X133776846Y-112330036D01*
X133796293Y-112318426D01*
X133843395Y-112258830D01*
X133854545Y-112192763D01*
X133839982Y-112118483D01*
X133796293Y-112067100D01*
X133725310Y-112036875D01*
X133648887Y-112027154D01*
X133628864Y-112026800D01*
X133091774Y-112026800D01*
X133017053Y-112032467D01*
X132943793Y-112055490D01*
X132924346Y-112067100D01*
X132877243Y-112126515D01*
X132866094Y-112192763D01*
X132594251Y-112192763D01*
X132598167Y-112114165D01*
X132612633Y-112031811D01*
X132637757Y-111959521D01*
X132679523Y-111889224D01*
X132705626Y-111859005D01*
X132766901Y-111808836D01*
X132839715Y-111773001D01*
X132912895Y-111753404D01*
X132994911Y-111744781D01*
X133019967Y-111744333D01*
X133701038Y-111744333D01*
X133785042Y-111749838D01*
G37*
D13*
G36*
X122520116Y-112685258D02*
G01*
X122467039Y-112683231D01*
X122414786Y-112677152D01*
X122380409Y-112670847D01*
X122330286Y-112658151D01*
X122282498Y-112641676D01*
X122251937Y-112628593D01*
X122205215Y-112604116D01*
X122162686Y-112575930D01*
X122144470Y-112561671D01*
X122231665Y-112406332D01*
X122273400Y-112436369D01*
X122319349Y-112461325D01*
X122364777Y-112479605D01*
X122412481Y-112493129D01*
X122460948Y-112501644D01*
X122510178Y-112505151D01*
X122520116Y-112505251D01*
X122573635Y-112502198D01*
X122623194Y-112491787D01*
X122662998Y-112473988D01*
X122699463Y-112439043D01*
X122713751Y-112389348D01*
X122713800Y-112385816D01*
X122713800Y-112385083D01*
X122702066Y-112336434D01*
X122691086Y-112322069D01*
X122649549Y-112293904D01*
X122632223Y-112287630D01*
X122584713Y-112275884D01*
X122538678Y-112267602D01*
X122535015Y-112266870D01*
X122531107Y-112266381D01*
X122515964Y-112264183D01*
X122462340Y-112254635D01*
X122414126Y-112243850D01*
X122366899Y-112230416D01*
X122349879Y-112224616D01*
X122303201Y-112201832D01*
X122262089Y-112169020D01*
X122237771Y-112141573D01*
X122211629Y-112094882D01*
X122197279Y-112042217D01*
X122192257Y-111993078D01*
X122191853Y-111973046D01*
X122191853Y-111972313D01*
X122195273Y-111920011D01*
X122205532Y-111872192D01*
X122224952Y-111824317D01*
X122235084Y-111806716D01*
X122265920Y-111766993D01*
X122304388Y-111733615D01*
X122350489Y-111706581D01*
X122360625Y-111701936D01*
X122409767Y-111684462D01*
X122457989Y-111673731D01*
X122510486Y-111667518D01*
X122559927Y-111665788D01*
X122610786Y-111668525D01*
X122659125Y-111676018D01*
X122669592Y-111678244D01*
X122718065Y-111691248D01*
X122765603Y-111708458D01*
X122779013Y-111714148D01*
X122824955Y-111736321D01*
X122868746Y-111762233D01*
X122880863Y-111770324D01*
X122801239Y-111929570D01*
X122757138Y-111902219D01*
X122711663Y-111879882D01*
X122680583Y-111867777D01*
X122630389Y-111853544D01*
X122581806Y-111846568D01*
X122559927Y-111845795D01*
X122509705Y-111848586D01*
X122459513Y-111859302D01*
X122426082Y-111874371D01*
X122390545Y-111908688D01*
X122378699Y-111954483D01*
X122378699Y-111954972D01*
X122389323Y-112004144D01*
X122403368Y-112023604D01*
X122444885Y-112052602D01*
X122464428Y-112060240D01*
X122511626Y-112073041D01*
X122562917Y-112084101D01*
X122567010Y-112084909D01*
X122572384Y-112086130D01*
X122578001Y-112086863D01*
X122585573Y-112088817D01*
X122593633Y-112090526D01*
X122644466Y-112101487D01*
X122695146Y-112115207D01*
X122743842Y-112132172D01*
X122751902Y-112135467D01*
X122796725Y-112159819D01*
X122835571Y-112193307D01*
X122858148Y-112220708D01*
X122882344Y-112266087D01*
X122895624Y-112316157D01*
X122900480Y-112368398D01*
X122900646Y-112380931D01*
X122900646Y-112382397D01*
X122897111Y-112433951D01*
X122884889Y-112486158D01*
X122863937Y-112533022D01*
X122855950Y-112546039D01*
X122824160Y-112585328D01*
X122784356Y-112618320D01*
X122741680Y-112642629D01*
X122726013Y-112649598D01*
X122675164Y-112666836D01*
X122625328Y-112677422D01*
X122571125Y-112683551D01*
X122520116Y-112685258D01*
G37*
G36*
X123054275Y-111962055D02*
G01*
X123242342Y-111962055D01*
X123242342Y-112964916D01*
X123054275Y-112964916D01*
X123054275Y-111962055D01*
G37*
G36*
X123407939Y-112685258D02*
G01*
X123356501Y-112679180D01*
X123308651Y-112659180D01*
X123299983Y-112653506D01*
X123262721Y-112617714D01*
X123237142Y-112573850D01*
X123232816Y-112563136D01*
X123242342Y-112400226D01*
X123249945Y-112448687D01*
X123254798Y-112460066D01*
X123288029Y-112496230D01*
X123290946Y-112497923D01*
X123340073Y-112510666D01*
X123348343Y-112510868D01*
X123397711Y-112501011D01*
X123430165Y-112475942D01*
X123453034Y-112430438D01*
X123459445Y-112380750D01*
X123459474Y-112376779D01*
X123459474Y-112263450D01*
X123453864Y-112211999D01*
X123433714Y-112166936D01*
X123430165Y-112162334D01*
X123389971Y-112133105D01*
X123348343Y-112126186D01*
X123300183Y-112135054D01*
X123290946Y-112139619D01*
X123256399Y-112175297D01*
X123254798Y-112178454D01*
X123242780Y-112226987D01*
X123242342Y-112240247D01*
X123227932Y-112082222D01*
X123252123Y-112039346D01*
X123284144Y-112001967D01*
X123303891Y-111985746D01*
X123347008Y-111962371D01*
X123397354Y-111951853D01*
X123407939Y-111951552D01*
X123457395Y-111955881D01*
X123505423Y-111970479D01*
X123537387Y-111988189D01*
X123576971Y-112023320D01*
X123605926Y-112065624D01*
X123619453Y-112094678D01*
X123635583Y-112146051D01*
X123644437Y-112198563D01*
X123647674Y-112250555D01*
X123647785Y-112262718D01*
X123647785Y-112376779D01*
X123645544Y-112429473D01*
X123637797Y-112482720D01*
X123624516Y-112530386D01*
X123619453Y-112543597D01*
X123597083Y-112587111D01*
X123565702Y-112625825D01*
X123537387Y-112648866D01*
X123490101Y-112672428D01*
X123440012Y-112683516D01*
X123407939Y-112685258D01*
G37*
G36*
X124120883Y-112685258D02*
G01*
X124071211Y-112682922D01*
X124019781Y-112674711D01*
X123968165Y-112658654D01*
X123944540Y-112647889D01*
X123902260Y-112621170D01*
X123863521Y-112584010D01*
X123835367Y-112543166D01*
X123832921Y-112538712D01*
X123812700Y-112490970D01*
X123800904Y-112443108D01*
X123795174Y-112390609D01*
X123794575Y-112365788D01*
X123794575Y-112285432D01*
X123796865Y-112234492D01*
X123804915Y-112181820D01*
X123818761Y-112134054D01*
X123831211Y-112104937D01*
X123857530Y-112061579D01*
X123890383Y-112025233D01*
X123929772Y-111995900D01*
X123938434Y-111990875D01*
X123985389Y-111970138D01*
X124038020Y-111957082D01*
X124090242Y-111951898D01*
X124108671Y-111951552D01*
X124159047Y-111955262D01*
X124210081Y-111968084D01*
X124255914Y-111990066D01*
X124268650Y-111998447D01*
X124307200Y-112031730D01*
X124339500Y-112073265D01*
X124363227Y-112117703D01*
X124370011Y-112134002D01*
X124385185Y-112180759D01*
X124396023Y-112232126D01*
X124401950Y-112280854D01*
X124404558Y-112333112D01*
X124404694Y-112348691D01*
X124404694Y-112395341D01*
X123916941Y-112395341D01*
X123916941Y-112268335D01*
X124232991Y-112268335D01*
X124230793Y-112251727D01*
X124219633Y-112203080D01*
X124193889Y-112158591D01*
X124191958Y-112156472D01*
X124150218Y-112129218D01*
X124108671Y-112122766D01*
X124058384Y-112129458D01*
X124012982Y-112153808D01*
X124003158Y-112163311D01*
X123977613Y-112205192D01*
X123966702Y-112255551D01*
X123965789Y-112277861D01*
X123965789Y-112368719D01*
X123971525Y-112418670D01*
X123992716Y-112465226D01*
X124006578Y-112481315D01*
X124048532Y-112508530D01*
X124098708Y-112520155D01*
X124120883Y-112521127D01*
X124170256Y-112515341D01*
X124195866Y-112507693D01*
X124241647Y-112485223D01*
X124263277Y-112469591D01*
X124386131Y-112578768D01*
X124346230Y-112610982D01*
X124303096Y-112637770D01*
X124261079Y-112657414D01*
X124213217Y-112673266D01*
X124165009Y-112682539D01*
X124120883Y-112685258D01*
G37*
G36*
X124957904Y-112222906D02*
G01*
X124947471Y-112174512D01*
X124924931Y-112146702D01*
X124879104Y-112124978D01*
X124831386Y-112119836D01*
X124781812Y-112124988D01*
X124752251Y-112133025D01*
X124706933Y-112153308D01*
X124683130Y-112169417D01*
X124566382Y-112054623D01*
X124602137Y-112021192D01*
X124645654Y-111993806D01*
X124678978Y-111978907D01*
X124728931Y-111963333D01*
X124777398Y-111954785D01*
X124828775Y-111951579D01*
X124834073Y-111951552D01*
X124884508Y-111954025D01*
X124935427Y-111962574D01*
X124985212Y-111979030D01*
X124993563Y-111982815D01*
X125038626Y-112010247D01*
X125074896Y-112045647D01*
X125094191Y-112073674D01*
X125115326Y-112121622D01*
X125126130Y-112171608D01*
X125128874Y-112216800D01*
X125128874Y-112675000D01*
X124957904Y-112675000D01*
X124957904Y-112222906D01*
G37*
G36*
X124759334Y-112685258D02*
G01*
X124705570Y-112681854D01*
X124653771Y-112669886D01*
X124607003Y-112646482D01*
X124587876Y-112630792D01*
X124557994Y-112591064D01*
X124539180Y-112540269D01*
X124532097Y-112491665D01*
X124531211Y-112464706D01*
X124535180Y-112415140D01*
X124549134Y-112367298D01*
X124576420Y-112323973D01*
X124594715Y-112306193D01*
X124640629Y-112278243D01*
X124692598Y-112261939D01*
X124747259Y-112254486D01*
X124785468Y-112253192D01*
X124964010Y-112253192D01*
X124973535Y-112396807D01*
X124786201Y-112396807D01*
X124737589Y-112404772D01*
X124722209Y-112413660D01*
X124701147Y-112458447D01*
X124700960Y-112464706D01*
X124719913Y-112511016D01*
X124727583Y-112516730D01*
X124774626Y-112531592D01*
X124808671Y-112533583D01*
X124859962Y-112531179D01*
X124908620Y-112521411D01*
X124921023Y-112516486D01*
X124955599Y-112479758D01*
X124957904Y-112462752D01*
X124972314Y-112566556D01*
X124953791Y-112613856D01*
X124936899Y-112631769D01*
X124894177Y-112658733D01*
X124858497Y-112671824D01*
X124810259Y-112681899D01*
X124759334Y-112685258D01*
G37*
G36*
X125310102Y-111962055D02*
G01*
X125512091Y-111962055D01*
X125512091Y-112675000D01*
X125310102Y-112675000D01*
X125310102Y-111962055D01*
G37*
G36*
X125711149Y-112160380D02*
G01*
X125677443Y-112139863D01*
X125631525Y-112133025D01*
X125581028Y-112142245D01*
X125543354Y-112169905D01*
X125519906Y-112213686D01*
X125512213Y-112263715D01*
X125512091Y-112271755D01*
X125497680Y-112086374D01*
X125522284Y-112042399D01*
X125554442Y-112003829D01*
X125574128Y-111986967D01*
X125617105Y-111962758D01*
X125666990Y-111951863D01*
X125677443Y-111951552D01*
X125727506Y-111956546D01*
X125758288Y-111965718D01*
X125801629Y-111989991D01*
X125821058Y-112007240D01*
X125711149Y-112160380D01*
G37*
G36*
X126738190Y-112263450D02*
G01*
X126732440Y-112214210D01*
X126709996Y-112169124D01*
X126708148Y-112166974D01*
X126666666Y-112139523D01*
X126623396Y-112133025D01*
X126572816Y-112142261D01*
X126539865Y-112165753D01*
X126516363Y-112210953D01*
X126510800Y-112258077D01*
X126475873Y-112093213D01*
X126501302Y-112050087D01*
X126534572Y-112011533D01*
X126563312Y-111988433D01*
X126609144Y-111964554D01*
X126658926Y-111952849D01*
X126683235Y-111951552D01*
X126733474Y-111955881D01*
X126782223Y-111970479D01*
X126814638Y-111988189D01*
X126851996Y-112020223D01*
X126882003Y-112061736D01*
X126897925Y-112094678D01*
X126914194Y-112146051D01*
X126923124Y-112198563D01*
X126926389Y-112250555D01*
X126926501Y-112262718D01*
X126926501Y-112675000D01*
X126738190Y-112675000D01*
X126738190Y-112263450D01*
G37*
G36*
X125907031Y-111962055D02*
G01*
X126095098Y-111962055D01*
X126095098Y-112675000D01*
X125907031Y-112675000D01*
X125907031Y-111962055D01*
G37*
G36*
X126322488Y-112263450D02*
G01*
X126316551Y-112214210D01*
X126293378Y-112169124D01*
X126291470Y-112166974D01*
X126248811Y-112139523D01*
X126204519Y-112133025D01*
X126155671Y-112141296D01*
X126123675Y-112162334D01*
X126099815Y-112205287D01*
X126095098Y-112244399D01*
X126080688Y-112086374D01*
X126106700Y-112041346D01*
X126139841Y-112002565D01*
X126159823Y-111985990D01*
X126204415Y-111962449D01*
X126255272Y-111952090D01*
X126270953Y-111951552D01*
X126320410Y-111955881D01*
X126368438Y-111970479D01*
X126400402Y-111988189D01*
X126439986Y-112023320D01*
X126468940Y-112065624D01*
X126482468Y-112094678D01*
X126498598Y-112146051D01*
X126507452Y-112198563D01*
X126510689Y-112250555D01*
X126510800Y-112262718D01*
X126510800Y-112675000D01*
X126322488Y-112675000D01*
X126322488Y-112263450D01*
G37*
G36*
X127095517Y-111676290D02*
G01*
X127283584Y-111676290D01*
X127283584Y-111864357D01*
X127095517Y-111864357D01*
X127095517Y-111676290D01*
G37*
G36*
X127095517Y-111962055D02*
G01*
X127283584Y-111962055D01*
X127283584Y-112675000D01*
X127095517Y-112675000D01*
X127095517Y-111962055D01*
G37*
G36*
X127456508Y-111962055D02*
G01*
X127644575Y-111962055D01*
X127644575Y-112675000D01*
X127456508Y-112675000D01*
X127456508Y-111962055D01*
G37*
G36*
X127868546Y-112242934D02*
G01*
X127860136Y-112194017D01*
X127838748Y-112161845D01*
X127794495Y-112137781D01*
X127753996Y-112133025D01*
X127705147Y-112141296D01*
X127673151Y-112162334D01*
X127649291Y-112205287D01*
X127644575Y-112244399D01*
X127630165Y-112086374D01*
X127656280Y-112040556D01*
X127688524Y-112001617D01*
X127707590Y-111985258D01*
X127751307Y-111962217D01*
X127799772Y-111952375D01*
X127820430Y-111951552D01*
X127873660Y-111956300D01*
X127920508Y-111970542D01*
X127965586Y-111997914D01*
X127995064Y-112027512D01*
X128022098Y-112069415D01*
X128041409Y-112119164D01*
X128051969Y-112169131D01*
X128056616Y-112225105D01*
X128056857Y-112242201D01*
X128056857Y-112675000D01*
X127868546Y-112675000D01*
X127868546Y-112242934D01*
G37*
G36*
X128437143Y-112678419D02*
G01*
X128383672Y-112673768D01*
X128336039Y-112657908D01*
X128300123Y-112630792D01*
X128273630Y-112588499D01*
X128260087Y-112538507D01*
X128256648Y-112489619D01*
X128256648Y-111754448D01*
X128444715Y-111754448D01*
X128444715Y-112442725D01*
X128454973Y-112483025D01*
X128485259Y-112497191D01*
X128532154Y-112497191D01*
X128532154Y-112678419D01*
X128437143Y-112678419D01*
G37*
G36*
X128183130Y-111962055D02*
G01*
X128532154Y-111962055D01*
X128532154Y-112122766D01*
X128183130Y-112122766D01*
X128183130Y-111962055D01*
G37*
G36*
X129086585Y-112222906D02*
G01*
X129076152Y-112174512D01*
X129053612Y-112146702D01*
X129007785Y-112124978D01*
X128960067Y-112119836D01*
X128910493Y-112124988D01*
X128880932Y-112133025D01*
X128835614Y-112153308D01*
X128811812Y-112169417D01*
X128695064Y-112054623D01*
X128730818Y-112021192D01*
X128774336Y-111993806D01*
X128807659Y-111978907D01*
X128857612Y-111963333D01*
X128906079Y-111954785D01*
X128957456Y-111951579D01*
X128962754Y-111951552D01*
X129013190Y-111954025D01*
X129064108Y-111962574D01*
X129113893Y-111979030D01*
X129122244Y-111982815D01*
X129167307Y-112010247D01*
X129203577Y-112045647D01*
X129222872Y-112073674D01*
X129244007Y-112121622D01*
X129254811Y-112171608D01*
X129257555Y-112216800D01*
X129257555Y-112675000D01*
X129086585Y-112675000D01*
X129086585Y-112222906D01*
G37*
G36*
X128888015Y-112685258D02*
G01*
X128834251Y-112681854D01*
X128782452Y-112669886D01*
X128735684Y-112646482D01*
X128716557Y-112630792D01*
X128686675Y-112591064D01*
X128667861Y-112540269D01*
X128660778Y-112491665D01*
X128659893Y-112464706D01*
X128663861Y-112415140D01*
X128677815Y-112367298D01*
X128705101Y-112323973D01*
X128723396Y-112306193D01*
X128769310Y-112278243D01*
X128821279Y-112261939D01*
X128875940Y-112254486D01*
X128914149Y-112253192D01*
X129092691Y-112253192D01*
X129102216Y-112396807D01*
X128914882Y-112396807D01*
X128866270Y-112404772D01*
X128850890Y-112413660D01*
X128829828Y-112458447D01*
X128829641Y-112464706D01*
X128848594Y-112511016D01*
X128856264Y-112516730D01*
X128903307Y-112531592D01*
X128937352Y-112533583D01*
X128988643Y-112531179D01*
X129037301Y-112521411D01*
X129049704Y-112516486D01*
X129084280Y-112479758D01*
X129086585Y-112462752D01*
X129100995Y-112566556D01*
X129082472Y-112613856D01*
X129065580Y-112631769D01*
X129022858Y-112658733D01*
X128987178Y-112671824D01*
X128938940Y-112681899D01*
X128888015Y-112685258D01*
G37*
G36*
X129711358Y-112685258D02*
G01*
X129660087Y-112683403D01*
X129609865Y-112677841D01*
X129587038Y-112674023D01*
X129539231Y-112662962D01*
X129490451Y-112647174D01*
X129473710Y-112640561D01*
X129426934Y-112618021D01*
X129385525Y-112591617D01*
X129380409Y-112587805D01*
X129496424Y-112442725D01*
X129539063Y-112467056D01*
X129586694Y-112487759D01*
X129604135Y-112493771D01*
X129652428Y-112505960D01*
X129701783Y-112511444D01*
X129711358Y-112511601D01*
X129763404Y-112508796D01*
X129811392Y-112497848D01*
X129813696Y-112496946D01*
X129849519Y-112462272D01*
X129850088Y-112455914D01*
X129834212Y-112419521D01*
X129793912Y-112401936D01*
X129743143Y-112394518D01*
X129724547Y-112392655D01*
X129699390Y-112389968D01*
X129673745Y-112387281D01*
X129667639Y-112386304D01*
X129662021Y-112385816D01*
X129611003Y-112378186D01*
X129560309Y-112367681D01*
X129534282Y-112360415D01*
X129489830Y-112338311D01*
X129452705Y-112302285D01*
X129429998Y-112257285D01*
X129420656Y-112206956D01*
X129419488Y-112177721D01*
X129424296Y-112126968D01*
X129440358Y-112078575D01*
X129453682Y-112055355D01*
X129486742Y-112018109D01*
X129529960Y-111988925D01*
X129553333Y-111978175D01*
X129601538Y-111963018D01*
X129650921Y-111954698D01*
X129699893Y-111951656D01*
X129711358Y-111951552D01*
X129762259Y-111953967D01*
X129812838Y-111961212D01*
X129819558Y-111962543D01*
X129869142Y-111974994D01*
X129916687Y-111991738D01*
X129922872Y-111994295D01*
X129967691Y-112015353D01*
X130011830Y-112041839D01*
X130014463Y-112043632D01*
X129902356Y-112180408D01*
X129857709Y-112158483D01*
X129811237Y-112141711D01*
X129804903Y-112139863D01*
X129755077Y-112129056D01*
X129707206Y-112125453D01*
X129656587Y-112128750D01*
X129618546Y-112138642D01*
X129587038Y-112174790D01*
X129603891Y-112202878D01*
X129645657Y-112217288D01*
X129696307Y-112224433D01*
X129718930Y-112227058D01*
X129731386Y-112228524D01*
X129743842Y-112229745D01*
X129749948Y-112230478D01*
X129756054Y-112231210D01*
X129804951Y-112237712D01*
X129855692Y-112246963D01*
X129891365Y-112255879D01*
X129936932Y-112276730D01*
X129975629Y-112310891D01*
X129980269Y-112316451D01*
X130004148Y-112360218D01*
X130014845Y-112408271D01*
X130017150Y-112449563D01*
X130012101Y-112502263D01*
X129996954Y-112548985D01*
X129981246Y-112576814D01*
X129946831Y-112615567D01*
X129905403Y-112644040D01*
X129876955Y-112657414D01*
X129826422Y-112673266D01*
X129774673Y-112681968D01*
X129723368Y-112685149D01*
X129711358Y-112685258D01*
G37*
G36*
X130363731Y-112678419D02*
G01*
X130310260Y-112673768D01*
X130262626Y-112657908D01*
X130226710Y-112630792D01*
X130200218Y-112588499D01*
X130186674Y-112538507D01*
X130183235Y-112489619D01*
X130183235Y-111754448D01*
X130371302Y-111754448D01*
X130371302Y-112442725D01*
X130381560Y-112483025D01*
X130411846Y-112497191D01*
X130458741Y-112497191D01*
X130458741Y-112678419D01*
X130363731Y-112678419D01*
G37*
G36*
X130109718Y-111962055D02*
G01*
X130458741Y-111962055D01*
X130458741Y-112122766D01*
X130109718Y-112122766D01*
X130109718Y-111962055D01*
G37*
G36*
X130610660Y-111676290D02*
G01*
X130798727Y-111676290D01*
X130798727Y-111864357D01*
X130610660Y-111864357D01*
X130610660Y-111676290D01*
G37*
G36*
X130610660Y-111962055D02*
G01*
X130798727Y-111962055D01*
X130798727Y-112675000D01*
X130610660Y-112675000D01*
X130610660Y-111962055D01*
G37*
G36*
X131273047Y-112685258D02*
G01*
X131224061Y-112682831D01*
X131173294Y-112674298D01*
X131122280Y-112657611D01*
X131098902Y-112646423D01*
X131057080Y-112618717D01*
X131021984Y-112584141D01*
X130993615Y-112542696D01*
X130988748Y-112533583D01*
X130968784Y-112484219D01*
X130957138Y-112434734D01*
X130951482Y-112380458D01*
X130950890Y-112354797D01*
X130950890Y-112278593D01*
X130953257Y-112228615D01*
X130961575Y-112176988D01*
X130975882Y-112130229D01*
X130988748Y-112101762D01*
X131015772Y-112059377D01*
X131049523Y-112023814D01*
X131089999Y-111995072D01*
X131098902Y-111990143D01*
X131147078Y-111969792D01*
X131195290Y-111957921D01*
X131248100Y-111952155D01*
X131273047Y-111951552D01*
X131323029Y-111954123D01*
X131373676Y-111962585D01*
X131383445Y-111964986D01*
X131432598Y-111981411D01*
X131476501Y-112003820D01*
X131516429Y-112033911D01*
X131545133Y-112065614D01*
X131423500Y-112183827D01*
X131381489Y-112154845D01*
X131362440Y-112146458D01*
X131315021Y-112134612D01*
X131288923Y-112133025D01*
X131239933Y-112138383D01*
X131194152Y-112158178D01*
X131178281Y-112171127D01*
X131150231Y-112213716D01*
X131139812Y-112261741D01*
X131139202Y-112278593D01*
X131139202Y-112354797D01*
X131144697Y-112403867D01*
X131165000Y-112449481D01*
X131178281Y-112465195D01*
X131222176Y-112493069D01*
X131271593Y-112503423D01*
X131288923Y-112504030D01*
X131338425Y-112497823D01*
X131362928Y-112489619D01*
X131406670Y-112463917D01*
X131423500Y-112448342D01*
X131545133Y-112573394D01*
X131509361Y-112610188D01*
X131475768Y-112634211D01*
X131431927Y-112656193D01*
X131382956Y-112672313D01*
X131333261Y-112681604D01*
X131283973Y-112685144D01*
X131273047Y-112685258D01*
G37*
G36*
X121993284Y-113642055D02*
G01*
X122181351Y-113642055D01*
X122181351Y-114355000D01*
X121993284Y-114355000D01*
X121993284Y-113642055D01*
G37*
G36*
X122405322Y-113922934D02*
G01*
X122396912Y-113874017D01*
X122375524Y-113841845D01*
X122331271Y-113817781D01*
X122290772Y-113813025D01*
X122241924Y-113821296D01*
X122209928Y-113842334D01*
X122186067Y-113885287D01*
X122181351Y-113924399D01*
X122166941Y-113766374D01*
X122193056Y-113720556D01*
X122225300Y-113681617D01*
X122244366Y-113665258D01*
X122288083Y-113642217D01*
X122336548Y-113632375D01*
X122357206Y-113631552D01*
X122410436Y-113636300D01*
X122457285Y-113650542D01*
X122502362Y-113677914D01*
X122531840Y-113707512D01*
X122558874Y-113749415D01*
X122578185Y-113799164D01*
X122588745Y-113849131D01*
X122593392Y-113905105D01*
X122593633Y-113922201D01*
X122593633Y-114355000D01*
X122405322Y-114355000D01*
X122405322Y-113922934D01*
G37*
G36*
X122863521Y-113771748D02*
G01*
X123211079Y-113771748D01*
X123259107Y-113759082D01*
X123261882Y-113757337D01*
X123294296Y-113719585D01*
X123295831Y-113716304D01*
X123307862Y-113667164D01*
X123308532Y-113654267D01*
X123301227Y-113604613D01*
X123296564Y-113592473D01*
X123265323Y-113553046D01*
X123262614Y-113551196D01*
X123214744Y-113536842D01*
X123211079Y-113536786D01*
X122863521Y-113536786D01*
X122863521Y-113355558D01*
X123226222Y-113355558D01*
X123275734Y-113359183D01*
X123325734Y-113371546D01*
X123371058Y-113392683D01*
X123410697Y-113421814D01*
X123443640Y-113458160D01*
X123467778Y-113497463D01*
X123487385Y-113546516D01*
X123498147Y-113595517D01*
X123502183Y-113648716D01*
X123502216Y-113654267D01*
X123498853Y-113708015D01*
X123488764Y-113757517D01*
X123469897Y-113807065D01*
X123467778Y-113811315D01*
X123440864Y-113854220D01*
X123407139Y-113889911D01*
X123370570Y-113916095D01*
X123325193Y-113937232D01*
X123275371Y-113949595D01*
X123226222Y-113953220D01*
X122863521Y-113953220D01*
X122863521Y-113771748D01*
G37*
G36*
X122788539Y-113355558D02*
G01*
X122976850Y-113355558D01*
X122976850Y-114355000D01*
X122788539Y-114355000D01*
X122788539Y-113355558D01*
G37*
G36*
X123073570Y-113922201D02*
G01*
X123274826Y-113890694D01*
X123544226Y-114355000D01*
X123316103Y-114355000D01*
X123073570Y-113922201D01*
G37*
G36*
X123701030Y-113356290D02*
G01*
X123889341Y-113356290D01*
X123889341Y-114355000D01*
X123701030Y-114355000D01*
X123701030Y-113356290D01*
G37*
G36*
X123769662Y-113777365D02*
G01*
X124281595Y-113777365D01*
X124281595Y-113958593D01*
X123769662Y-113958593D01*
X123769662Y-113777365D01*
G37*
G36*
X123769662Y-113356290D02*
G01*
X124357066Y-113356290D01*
X124357066Y-113537519D01*
X123769662Y-113537519D01*
X123769662Y-113356290D01*
G37*
G36*
X124755671Y-114365258D02*
G01*
X124702331Y-114361073D01*
X124652801Y-114348518D01*
X124611079Y-114329842D01*
X124569918Y-114301685D01*
X124534761Y-114265908D01*
X124508009Y-114226772D01*
X124486933Y-114182055D01*
X124472250Y-114132471D01*
X124464500Y-114083686D01*
X124463068Y-114066549D01*
X124463068Y-114065816D01*
X124651135Y-114065816D01*
X124651135Y-114066549D01*
X124662370Y-114115397D01*
X124684840Y-114152034D01*
X124726724Y-114178271D01*
X124758357Y-114182564D01*
X124807027Y-114172363D01*
X124835050Y-114150324D01*
X124856971Y-114105553D01*
X124862161Y-114058977D01*
X124862161Y-113975202D01*
X124856794Y-113925746D01*
X124837736Y-113884099D01*
X124797265Y-113855884D01*
X124769348Y-113852103D01*
X124721288Y-113861044D01*
X124700228Y-113872864D01*
X124668459Y-113910936D01*
X124660905Y-113930505D01*
X124485050Y-113930505D01*
X124485050Y-113356290D01*
X125021407Y-113356290D01*
X125021407Y-113537519D01*
X124673117Y-113537519D01*
X124673117Y-113714106D01*
X124715710Y-113687267D01*
X124731002Y-113681622D01*
X124779198Y-113670853D01*
X124804275Y-113669410D01*
X124855018Y-113673652D01*
X124904316Y-113687958D01*
X124937143Y-113705314D01*
X124974982Y-113736695D01*
X125005333Y-113777350D01*
X125021407Y-113809605D01*
X125037816Y-113860138D01*
X125046822Y-113911887D01*
X125050115Y-113963192D01*
X125050228Y-113975202D01*
X125050228Y-114058977D01*
X125047484Y-114111180D01*
X125038001Y-114164016D01*
X125021743Y-114211415D01*
X125015545Y-114224574D01*
X124988007Y-114267920D01*
X124953080Y-114303589D01*
X124914917Y-114329354D01*
X124866347Y-114349795D01*
X124816583Y-114361015D01*
X124767227Y-114365117D01*
X124755671Y-114365258D01*
G37*
G36*
X125209962Y-114185251D02*
G01*
X125552635Y-113734623D01*
X125579796Y-113692392D01*
X125588783Y-113672585D01*
X125601037Y-113623494D01*
X125601484Y-113612990D01*
X125601484Y-113611769D01*
X125587983Y-113563075D01*
X125575350Y-113549242D01*
X125529026Y-113529407D01*
X125501100Y-113527260D01*
X125451988Y-113538024D01*
X125425629Y-113557791D01*
X125400315Y-113600329D01*
X125390458Y-113644741D01*
X125390458Y-113645474D01*
X125197506Y-113645474D01*
X125197506Y-113644741D01*
X125203530Y-113594209D01*
X125216295Y-113542956D01*
X125235453Y-113496855D01*
X125242447Y-113484030D01*
X125272349Y-113441465D01*
X125308659Y-113406462D01*
X125347227Y-113381203D01*
X125395018Y-113361040D01*
X125442721Y-113349973D01*
X125494480Y-113345823D01*
X125499879Y-113345788D01*
X125550216Y-113348222D01*
X125601116Y-113356637D01*
X125650990Y-113372836D01*
X125659369Y-113376563D01*
X125704730Y-113403376D01*
X125741160Y-113438020D01*
X125760486Y-113465467D01*
X125781620Y-113512614D01*
X125792425Y-113561745D01*
X125795168Y-113606151D01*
X125795168Y-113606884D01*
X125791837Y-113657820D01*
X125781842Y-113708412D01*
X125771477Y-113741950D01*
X125751063Y-113790356D01*
X125725361Y-113835190D01*
X125705287Y-113863094D01*
X125459334Y-114173527D01*
X125800786Y-114173527D01*
X125800786Y-114355000D01*
X125209962Y-114355000D01*
X125209962Y-114185251D01*
G37*
G36*
X126901588Y-113807407D02*
G01*
X126901588Y-113982041D01*
X126316383Y-113982041D01*
X126316383Y-113807407D01*
X126901588Y-113807407D01*
G37*
G36*
X126699600Y-114173527D02*
G01*
X126518127Y-114173527D01*
X126518127Y-113615921D01*
X126699600Y-113615921D01*
X126699600Y-114173527D01*
G37*
G36*
X127772314Y-114365258D02*
G01*
X127719237Y-114363231D01*
X127666984Y-114357152D01*
X127632607Y-114350847D01*
X127582484Y-114338151D01*
X127534696Y-114321676D01*
X127504136Y-114308593D01*
X127457414Y-114284116D01*
X127414884Y-114255930D01*
X127396669Y-114241671D01*
X127483863Y-114086332D01*
X127525599Y-114116369D01*
X127571548Y-114141325D01*
X127616976Y-114159605D01*
X127664679Y-114173129D01*
X127713146Y-114181644D01*
X127762377Y-114185151D01*
X127772314Y-114185251D01*
X127825833Y-114182198D01*
X127875392Y-114171787D01*
X127915196Y-114153988D01*
X127951661Y-114119043D01*
X127965949Y-114069348D01*
X127965999Y-114065816D01*
X127965999Y-114065083D01*
X127954264Y-114016434D01*
X127943284Y-114002069D01*
X127901748Y-113973904D01*
X127884422Y-113967630D01*
X127836912Y-113955884D01*
X127790877Y-113947602D01*
X127787213Y-113946870D01*
X127783305Y-113946381D01*
X127768162Y-113944183D01*
X127714538Y-113934635D01*
X127666324Y-113923850D01*
X127619098Y-113910416D01*
X127602077Y-113904616D01*
X127555400Y-113881832D01*
X127514287Y-113849020D01*
X127489969Y-113821573D01*
X127463827Y-113774882D01*
X127449478Y-113722217D01*
X127444455Y-113673078D01*
X127444052Y-113653046D01*
X127444052Y-113652313D01*
X127447471Y-113600011D01*
X127457730Y-113552192D01*
X127477151Y-113504317D01*
X127487283Y-113486716D01*
X127518118Y-113446993D01*
X127556587Y-113413615D01*
X127602688Y-113386581D01*
X127612824Y-113381936D01*
X127661965Y-113364462D01*
X127710188Y-113353731D01*
X127762685Y-113347518D01*
X127812126Y-113345788D01*
X127862984Y-113348525D01*
X127911323Y-113356018D01*
X127921791Y-113358244D01*
X127970263Y-113371248D01*
X128017801Y-113388458D01*
X128031212Y-113394148D01*
X128077153Y-113416321D01*
X128120944Y-113442233D01*
X128133061Y-113450324D01*
X128053438Y-113609570D01*
X128009337Y-113582219D01*
X127963862Y-113559882D01*
X127932782Y-113547777D01*
X127882587Y-113533544D01*
X127834005Y-113526568D01*
X127812126Y-113525795D01*
X127761903Y-113528586D01*
X127711711Y-113539302D01*
X127678281Y-113554371D01*
X127642743Y-113588688D01*
X127630898Y-113634483D01*
X127630898Y-113634972D01*
X127641521Y-113684144D01*
X127655566Y-113703604D01*
X127697084Y-113732602D01*
X127716627Y-113740240D01*
X127763825Y-113753041D01*
X127815116Y-113764101D01*
X127819209Y-113764909D01*
X127824582Y-113766130D01*
X127830200Y-113766863D01*
X127837771Y-113768817D01*
X127845831Y-113770526D01*
X127896664Y-113781487D01*
X127947345Y-113795207D01*
X127996041Y-113812172D01*
X128004101Y-113815467D01*
X128048923Y-113839819D01*
X128087769Y-113873307D01*
X128110346Y-113900708D01*
X128134542Y-113946087D01*
X128147823Y-113996157D01*
X128152679Y-114048398D01*
X128152845Y-114060931D01*
X128152845Y-114062397D01*
X128149309Y-114113951D01*
X128137087Y-114166158D01*
X128116136Y-114213022D01*
X128108148Y-114226039D01*
X128076358Y-114265328D01*
X128036554Y-114298320D01*
X127993879Y-114322629D01*
X127978211Y-114329598D01*
X127927363Y-114346836D01*
X127877526Y-114357422D01*
X127823323Y-114363551D01*
X127772314Y-114365258D01*
G37*
G36*
X128547541Y-113946381D02*
G01*
X128528490Y-113913897D01*
X128198029Y-113356290D01*
X128396599Y-113356290D01*
X128620325Y-113734623D01*
X128646459Y-113779319D01*
X128987911Y-114355000D01*
X128789341Y-114355000D01*
X128547541Y-113946381D01*
G37*
G36*
X128549739Y-113740240D02*
G01*
X128774198Y-113356290D01*
X128972768Y-113356290D01*
X128642307Y-113920736D01*
X128388295Y-114355000D01*
X128189725Y-114355000D01*
X128549739Y-113740240D01*
G37*
G36*
X129341819Y-114355000D02*
G01*
X129153752Y-114355000D01*
X129153752Y-113577330D01*
X129032119Y-113623492D01*
X129032119Y-113423457D01*
X129181107Y-113356290D01*
X129341819Y-113356290D01*
X129341819Y-114355000D01*
G37*
G36*
X129523291Y-114185251D02*
G01*
X129865964Y-113734623D01*
X129893124Y-113692392D01*
X129902112Y-113672585D01*
X129914366Y-113623494D01*
X129914812Y-113612990D01*
X129914812Y-113611769D01*
X129901312Y-113563075D01*
X129888678Y-113549242D01*
X129842354Y-113529407D01*
X129814429Y-113527260D01*
X129765317Y-113538024D01*
X129738958Y-113557791D01*
X129713644Y-113600329D01*
X129703787Y-113644741D01*
X129703787Y-113645474D01*
X129510835Y-113645474D01*
X129510835Y-113644741D01*
X129516858Y-113594209D01*
X129529624Y-113542956D01*
X129548782Y-113496855D01*
X129555775Y-113484030D01*
X129585678Y-113441465D01*
X129621987Y-113406462D01*
X129660556Y-113381203D01*
X129708346Y-113361040D01*
X129756050Y-113349973D01*
X129807809Y-113345823D01*
X129813207Y-113345788D01*
X129863545Y-113348222D01*
X129914444Y-113356637D01*
X129964318Y-113372836D01*
X129972698Y-113376563D01*
X130018058Y-113403376D01*
X130054489Y-113438020D01*
X130073815Y-113465467D01*
X130094949Y-113512614D01*
X130105754Y-113561745D01*
X130108497Y-113606151D01*
X130108497Y-113606884D01*
X130105165Y-113657820D01*
X130095171Y-113708412D01*
X130084805Y-113741950D01*
X130064392Y-113790356D01*
X130038689Y-113835190D01*
X130018616Y-113863094D01*
X129772663Y-114173527D01*
X130114115Y-114173527D01*
X130114115Y-114355000D01*
X129523291Y-114355000D01*
X129523291Y-114185251D01*
G37*
G36*
X130486805Y-113766288D02*
G01*
X130495028Y-113763596D01*
X130523954Y-113761489D01*
X130573060Y-113764924D01*
X130621677Y-113776636D01*
X130664638Y-113796660D01*
X130704503Y-113827355D01*
X130736537Y-113867048D01*
X130753542Y-113898510D01*
X130771063Y-113947751D01*
X130780681Y-113998126D01*
X130784197Y-114048032D01*
X130784317Y-114059710D01*
X130784317Y-114060198D01*
X130781593Y-114112165D01*
X130772176Y-114164830D01*
X130756033Y-114212152D01*
X130749879Y-114225307D01*
X130722508Y-114268595D01*
X130687749Y-114304091D01*
X130649739Y-114329598D01*
X130601534Y-114349900D01*
X130552151Y-114361044D01*
X130503179Y-114365118D01*
X130491714Y-114365258D01*
X130442006Y-114362456D01*
X130391669Y-114352772D01*
X130342249Y-114334131D01*
X130333933Y-114329842D01*
X130292597Y-114301685D01*
X130258591Y-114265908D01*
X130234038Y-114226772D01*
X130214431Y-114176969D01*
X130203669Y-114125983D01*
X130199734Y-114075446D01*
X130199694Y-114071922D01*
X130387911Y-114071922D01*
X130387911Y-114072655D01*
X130395562Y-114122594D01*
X130415022Y-114155209D01*
X130457688Y-114179977D01*
X130491714Y-114184030D01*
X130540778Y-114174833D01*
X130568895Y-114154965D01*
X130591531Y-114111549D01*
X130596006Y-114071922D01*
X130596006Y-114071189D01*
X130590817Y-114022590D01*
X130568895Y-113976179D01*
X130528607Y-113948240D01*
X130491714Y-113942718D01*
X130443045Y-113953537D01*
X130415022Y-113976912D01*
X130393100Y-114023683D01*
X130387911Y-114071922D01*
X130199694Y-114071922D01*
X130199600Y-114063618D01*
X130199600Y-114063129D01*
X130202551Y-114010779D01*
X130210632Y-113959595D01*
X130213033Y-113948335D01*
X130225802Y-113899040D01*
X130242279Y-113849583D01*
X130251135Y-113826702D01*
X130259683Y-113806186D01*
X130268965Y-113786158D01*
X130471686Y-113356290D01*
X130684666Y-113356290D01*
X130486805Y-113766288D01*
G37*
G36*
X130923291Y-114185251D02*
G01*
X131265964Y-113734623D01*
X131293124Y-113692392D01*
X131302112Y-113672585D01*
X131314366Y-113623494D01*
X131314812Y-113612990D01*
X131314812Y-113611769D01*
X131301312Y-113563075D01*
X131288678Y-113549242D01*
X131242354Y-113529407D01*
X131214429Y-113527260D01*
X131165317Y-113538024D01*
X131138958Y-113557791D01*
X131113644Y-113600329D01*
X131103787Y-113644741D01*
X131103787Y-113645474D01*
X130910835Y-113645474D01*
X130910835Y-113644741D01*
X130916858Y-113594209D01*
X130929624Y-113542956D01*
X130948782Y-113496855D01*
X130955775Y-113484030D01*
X130985678Y-113441465D01*
X131021987Y-113406462D01*
X131060556Y-113381203D01*
X131108346Y-113361040D01*
X131156050Y-113349973D01*
X131207809Y-113345823D01*
X131213207Y-113345788D01*
X131263545Y-113348222D01*
X131314444Y-113356637D01*
X131364318Y-113372836D01*
X131372698Y-113376563D01*
X131418058Y-113403376D01*
X131454489Y-113438020D01*
X131473815Y-113465467D01*
X131494949Y-113512614D01*
X131505754Y-113561745D01*
X131508497Y-113606151D01*
X131508497Y-113606884D01*
X131505165Y-113657820D01*
X131495171Y-113708412D01*
X131484805Y-113741950D01*
X131464392Y-113790356D01*
X131438689Y-113835190D01*
X131418616Y-113863094D01*
X131172663Y-114173527D01*
X131514115Y-114173527D01*
X131514115Y-114355000D01*
X130923291Y-114355000D01*
X130923291Y-114185251D01*
G37*
G36*
X125779293Y-115036290D02*
G01*
X126027443Y-115036290D01*
X126027443Y-116035000D01*
X125856229Y-116035000D01*
X125856229Y-115259528D01*
X125863312Y-115303492D01*
X125672314Y-115923625D01*
X125505985Y-115923625D01*
X125314987Y-115317170D01*
X125321826Y-115259528D01*
X125321826Y-116035000D01*
X125150856Y-116035000D01*
X125150856Y-115036290D01*
X125398762Y-115036290D01*
X125589027Y-115709424D01*
X125779293Y-115036290D01*
G37*
G36*
X126217220Y-115036290D02*
G01*
X126405287Y-115036290D01*
X126405287Y-115224357D01*
X126217220Y-115224357D01*
X126217220Y-115036290D01*
G37*
G36*
X126217220Y-115322055D02*
G01*
X126405287Y-115322055D01*
X126405287Y-116035000D01*
X126217220Y-116035000D01*
X126217220Y-115322055D01*
G37*
G36*
X126879607Y-116045258D02*
G01*
X126830621Y-116042831D01*
X126779854Y-116034298D01*
X126728840Y-116017611D01*
X126705462Y-116006423D01*
X126663640Y-115978717D01*
X126628544Y-115944141D01*
X126600175Y-115902696D01*
X126595308Y-115893583D01*
X126575344Y-115844219D01*
X126563698Y-115794734D01*
X126558042Y-115740458D01*
X126557450Y-115714797D01*
X126557450Y-115638593D01*
X126559816Y-115588615D01*
X126568135Y-115536988D01*
X126582442Y-115490229D01*
X126595308Y-115461762D01*
X126622332Y-115419377D01*
X126656082Y-115383814D01*
X126696559Y-115355072D01*
X126705462Y-115350143D01*
X126753637Y-115329792D01*
X126801849Y-115317921D01*
X126854660Y-115312155D01*
X126879607Y-115311552D01*
X126929589Y-115314123D01*
X126980236Y-115322585D01*
X126990004Y-115324986D01*
X127039158Y-115341411D01*
X127083061Y-115363820D01*
X127122989Y-115393911D01*
X127151693Y-115425614D01*
X127030060Y-115543827D01*
X126988049Y-115514845D01*
X126969000Y-115506458D01*
X126921580Y-115494612D01*
X126895482Y-115493025D01*
X126846493Y-115498383D01*
X126800711Y-115518178D01*
X126784840Y-115531127D01*
X126756791Y-115573716D01*
X126746372Y-115621741D01*
X126745762Y-115638593D01*
X126745762Y-115714797D01*
X126751257Y-115763867D01*
X126771560Y-115809481D01*
X126784840Y-115825195D01*
X126828736Y-115853069D01*
X126878153Y-115863423D01*
X126895482Y-115864030D01*
X126944985Y-115857823D01*
X126969488Y-115849619D01*
X127013230Y-115823917D01*
X127030060Y-115808342D01*
X127151693Y-115933394D01*
X127115921Y-115970188D01*
X127082328Y-115994211D01*
X127038487Y-116016193D01*
X126989516Y-116032313D01*
X126939821Y-116041604D01*
X126890533Y-116045144D01*
X126879607Y-116045258D01*
G37*
G36*
X127274792Y-115322055D02*
G01*
X127476780Y-115322055D01*
X127476780Y-116035000D01*
X127274792Y-116035000D01*
X127274792Y-115322055D01*
G37*
G36*
X127675838Y-115520380D02*
G01*
X127642133Y-115499863D01*
X127596215Y-115493025D01*
X127545718Y-115502245D01*
X127508043Y-115529905D01*
X127484596Y-115573686D01*
X127476903Y-115623715D01*
X127476780Y-115631755D01*
X127462370Y-115446374D01*
X127486974Y-115402399D01*
X127519132Y-115363829D01*
X127538818Y-115346967D01*
X127581794Y-115322758D01*
X127631679Y-115311863D01*
X127642133Y-115311552D01*
X127692196Y-115316546D01*
X127722977Y-115325718D01*
X127766319Y-115349991D01*
X127785748Y-115367240D01*
X127675838Y-115520380D01*
G37*
G36*
X128197704Y-115314412D02*
G01*
X128245819Y-115322990D01*
X128293933Y-115339228D01*
X128311602Y-115347700D01*
X128355198Y-115376448D01*
X128390943Y-115412988D01*
X128416627Y-115452969D01*
X128435689Y-115498760D01*
X128447692Y-115550036D01*
X128452457Y-115600876D01*
X128452775Y-115618810D01*
X128452775Y-115736779D01*
X128449915Y-115789473D01*
X128441337Y-115837647D01*
X128425099Y-115885870D01*
X128416627Y-115903597D01*
X128388018Y-115947111D01*
X128351559Y-115982948D01*
X128311602Y-116008866D01*
X128265740Y-116028057D01*
X128214249Y-116040140D01*
X128163094Y-116044938D01*
X128145029Y-116045258D01*
X128092453Y-116042379D01*
X128044359Y-116033743D01*
X127996178Y-116017395D01*
X127978455Y-116008866D01*
X127934970Y-115979921D01*
X127899219Y-115943126D01*
X127873431Y-115902864D01*
X127854368Y-115856439D01*
X127842366Y-115804480D01*
X127837601Y-115752986D01*
X127837283Y-115734825D01*
X127837283Y-115618810D01*
X128025594Y-115618810D01*
X128025594Y-115736779D01*
X128032356Y-115787608D01*
X128056369Y-115830812D01*
X128099534Y-115857672D01*
X128144540Y-115864030D01*
X128195099Y-115855725D01*
X128232956Y-115830812D01*
X128257731Y-115787608D01*
X128264708Y-115736779D01*
X128264708Y-115618810D01*
X128257731Y-115568613D01*
X128232956Y-115525997D01*
X128189473Y-115499336D01*
X128144540Y-115493025D01*
X128094410Y-115501268D01*
X128056857Y-115525997D01*
X128032463Y-115568613D01*
X128025594Y-115618810D01*
X127837283Y-115618810D01*
X127840142Y-115566489D01*
X127850026Y-115513567D01*
X127866971Y-115466130D01*
X127873431Y-115452969D01*
X127902150Y-115409344D01*
X127938604Y-115373513D01*
X127978455Y-115347700D01*
X128024422Y-115328638D01*
X128075923Y-115316635D01*
X128127005Y-115311870D01*
X128145029Y-115311552D01*
X128197704Y-115314412D01*
G37*
G36*
X128620081Y-115322055D02*
G01*
X128808148Y-115322055D01*
X128808148Y-116035000D01*
X128620081Y-116035000D01*
X128620081Y-115322055D01*
G37*
G36*
X129032119Y-115602934D02*
G01*
X129023709Y-115554017D01*
X129002321Y-115521845D01*
X128958068Y-115497781D01*
X128917569Y-115493025D01*
X128868721Y-115501296D01*
X128836725Y-115522334D01*
X128812864Y-115565287D01*
X128808148Y-115604399D01*
X128793738Y-115446374D01*
X128819853Y-115400556D01*
X128852097Y-115361617D01*
X128871163Y-115345258D01*
X128914880Y-115322217D01*
X128963345Y-115312375D01*
X128984003Y-115311552D01*
X129037233Y-115316300D01*
X129084082Y-115330542D01*
X129129159Y-115357914D01*
X129158637Y-115387512D01*
X129185671Y-115429415D01*
X129204982Y-115479164D01*
X129215542Y-115529131D01*
X129220189Y-115585105D01*
X129220430Y-115602201D01*
X129220430Y-116035000D01*
X129032119Y-116035000D01*
X129032119Y-115602934D01*
G37*
G36*
X129741319Y-115314412D02*
G01*
X129789434Y-115322990D01*
X129837548Y-115339228D01*
X129855217Y-115347700D01*
X129898813Y-115376448D01*
X129934558Y-115412988D01*
X129960242Y-115452969D01*
X129979304Y-115498760D01*
X129991306Y-115550036D01*
X129996072Y-115600876D01*
X129996390Y-115618810D01*
X129996390Y-115736779D01*
X129993530Y-115789473D01*
X129984952Y-115837647D01*
X129968714Y-115885870D01*
X129960242Y-115903597D01*
X129931633Y-115947111D01*
X129895174Y-115982948D01*
X129855217Y-116008866D01*
X129809355Y-116028057D01*
X129757864Y-116040140D01*
X129706709Y-116044938D01*
X129688644Y-116045258D01*
X129636068Y-116042379D01*
X129587974Y-116033743D01*
X129539793Y-116017395D01*
X129522070Y-116008866D01*
X129478585Y-115979921D01*
X129442834Y-115943126D01*
X129417046Y-115902864D01*
X129397983Y-115856439D01*
X129385981Y-115804480D01*
X129381215Y-115752986D01*
X129380898Y-115734825D01*
X129380898Y-115618810D01*
X129569209Y-115618810D01*
X129569209Y-115736779D01*
X129575971Y-115787608D01*
X129599983Y-115830812D01*
X129643149Y-115857672D01*
X129688155Y-115864030D01*
X129738713Y-115855725D01*
X129776571Y-115830812D01*
X129801346Y-115787608D01*
X129808323Y-115736779D01*
X129808323Y-115618810D01*
X129801346Y-115568613D01*
X129776571Y-115525997D01*
X129733088Y-115499336D01*
X129688155Y-115493025D01*
X129638024Y-115501268D01*
X129600472Y-115525997D01*
X129576078Y-115568613D01*
X129569209Y-115618810D01*
X129380898Y-115618810D01*
X129383757Y-115566489D01*
X129393641Y-115513567D01*
X129410586Y-115466130D01*
X129417046Y-115452969D01*
X129445765Y-115409344D01*
X129482218Y-115373513D01*
X129522070Y-115347700D01*
X129568037Y-115328638D01*
X129619538Y-115316635D01*
X129670620Y-115311870D01*
X129688644Y-115311552D01*
X129741319Y-115314412D01*
G37*
G36*
X130548378Y-115036290D02*
G01*
X130736445Y-115036290D01*
X130736445Y-116035000D01*
X130548378Y-116035000D01*
X130548378Y-115036290D01*
G37*
G36*
X130382782Y-116045258D02*
G01*
X130333435Y-116040957D01*
X130285396Y-116026457D01*
X130253333Y-116008866D01*
X130213709Y-115973936D01*
X130184646Y-115932176D01*
X130171023Y-115903597D01*
X130155032Y-115852700D01*
X130146254Y-115800569D01*
X130143045Y-115748879D01*
X130142935Y-115736779D01*
X130142935Y-115622718D01*
X130145157Y-115569729D01*
X130151823Y-115521223D01*
X130164440Y-115472585D01*
X130171023Y-115454678D01*
X130193532Y-115410469D01*
X130224999Y-115371325D01*
X130253333Y-115348189D01*
X130296839Y-115325863D01*
X130346390Y-115313842D01*
X130382782Y-115311552D01*
X130433987Y-115319066D01*
X130480899Y-115341606D01*
X130486829Y-115345746D01*
X130524570Y-115380922D01*
X130553335Y-115423380D01*
X130562789Y-115442222D01*
X130548378Y-115600247D01*
X130541372Y-115551841D01*
X130535922Y-115538454D01*
X130502720Y-115501316D01*
X130499774Y-115499619D01*
X130450834Y-115486396D01*
X130442621Y-115486186D01*
X130392994Y-115496388D01*
X130360311Y-115522334D01*
X130337633Y-115568753D01*
X130331275Y-115619403D01*
X130331247Y-115623450D01*
X130331247Y-115736779D01*
X130336810Y-115787255D01*
X130358523Y-115833715D01*
X130360311Y-115835942D01*
X130400780Y-115864183D01*
X130442621Y-115870868D01*
X130492132Y-115861653D01*
X130499774Y-115857923D01*
X130534350Y-115823105D01*
X130535922Y-115820066D01*
X130548074Y-115770896D01*
X130548378Y-115760226D01*
X130557904Y-115923136D01*
X130534182Y-115969165D01*
X130498805Y-116007275D01*
X130490493Y-116013506D01*
X130444322Y-116036297D01*
X130394353Y-116044979D01*
X130382782Y-116045258D01*
G37*
G36*
X131223466Y-116045258D02*
G01*
X131173793Y-116042922D01*
X131122363Y-116034711D01*
X131070748Y-116018654D01*
X131047122Y-116007889D01*
X131004843Y-115981170D01*
X130966104Y-115944010D01*
X130937949Y-115903166D01*
X130935503Y-115898712D01*
X130915282Y-115850970D01*
X130903486Y-115803108D01*
X130897756Y-115750609D01*
X130897157Y-115725788D01*
X130897157Y-115645432D01*
X130899447Y-115594492D01*
X130907497Y-115541820D01*
X130921343Y-115494054D01*
X130933794Y-115464937D01*
X130960112Y-115421579D01*
X130992965Y-115385233D01*
X131032354Y-115355900D01*
X131041016Y-115350875D01*
X131087971Y-115330138D01*
X131140602Y-115317082D01*
X131192824Y-115311898D01*
X131211254Y-115311552D01*
X131261629Y-115315262D01*
X131312663Y-115328084D01*
X131358496Y-115350066D01*
X131371233Y-115358447D01*
X131409782Y-115391730D01*
X131442082Y-115433265D01*
X131465809Y-115477703D01*
X131472593Y-115494002D01*
X131487767Y-115540759D01*
X131498605Y-115592126D01*
X131504532Y-115640854D01*
X131507140Y-115693112D01*
X131507276Y-115708691D01*
X131507276Y-115755341D01*
X131019523Y-115755341D01*
X131019523Y-115628335D01*
X131335573Y-115628335D01*
X131333375Y-115611727D01*
X131322215Y-115563080D01*
X131296471Y-115518591D01*
X131294540Y-115516472D01*
X131252801Y-115489218D01*
X131211254Y-115482766D01*
X131160966Y-115489458D01*
X131115564Y-115513808D01*
X131105741Y-115523311D01*
X131080195Y-115565192D01*
X131069284Y-115615551D01*
X131068371Y-115637861D01*
X131068371Y-115728719D01*
X131074107Y-115778670D01*
X131095298Y-115825226D01*
X131109160Y-115841315D01*
X131151114Y-115868530D01*
X131201291Y-115880155D01*
X131223466Y-115881127D01*
X131272838Y-115875341D01*
X131298448Y-115867693D01*
X131344229Y-115845223D01*
X131365859Y-115829591D01*
X131488713Y-115938768D01*
X131448812Y-115970982D01*
X131405678Y-115997770D01*
X131363661Y-116017414D01*
X131315800Y-116033266D01*
X131267592Y-116042539D01*
X131223466Y-116045258D01*
G37*
D14*
X135454077Y-75876180D02*
X135120744Y-74876180D01*
X135120744Y-74876180D02*
X134787411Y-75876180D01*
X134311220Y-74876180D02*
X134406458Y-74923800D01*
X134406458Y-74923800D02*
X134454077Y-74971419D01*
X134454077Y-74971419D02*
X134501696Y-75066657D01*
X134501696Y-75066657D02*
X134501696Y-75352371D01*
X134501696Y-75352371D02*
X134454077Y-75447609D01*
X134454077Y-75447609D02*
X134406458Y-75495228D01*
X134406458Y-75495228D02*
X134311220Y-75542847D01*
X134311220Y-75542847D02*
X134168363Y-75542847D01*
X134168363Y-75542847D02*
X134073125Y-75495228D01*
X134073125Y-75495228D02*
X134025506Y-75447609D01*
X134025506Y-75447609D02*
X133977887Y-75352371D01*
X133977887Y-75352371D02*
X133977887Y-75066657D01*
X133977887Y-75066657D02*
X134025506Y-74971419D01*
X134025506Y-74971419D02*
X134073125Y-74923800D01*
X134073125Y-74923800D02*
X134168363Y-74876180D01*
X134168363Y-74876180D02*
X134311220Y-74876180D01*
X133120744Y-75542847D02*
X133120744Y-74876180D01*
X133549315Y-75542847D02*
X133549315Y-75019038D01*
X133549315Y-75019038D02*
X133501696Y-74923800D01*
X133501696Y-74923800D02*
X133406458Y-74876180D01*
X133406458Y-74876180D02*
X133263601Y-74876180D01*
X133263601Y-74876180D02*
X133168363Y-74923800D01*
X133168363Y-74923800D02*
X133120744Y-74971419D01*
X132787410Y-75542847D02*
X132406458Y-75542847D01*
X132644553Y-75876180D02*
X132644553Y-75019038D01*
X132644553Y-75019038D02*
X132596934Y-74923800D01*
X132596934Y-74923800D02*
X132501696Y-74876180D01*
X132501696Y-74876180D02*
X132406458Y-74876180D01*
X132073124Y-75257133D02*
X131311220Y-75257133D01*
X131692172Y-74876180D02*
X131692172Y-75638085D01*
X135454077Y-80876180D02*
X135120744Y-79876180D01*
X135120744Y-79876180D02*
X134787411Y-80876180D01*
X134454077Y-79876180D02*
X134454077Y-80542847D01*
X134454077Y-80876180D02*
X134501696Y-80828561D01*
X134501696Y-80828561D02*
X134454077Y-80780942D01*
X134454077Y-80780942D02*
X134406458Y-80828561D01*
X134406458Y-80828561D02*
X134454077Y-80876180D01*
X134454077Y-80876180D02*
X134454077Y-80780942D01*
X133977887Y-80542847D02*
X133977887Y-79876180D01*
X133977887Y-80447609D02*
X133930268Y-80495228D01*
X133930268Y-80495228D02*
X133835030Y-80542847D01*
X133835030Y-80542847D02*
X133692173Y-80542847D01*
X133692173Y-80542847D02*
X133596935Y-80495228D01*
X133596935Y-80495228D02*
X133549316Y-80399990D01*
X133549316Y-80399990D02*
X133549316Y-79876180D01*
X133073125Y-80257133D02*
X132311221Y-80257133D01*
X124837819Y-81324220D02*
X123837819Y-81324220D01*
X123837819Y-81324220D02*
X124552104Y-80990887D01*
X124552104Y-80990887D02*
X123837819Y-80657554D01*
X123837819Y-80657554D02*
X124837819Y-80657554D01*
X124837819Y-80038506D02*
X124790200Y-80133744D01*
X124790200Y-80133744D02*
X124742580Y-80181363D01*
X124742580Y-80181363D02*
X124647342Y-80228982D01*
X124647342Y-80228982D02*
X124361628Y-80228982D01*
X124361628Y-80228982D02*
X124266390Y-80181363D01*
X124266390Y-80181363D02*
X124218771Y-80133744D01*
X124218771Y-80133744D02*
X124171152Y-80038506D01*
X124171152Y-80038506D02*
X124171152Y-79895649D01*
X124171152Y-79895649D02*
X124218771Y-79800411D01*
X124218771Y-79800411D02*
X124266390Y-79752792D01*
X124266390Y-79752792D02*
X124361628Y-79705173D01*
X124361628Y-79705173D02*
X124647342Y-79705173D01*
X124647342Y-79705173D02*
X124742580Y-79752792D01*
X124742580Y-79752792D02*
X124790200Y-79800411D01*
X124790200Y-79800411D02*
X124837819Y-79895649D01*
X124837819Y-79895649D02*
X124837819Y-80038506D01*
X124837819Y-78848030D02*
X123837819Y-78848030D01*
X124790200Y-78848030D02*
X124837819Y-78943268D01*
X124837819Y-78943268D02*
X124837819Y-79133744D01*
X124837819Y-79133744D02*
X124790200Y-79228982D01*
X124790200Y-79228982D02*
X124742580Y-79276601D01*
X124742580Y-79276601D02*
X124647342Y-79324220D01*
X124647342Y-79324220D02*
X124361628Y-79324220D01*
X124361628Y-79324220D02*
X124266390Y-79276601D01*
X124266390Y-79276601D02*
X124218771Y-79228982D01*
X124218771Y-79228982D02*
X124171152Y-79133744D01*
X124171152Y-79133744D02*
X124171152Y-78943268D01*
X124171152Y-78943268D02*
X124218771Y-78848030D01*
X124171152Y-77943268D02*
X124837819Y-77943268D01*
X124171152Y-78371839D02*
X124694961Y-78371839D01*
X124694961Y-78371839D02*
X124790200Y-78324220D01*
X124790200Y-78324220D02*
X124837819Y-78228982D01*
X124837819Y-78228982D02*
X124837819Y-78086125D01*
X124837819Y-78086125D02*
X124790200Y-77990887D01*
X124790200Y-77990887D02*
X124742580Y-77943268D01*
X124837819Y-77324220D02*
X124790200Y-77419458D01*
X124790200Y-77419458D02*
X124694961Y-77467077D01*
X124694961Y-77467077D02*
X123837819Y-77467077D01*
X124790200Y-76562315D02*
X124837819Y-76657553D01*
X124837819Y-76657553D02*
X124837819Y-76848029D01*
X124837819Y-76848029D02*
X124790200Y-76943267D01*
X124790200Y-76943267D02*
X124694961Y-76990886D01*
X124694961Y-76990886D02*
X124314009Y-76990886D01*
X124314009Y-76990886D02*
X124218771Y-76943267D01*
X124218771Y-76943267D02*
X124171152Y-76848029D01*
X124171152Y-76848029D02*
X124171152Y-76657553D01*
X124171152Y-76657553D02*
X124218771Y-76562315D01*
X124218771Y-76562315D02*
X124314009Y-76514696D01*
X124314009Y-76514696D02*
X124409247Y-76514696D01*
X124409247Y-76514696D02*
X124504485Y-76990886D01*
X135454078Y-78426180D02*
X135120745Y-77426180D01*
X135120745Y-77426180D02*
X134787412Y-78426180D01*
X134311221Y-77426180D02*
X134406459Y-77473800D01*
X134406459Y-77473800D02*
X134454078Y-77521419D01*
X134454078Y-77521419D02*
X134501697Y-77616657D01*
X134501697Y-77616657D02*
X134501697Y-77902371D01*
X134501697Y-77902371D02*
X134454078Y-77997609D01*
X134454078Y-77997609D02*
X134406459Y-78045228D01*
X134406459Y-78045228D02*
X134311221Y-78092847D01*
X134311221Y-78092847D02*
X134168364Y-78092847D01*
X134168364Y-78092847D02*
X134073126Y-78045228D01*
X134073126Y-78045228D02*
X134025507Y-77997609D01*
X134025507Y-77997609D02*
X133977888Y-77902371D01*
X133977888Y-77902371D02*
X133977888Y-77616657D01*
X133977888Y-77616657D02*
X134025507Y-77521419D01*
X134025507Y-77521419D02*
X134073126Y-77473800D01*
X134073126Y-77473800D02*
X134168364Y-77426180D01*
X134168364Y-77426180D02*
X134311221Y-77426180D01*
X133120745Y-78092847D02*
X133120745Y-77426180D01*
X133549316Y-78092847D02*
X133549316Y-77569038D01*
X133549316Y-77569038D02*
X133501697Y-77473800D01*
X133501697Y-77473800D02*
X133406459Y-77426180D01*
X133406459Y-77426180D02*
X133263602Y-77426180D01*
X133263602Y-77426180D02*
X133168364Y-77473800D01*
X133168364Y-77473800D02*
X133120745Y-77521419D01*
X132787411Y-78092847D02*
X132406459Y-78092847D01*
X132644554Y-78426180D02*
X132644554Y-77569038D01*
X132644554Y-77569038D02*
X132596935Y-77473800D01*
X132596935Y-77473800D02*
X132501697Y-77426180D01*
X132501697Y-77426180D02*
X132406459Y-77426180D01*
X132073125Y-77807133D02*
X131311221Y-77807133D01*
X123142580Y-81102792D02*
X123190200Y-81150411D01*
X123190200Y-81150411D02*
X123237819Y-81293268D01*
X123237819Y-81293268D02*
X123237819Y-81388506D01*
X123237819Y-81388506D02*
X123190200Y-81531363D01*
X123190200Y-81531363D02*
X123094961Y-81626601D01*
X123094961Y-81626601D02*
X122999723Y-81674220D01*
X122999723Y-81674220D02*
X122809247Y-81721839D01*
X122809247Y-81721839D02*
X122666390Y-81721839D01*
X122666390Y-81721839D02*
X122475914Y-81674220D01*
X122475914Y-81674220D02*
X122380676Y-81626601D01*
X122380676Y-81626601D02*
X122285438Y-81531363D01*
X122285438Y-81531363D02*
X122237819Y-81388506D01*
X122237819Y-81388506D02*
X122237819Y-81293268D01*
X122237819Y-81293268D02*
X122285438Y-81150411D01*
X122285438Y-81150411D02*
X122333057Y-81102792D01*
X123237819Y-80674220D02*
X122237819Y-80674220D01*
X122237819Y-80674220D02*
X123237819Y-80102792D01*
X123237819Y-80102792D02*
X122237819Y-80102792D01*
X122237819Y-79721839D02*
X122237819Y-79102792D01*
X122237819Y-79102792D02*
X122618771Y-79436125D01*
X122618771Y-79436125D02*
X122618771Y-79293268D01*
X122618771Y-79293268D02*
X122666390Y-79198030D01*
X122666390Y-79198030D02*
X122714009Y-79150411D01*
X122714009Y-79150411D02*
X122809247Y-79102792D01*
X122809247Y-79102792D02*
X123047342Y-79102792D01*
X123047342Y-79102792D02*
X123142580Y-79150411D01*
X123142580Y-79150411D02*
X123190200Y-79198030D01*
X123190200Y-79198030D02*
X123237819Y-79293268D01*
X123237819Y-79293268D02*
X123237819Y-79578982D01*
X123237819Y-79578982D02*
X123190200Y-79674220D01*
X123190200Y-79674220D02*
X123142580Y-79721839D01*
X123237819Y-78150411D02*
X123237819Y-78721839D01*
X123237819Y-78436125D02*
X122237819Y-78436125D01*
X122237819Y-78436125D02*
X122380676Y-78531363D01*
X122380676Y-78531363D02*
X122475914Y-78626601D01*
X122475914Y-78626601D02*
X122523533Y-78721839D01*
X122237819Y-77293268D02*
X122237819Y-77483744D01*
X122237819Y-77483744D02*
X122285438Y-77578982D01*
X122285438Y-77578982D02*
X122333057Y-77626601D01*
X122333057Y-77626601D02*
X122475914Y-77721839D01*
X122475914Y-77721839D02*
X122666390Y-77769458D01*
X122666390Y-77769458D02*
X123047342Y-77769458D01*
X123047342Y-77769458D02*
X123142580Y-77721839D01*
X123142580Y-77721839D02*
X123190200Y-77674220D01*
X123190200Y-77674220D02*
X123237819Y-77578982D01*
X123237819Y-77578982D02*
X123237819Y-77388506D01*
X123237819Y-77388506D02*
X123190200Y-77293268D01*
X123190200Y-77293268D02*
X123142580Y-77245649D01*
X123142580Y-77245649D02*
X123047342Y-77198030D01*
X123047342Y-77198030D02*
X122809247Y-77198030D01*
X122809247Y-77198030D02*
X122714009Y-77245649D01*
X122714009Y-77245649D02*
X122666390Y-77293268D01*
X122666390Y-77293268D02*
X122618771Y-77388506D01*
X122618771Y-77388506D02*
X122618771Y-77578982D01*
X122618771Y-77578982D02*
X122666390Y-77674220D01*
X122666390Y-77674220D02*
X122714009Y-77721839D01*
X122714009Y-77721839D02*
X122809247Y-77769458D01*
X122237819Y-76864696D02*
X122237819Y-76245649D01*
X122237819Y-76245649D02*
X122618771Y-76578982D01*
X122618771Y-76578982D02*
X122618771Y-76436125D01*
X122618771Y-76436125D02*
X122666390Y-76340887D01*
X122666390Y-76340887D02*
X122714009Y-76293268D01*
X122714009Y-76293268D02*
X122809247Y-76245649D01*
X122809247Y-76245649D02*
X123047342Y-76245649D01*
X123047342Y-76245649D02*
X123142580Y-76293268D01*
X123142580Y-76293268D02*
X123190200Y-76340887D01*
X123190200Y-76340887D02*
X123237819Y-76436125D01*
X123237819Y-76436125D02*
X123237819Y-76721839D01*
X123237819Y-76721839D02*
X123190200Y-76817077D01*
X123190200Y-76817077D02*
X123142580Y-76864696D01*
X135454077Y-83376180D02*
X135120744Y-82376180D01*
X135120744Y-82376180D02*
X134787411Y-83376180D01*
X134454077Y-82376180D02*
X134454077Y-83042847D01*
X134454077Y-83376180D02*
X134501696Y-83328561D01*
X134501696Y-83328561D02*
X134454077Y-83280942D01*
X134454077Y-83280942D02*
X134406458Y-83328561D01*
X134406458Y-83328561D02*
X134454077Y-83376180D01*
X134454077Y-83376180D02*
X134454077Y-83280942D01*
X133977887Y-83042847D02*
X133977887Y-82376180D01*
X133977887Y-82947609D02*
X133930268Y-82995228D01*
X133930268Y-82995228D02*
X133835030Y-83042847D01*
X133835030Y-83042847D02*
X133692173Y-83042847D01*
X133692173Y-83042847D02*
X133596935Y-82995228D01*
X133596935Y-82995228D02*
X133549316Y-82899990D01*
X133549316Y-82899990D02*
X133549316Y-82376180D01*
X133073125Y-82757133D02*
X132311221Y-82757133D01*
X132692173Y-82376180D02*
X132692173Y-83138085D01*
X129667191Y-68700819D02*
X130333857Y-69700819D01*
X130333857Y-68700819D02*
X129667191Y-69700819D01*
X130714810Y-69700819D02*
X130714810Y-68700819D01*
X131143381Y-69415104D02*
X131619571Y-69415104D01*
X131048143Y-69700819D02*
X131381476Y-68700819D01*
X131381476Y-68700819D02*
X131714809Y-69700819D01*
X132238619Y-68700819D02*
X132429095Y-68700819D01*
X132429095Y-68700819D02*
X132524333Y-68748438D01*
X132524333Y-68748438D02*
X132619571Y-68843676D01*
X132619571Y-68843676D02*
X132667190Y-69034152D01*
X132667190Y-69034152D02*
X132667190Y-69367485D01*
X132667190Y-69367485D02*
X132619571Y-69557961D01*
X132619571Y-69557961D02*
X132524333Y-69653200D01*
X132524333Y-69653200D02*
X132429095Y-69700819D01*
X132429095Y-69700819D02*
X132238619Y-69700819D01*
X132238619Y-69700819D02*
X132143381Y-69653200D01*
X132143381Y-69653200D02*
X132048143Y-69557961D01*
X132048143Y-69557961D02*
X132000524Y-69367485D01*
X132000524Y-69367485D02*
X132000524Y-69034152D01*
X132000524Y-69034152D02*
X132048143Y-68843676D01*
X132048143Y-68843676D02*
X132143381Y-68748438D01*
X132143381Y-68748438D02*
X132238619Y-68700819D01*
X126429095Y-67653200D02*
X126571952Y-67700819D01*
X126571952Y-67700819D02*
X126810047Y-67700819D01*
X126810047Y-67700819D02*
X126905285Y-67653200D01*
X126905285Y-67653200D02*
X126952904Y-67605580D01*
X126952904Y-67605580D02*
X127000523Y-67510342D01*
X127000523Y-67510342D02*
X127000523Y-67415104D01*
X127000523Y-67415104D02*
X126952904Y-67319866D01*
X126952904Y-67319866D02*
X126905285Y-67272247D01*
X126905285Y-67272247D02*
X126810047Y-67224628D01*
X126810047Y-67224628D02*
X126619571Y-67177009D01*
X126619571Y-67177009D02*
X126524333Y-67129390D01*
X126524333Y-67129390D02*
X126476714Y-67081771D01*
X126476714Y-67081771D02*
X126429095Y-66986533D01*
X126429095Y-66986533D02*
X126429095Y-66891295D01*
X126429095Y-66891295D02*
X126476714Y-66796057D01*
X126476714Y-66796057D02*
X126524333Y-66748438D01*
X126524333Y-66748438D02*
X126619571Y-66700819D01*
X126619571Y-66700819D02*
X126857666Y-66700819D01*
X126857666Y-66700819D02*
X127000523Y-66748438D01*
X127810047Y-67653200D02*
X127714809Y-67700819D01*
X127714809Y-67700819D02*
X127524333Y-67700819D01*
X127524333Y-67700819D02*
X127429095Y-67653200D01*
X127429095Y-67653200D02*
X127381476Y-67557961D01*
X127381476Y-67557961D02*
X127381476Y-67177009D01*
X127381476Y-67177009D02*
X127429095Y-67081771D01*
X127429095Y-67081771D02*
X127524333Y-67034152D01*
X127524333Y-67034152D02*
X127714809Y-67034152D01*
X127714809Y-67034152D02*
X127810047Y-67081771D01*
X127810047Y-67081771D02*
X127857666Y-67177009D01*
X127857666Y-67177009D02*
X127857666Y-67272247D01*
X127857666Y-67272247D02*
X127381476Y-67367485D01*
X128667190Y-67653200D02*
X128571952Y-67700819D01*
X128571952Y-67700819D02*
X128381476Y-67700819D01*
X128381476Y-67700819D02*
X128286238Y-67653200D01*
X128286238Y-67653200D02*
X128238619Y-67557961D01*
X128238619Y-67557961D02*
X128238619Y-67177009D01*
X128238619Y-67177009D02*
X128286238Y-67081771D01*
X128286238Y-67081771D02*
X128381476Y-67034152D01*
X128381476Y-67034152D02*
X128571952Y-67034152D01*
X128571952Y-67034152D02*
X128667190Y-67081771D01*
X128667190Y-67081771D02*
X128714809Y-67177009D01*
X128714809Y-67177009D02*
X128714809Y-67272247D01*
X128714809Y-67272247D02*
X128238619Y-67367485D01*
X129524333Y-67653200D02*
X129429095Y-67700819D01*
X129429095Y-67700819D02*
X129238619Y-67700819D01*
X129238619Y-67700819D02*
X129143381Y-67653200D01*
X129143381Y-67653200D02*
X129095762Y-67557961D01*
X129095762Y-67557961D02*
X129095762Y-67177009D01*
X129095762Y-67177009D02*
X129143381Y-67081771D01*
X129143381Y-67081771D02*
X129238619Y-67034152D01*
X129238619Y-67034152D02*
X129429095Y-67034152D01*
X129429095Y-67034152D02*
X129524333Y-67081771D01*
X129524333Y-67081771D02*
X129571952Y-67177009D01*
X129571952Y-67177009D02*
X129571952Y-67272247D01*
X129571952Y-67272247D02*
X129095762Y-67367485D01*
X130429095Y-67700819D02*
X130429095Y-66700819D01*
X130429095Y-67653200D02*
X130333857Y-67700819D01*
X130333857Y-67700819D02*
X130143381Y-67700819D01*
X130143381Y-67700819D02*
X130048143Y-67653200D01*
X130048143Y-67653200D02*
X130000524Y-67605580D01*
X130000524Y-67605580D02*
X129952905Y-67510342D01*
X129952905Y-67510342D02*
X129952905Y-67224628D01*
X129952905Y-67224628D02*
X130000524Y-67129390D01*
X130000524Y-67129390D02*
X130048143Y-67081771D01*
X130048143Y-67081771D02*
X130143381Y-67034152D01*
X130143381Y-67034152D02*
X130333857Y-67034152D01*
X130333857Y-67034152D02*
X130429095Y-67081771D01*
X131619572Y-67653200D02*
X131762429Y-67700819D01*
X131762429Y-67700819D02*
X132000524Y-67700819D01*
X132000524Y-67700819D02*
X132095762Y-67653200D01*
X132095762Y-67653200D02*
X132143381Y-67605580D01*
X132143381Y-67605580D02*
X132191000Y-67510342D01*
X132191000Y-67510342D02*
X132191000Y-67415104D01*
X132191000Y-67415104D02*
X132143381Y-67319866D01*
X132143381Y-67319866D02*
X132095762Y-67272247D01*
X132095762Y-67272247D02*
X132000524Y-67224628D01*
X132000524Y-67224628D02*
X131810048Y-67177009D01*
X131810048Y-67177009D02*
X131714810Y-67129390D01*
X131714810Y-67129390D02*
X131667191Y-67081771D01*
X131667191Y-67081771D02*
X131619572Y-66986533D01*
X131619572Y-66986533D02*
X131619572Y-66891295D01*
X131619572Y-66891295D02*
X131667191Y-66796057D01*
X131667191Y-66796057D02*
X131714810Y-66748438D01*
X131714810Y-66748438D02*
X131810048Y-66700819D01*
X131810048Y-66700819D02*
X132048143Y-66700819D01*
X132048143Y-66700819D02*
X132191000Y-66748438D01*
X132476715Y-67034152D02*
X132857667Y-67034152D01*
X132619572Y-66700819D02*
X132619572Y-67557961D01*
X132619572Y-67557961D02*
X132667191Y-67653200D01*
X132667191Y-67653200D02*
X132762429Y-67700819D01*
X132762429Y-67700819D02*
X132857667Y-67700819D01*
X133619572Y-67034152D02*
X133619572Y-67700819D01*
X133191001Y-67034152D02*
X133191001Y-67557961D01*
X133191001Y-67557961D02*
X133238620Y-67653200D01*
X133238620Y-67653200D02*
X133333858Y-67700819D01*
X133333858Y-67700819D02*
X133476715Y-67700819D01*
X133476715Y-67700819D02*
X133571953Y-67653200D01*
X133571953Y-67653200D02*
X133619572Y-67605580D01*
X134524334Y-67700819D02*
X134524334Y-66700819D01*
X134524334Y-67653200D02*
X134429096Y-67700819D01*
X134429096Y-67700819D02*
X134238620Y-67700819D01*
X134238620Y-67700819D02*
X134143382Y-67653200D01*
X134143382Y-67653200D02*
X134095763Y-67605580D01*
X134095763Y-67605580D02*
X134048144Y-67510342D01*
X134048144Y-67510342D02*
X134048144Y-67224628D01*
X134048144Y-67224628D02*
X134095763Y-67129390D01*
X134095763Y-67129390D02*
X134143382Y-67081771D01*
X134143382Y-67081771D02*
X134238620Y-67034152D01*
X134238620Y-67034152D02*
X134429096Y-67034152D01*
X134429096Y-67034152D02*
X134524334Y-67081771D01*
X135000525Y-67700819D02*
X135000525Y-67034152D01*
X135000525Y-66700819D02*
X134952906Y-66748438D01*
X134952906Y-66748438D02*
X135000525Y-66796057D01*
X135000525Y-66796057D02*
X135048144Y-66748438D01*
X135048144Y-66748438D02*
X135000525Y-66700819D01*
X135000525Y-66700819D02*
X135000525Y-66796057D01*
X135619572Y-67700819D02*
X135524334Y-67653200D01*
X135524334Y-67653200D02*
X135476715Y-67605580D01*
X135476715Y-67605580D02*
X135429096Y-67510342D01*
X135429096Y-67510342D02*
X135429096Y-67224628D01*
X135429096Y-67224628D02*
X135476715Y-67129390D01*
X135476715Y-67129390D02*
X135524334Y-67081771D01*
X135524334Y-67081771D02*
X135619572Y-67034152D01*
X135619572Y-67034152D02*
X135762429Y-67034152D01*
X135762429Y-67034152D02*
X135857667Y-67081771D01*
X135857667Y-67081771D02*
X135905286Y-67129390D01*
X135905286Y-67129390D02*
X135952905Y-67224628D01*
X135952905Y-67224628D02*
X135952905Y-67510342D01*
X135952905Y-67510342D02*
X135905286Y-67605580D01*
X135905286Y-67605580D02*
X135857667Y-67653200D01*
X135857667Y-67653200D02*
X135762429Y-67700819D01*
X135762429Y-67700819D02*
X135619572Y-67700819D01*
X124787819Y-101718666D02*
X123787819Y-101718666D01*
X124264009Y-101718666D02*
X124264009Y-101147238D01*
X124787819Y-101147238D02*
X123787819Y-101147238D01*
X123787819Y-100813904D02*
X123787819Y-100242476D01*
X124787819Y-100528190D02*
X123787819Y-100528190D01*
X124406866Y-99909142D02*
X124406866Y-99147238D01*
X124787819Y-98099619D02*
X124311628Y-98432952D01*
X124787819Y-98671047D02*
X123787819Y-98671047D01*
X123787819Y-98671047D02*
X123787819Y-98290095D01*
X123787819Y-98290095D02*
X123835438Y-98194857D01*
X123835438Y-98194857D02*
X123883057Y-98147238D01*
X123883057Y-98147238D02*
X123978295Y-98099619D01*
X123978295Y-98099619D02*
X124121152Y-98099619D01*
X124121152Y-98099619D02*
X124216390Y-98147238D01*
X124216390Y-98147238D02*
X124264009Y-98194857D01*
X124264009Y-98194857D02*
X124311628Y-98290095D01*
X124311628Y-98290095D02*
X124311628Y-98671047D01*
X124502104Y-97718666D02*
X124502104Y-97242476D01*
X124787819Y-97813904D02*
X123787819Y-97480571D01*
X123787819Y-97480571D02*
X124787819Y-97147238D01*
X123787819Y-96385333D02*
X123787819Y-96575809D01*
X123787819Y-96575809D02*
X123835438Y-96671047D01*
X123835438Y-96671047D02*
X123883057Y-96718666D01*
X123883057Y-96718666D02*
X124025914Y-96813904D01*
X124025914Y-96813904D02*
X124216390Y-96861523D01*
X124216390Y-96861523D02*
X124597342Y-96861523D01*
X124597342Y-96861523D02*
X124692580Y-96813904D01*
X124692580Y-96813904D02*
X124740200Y-96766285D01*
X124740200Y-96766285D02*
X124787819Y-96671047D01*
X124787819Y-96671047D02*
X124787819Y-96480571D01*
X124787819Y-96480571D02*
X124740200Y-96385333D01*
X124740200Y-96385333D02*
X124692580Y-96337714D01*
X124692580Y-96337714D02*
X124597342Y-96290095D01*
X124597342Y-96290095D02*
X124359247Y-96290095D01*
X124359247Y-96290095D02*
X124264009Y-96337714D01*
X124264009Y-96337714D02*
X124216390Y-96385333D01*
X124216390Y-96385333D02*
X124168771Y-96480571D01*
X124168771Y-96480571D02*
X124168771Y-96671047D01*
X124168771Y-96671047D02*
X124216390Y-96766285D01*
X124216390Y-96766285D02*
X124264009Y-96813904D01*
X124264009Y-96813904D02*
X124359247Y-96861523D01*
X123883057Y-95909142D02*
X123835438Y-95861523D01*
X123835438Y-95861523D02*
X123787819Y-95766285D01*
X123787819Y-95766285D02*
X123787819Y-95528190D01*
X123787819Y-95528190D02*
X123835438Y-95432952D01*
X123835438Y-95432952D02*
X123883057Y-95385333D01*
X123883057Y-95385333D02*
X123978295Y-95337714D01*
X123978295Y-95337714D02*
X124073533Y-95337714D01*
X124073533Y-95337714D02*
X124216390Y-95385333D01*
X124216390Y-95385333D02*
X124787819Y-95956761D01*
X124787819Y-95956761D02*
X124787819Y-95337714D01*
D15*
%TO.C,J1*%
X121498000Y-84196000D02*
X121498000Y-74046000D01*
X139498000Y-84196000D02*
X121498000Y-84196000D01*
X121498000Y-74046000D02*
X139498000Y-74046000D01*
%TO.C,SC1*%
X136773999Y-84556000D02*
X136774000Y-85556000D01*
X136773999Y-84556000D02*
X135774001Y-84556000D01*
X136484000Y-88266000D02*
X136483999Y-84846000D01*
X136483999Y-84846000D02*
X132014000Y-84846000D01*
X136174000Y-86906000D02*
X135974000Y-86906000D01*
X136174000Y-86106000D02*
X136174000Y-86906000D01*
X135974000Y-87756000D02*
X134249000Y-87756000D01*
X135974000Y-86906000D02*
X135974000Y-87756000D01*
X135973999Y-86106000D02*
X136174000Y-86106000D01*
X135974000Y-85355999D02*
X135973999Y-86106000D01*
X134249000Y-85356000D02*
X135974000Y-85355999D01*
X134249000Y-85356000D02*
X132524000Y-85356000D01*
X132524000Y-87756000D02*
X134249000Y-87756000D01*
X132524000Y-86905999D02*
X132524000Y-87756000D01*
X132524000Y-86106000D02*
X132324000Y-86106000D01*
X132524000Y-85356000D02*
X132524000Y-86106000D01*
X132324000Y-86906000D02*
X132524000Y-86905999D01*
X132324000Y-86106000D02*
X132324000Y-86906000D01*
X132014000Y-88266000D02*
X136484000Y-88266000D01*
X132014000Y-84846000D02*
X132014000Y-88266000D01*
D16*
%TO.C,U2*%
X126691000Y-50821970D02*
X135691000Y-50821970D01*
X126691000Y-58175270D02*
X126691000Y-50821970D01*
X135691000Y-50821970D02*
X135691000Y-58175270D01*
X135691000Y-58175270D02*
X126691000Y-58175270D01*
X138091000Y-52246910D02*
X124291000Y-52246910D01*
D15*
X122341000Y-53896000D02*
G75*
G02*
X124291257Y-52257825I1994611J-394612D01*
G01*
X124291004Y-73245835D02*
G75*
G02*
X122329152Y-71596000I44852J2044691D01*
G01*
X138091061Y-52243222D02*
G75*
G02*
X140057159Y-53902531I-44661J-2047378D01*
G01*
X140059662Y-71596000D02*
G75*
G02*
X138091000Y-73245532I-1968662J350000D01*
G01*
%TO.C,AE1*%
X126618000Y-118618000D02*
G75*
G02*
X125618000Y-118618000I-500000J0D01*
G01*
X126618000Y-118618000D02*
G75*
G02*
X127616527Y-118579652I500000J0D01*
G01*
X128620937Y-118618000D02*
G75*
G02*
X127616527Y-118579652I-502937J0D01*
G01*
X128620937Y-118618000D02*
G75*
G02*
X129615063Y-118618000I497063J0D01*
G01*
X130720937Y-118615063D02*
G75*
G02*
X131715063Y-118615063I497063J0D01*
G01*
X130720937Y-118618000D02*
G75*
G02*
X129615063Y-118618000I-552937J0D01*
G01*
X132820937Y-118615063D02*
G75*
G02*
X131715063Y-118615063I-552937J0D01*
G01*
X132820937Y-118618000D02*
G75*
G02*
X133815063Y-118618000I497063J0D01*
G01*
X134920937Y-118615063D02*
G75*
G02*
X135915063Y-118615063I497063J0D01*
G01*
X134920937Y-118618000D02*
G75*
G02*
X133815063Y-118618000I-552937J0D01*
G01*
D17*
%TO.C,.*%
G36*
X137321303Y-111088286D02*
G01*
X137494489Y-111088295D01*
X137678589Y-111088305D01*
X137873952Y-111088311D01*
X137940894Y-111088312D01*
X140279065Y-111088312D01*
X140338442Y-111100412D01*
X140424747Y-111123747D01*
X140505737Y-111157121D01*
X140580752Y-111199843D01*
X140649136Y-111251222D01*
X140710229Y-111310565D01*
X140763375Y-111377181D01*
X140807914Y-111450379D01*
X140843189Y-111529467D01*
X140868542Y-111613754D01*
X140879016Y-111668491D01*
X140879822Y-111679735D01*
X140880592Y-111702199D01*
X140881327Y-111735381D01*
X140882025Y-111778781D01*
X140882688Y-111831896D01*
X140883315Y-111894225D01*
X140883906Y-111965268D01*
X140884461Y-112044522D01*
X140884981Y-112131486D01*
X140885465Y-112225659D01*
X140885913Y-112326539D01*
X140886326Y-112433625D01*
X140886703Y-112546416D01*
X140887044Y-112664411D01*
X140887350Y-112787107D01*
X140887621Y-112914003D01*
X140887856Y-113044599D01*
X140888055Y-113178392D01*
X140888219Y-113314882D01*
X140888348Y-113453566D01*
X140888441Y-113593945D01*
X140888499Y-113735515D01*
X140888522Y-113877776D01*
X140888509Y-114020227D01*
X140888462Y-114162366D01*
X140888378Y-114303691D01*
X140888260Y-114443701D01*
X140888107Y-114581896D01*
X140887918Y-114717773D01*
X140887695Y-114850831D01*
X140887436Y-114980569D01*
X140887142Y-115106485D01*
X140886813Y-115228078D01*
X140886449Y-115344847D01*
X140886051Y-115456290D01*
X140885617Y-115561906D01*
X140885148Y-115661193D01*
X140884645Y-115753651D01*
X140884107Y-115838777D01*
X140883534Y-115916070D01*
X140882926Y-115985030D01*
X140882283Y-116045153D01*
X140881606Y-116095940D01*
X140880894Y-116136889D01*
X140880147Y-116167498D01*
X140879366Y-116187267D01*
X140878753Y-116194705D01*
X140860162Y-116279945D01*
X140831155Y-116360968D01*
X140792493Y-116437002D01*
X140744940Y-116507274D01*
X140689260Y-116571010D01*
X140626216Y-116627437D01*
X140556572Y-116675782D01*
X140481090Y-116715272D01*
X140400534Y-116745133D01*
X140316202Y-116764506D01*
X140305544Y-116765281D01*
X140283670Y-116766022D01*
X140251066Y-116766728D01*
X140208219Y-116767400D01*
X140155613Y-116768037D01*
X140093734Y-116768639D01*
X140023068Y-116769207D01*
X139944100Y-116769741D01*
X139857317Y-116770241D01*
X139763204Y-116770706D01*
X139662245Y-116771138D01*
X139554928Y-116771535D01*
X139441738Y-116771898D01*
X139323160Y-116772228D01*
X139199680Y-116772524D01*
X139071783Y-116772786D01*
X138939956Y-116773015D01*
X138804683Y-116773210D01*
X138666451Y-116773372D01*
X138525745Y-116773501D01*
X138383051Y-116773596D01*
X138238855Y-116773658D01*
X138093641Y-116773687D01*
X137947896Y-116773683D01*
X137802105Y-116773646D01*
X137656754Y-116773577D01*
X137512329Y-116773474D01*
X137369315Y-116773339D01*
X137228198Y-116773171D01*
X137089463Y-116772971D01*
X136953596Y-116772738D01*
X136821083Y-116772473D01*
X136692410Y-116772175D01*
X136568061Y-116771846D01*
X136448523Y-116771484D01*
X136334281Y-116771090D01*
X136225822Y-116770665D01*
X136123629Y-116770207D01*
X136028190Y-116769718D01*
X135939990Y-116769197D01*
X135859514Y-116768644D01*
X135787249Y-116768060D01*
X135723679Y-116767444D01*
X135669290Y-116766797D01*
X135624569Y-116766118D01*
X135590000Y-116765408D01*
X135566069Y-116764668D01*
X135553262Y-116763896D01*
X135551941Y-116763714D01*
X135466038Y-116742437D01*
X135384957Y-116710888D01*
X135309410Y-116669769D01*
X135240107Y-116619785D01*
X135177760Y-116561639D01*
X135123082Y-116496037D01*
X135076783Y-116423681D01*
X135039575Y-116345275D01*
X135012170Y-116261524D01*
X135002887Y-116220557D01*
X135001921Y-116215393D01*
X135001012Y-116209853D01*
X135000158Y-116203581D01*
X134999358Y-116196221D01*
X134998610Y-116187417D01*
X134997912Y-116176814D01*
X134997263Y-116164055D01*
X134996661Y-116148787D01*
X134996103Y-116130651D01*
X134995588Y-116109294D01*
X134995115Y-116084360D01*
X134994682Y-116055492D01*
X134994287Y-116022335D01*
X134993928Y-115984533D01*
X134993604Y-115941731D01*
X134993312Y-115893573D01*
X134993051Y-115839704D01*
X134992820Y-115779767D01*
X134992616Y-115713408D01*
X134992438Y-115640269D01*
X134992284Y-115559997D01*
X134992153Y-115472234D01*
X134992042Y-115376626D01*
X134991950Y-115272817D01*
X134991874Y-115160451D01*
X134991815Y-115039172D01*
X134991769Y-114908625D01*
X134991735Y-114768454D01*
X134991711Y-114618303D01*
X134991707Y-114575391D01*
X135296434Y-114575391D01*
X135296536Y-115350460D01*
X135296542Y-115464802D01*
X135296548Y-115568047D01*
X135296581Y-115660815D01*
X135296671Y-115743731D01*
X135296846Y-115817418D01*
X135297134Y-115882497D01*
X135297564Y-115939593D01*
X135298165Y-115989328D01*
X135298964Y-116032325D01*
X135299990Y-116069207D01*
X135301272Y-116100596D01*
X135302838Y-116127117D01*
X135304716Y-116149390D01*
X135306936Y-116168041D01*
X135309525Y-116183690D01*
X135312511Y-116196962D01*
X135315925Y-116208480D01*
X135319793Y-116218865D01*
X135324144Y-116228741D01*
X135329007Y-116238731D01*
X135334411Y-116249458D01*
X135337928Y-116256516D01*
X135369620Y-116308657D01*
X135409973Y-116355587D01*
X135457185Y-116395936D01*
X135509456Y-116428335D01*
X135564984Y-116451412D01*
X135607803Y-116461799D01*
X135616065Y-116462201D01*
X135635714Y-116462589D01*
X135666417Y-116462962D01*
X135707839Y-116463318D01*
X135759647Y-116463658D01*
X135821506Y-116463980D01*
X135893084Y-116464285D01*
X135974045Y-116464570D01*
X136064057Y-116464837D01*
X136162785Y-116465084D01*
X136269894Y-116465310D01*
X136385052Y-116465515D01*
X136507925Y-116465698D01*
X136638178Y-116465859D01*
X136775478Y-116465997D01*
X136919490Y-116466111D01*
X137069881Y-116466201D01*
X137226317Y-116466266D01*
X137388464Y-116466306D01*
X137555988Y-116466319D01*
X137728555Y-116466305D01*
X137905831Y-116466264D01*
X137954233Y-116466248D01*
X140269185Y-116465446D01*
X140317327Y-116449140D01*
X140378918Y-116422339D01*
X140433759Y-116386397D01*
X140481079Y-116342259D01*
X140520104Y-116290867D01*
X140550061Y-116233164D01*
X140570177Y-116170094D01*
X140576906Y-116132389D01*
X140577625Y-116120998D01*
X140578314Y-116098544D01*
X140578968Y-116065685D01*
X140579582Y-116023079D01*
X140580151Y-115971384D01*
X140580671Y-115911258D01*
X140581138Y-115843361D01*
X140581547Y-115768348D01*
X140581892Y-115686880D01*
X140582170Y-115599614D01*
X140582375Y-115507207D01*
X140582504Y-115410319D01*
X140582548Y-115332878D01*
X140582729Y-114575391D01*
X137939581Y-114575391D01*
X135296434Y-114575391D01*
X134991707Y-114575391D01*
X134991695Y-114457817D01*
X134991688Y-114317523D01*
X135296282Y-114317523D01*
X137939619Y-114317523D01*
X140582955Y-114317523D01*
X140581336Y-113014996D01*
X140581151Y-112869070D01*
X140580970Y-112734400D01*
X140580790Y-112610522D01*
X140580606Y-112496971D01*
X140580415Y-112393281D01*
X140580211Y-112298989D01*
X140579990Y-112213630D01*
X140579749Y-112136737D01*
X140579483Y-112067848D01*
X140579188Y-112006497D01*
X140578860Y-111952218D01*
X140578495Y-111904548D01*
X140578087Y-111863022D01*
X140577634Y-111827174D01*
X140577131Y-111796540D01*
X140576574Y-111770656D01*
X140575958Y-111749055D01*
X140575280Y-111731274D01*
X140574534Y-111716848D01*
X140573718Y-111705311D01*
X140572826Y-111696199D01*
X140571855Y-111689048D01*
X140570800Y-111683392D01*
X140569657Y-111678766D01*
X140569236Y-111677306D01*
X140544956Y-111614448D01*
X140511733Y-111557411D01*
X140470549Y-111507401D01*
X140422385Y-111465621D01*
X140371673Y-111434952D01*
X140364919Y-111431426D01*
X140359146Y-111428101D01*
X140354011Y-111424971D01*
X140349169Y-111422031D01*
X140344276Y-111419276D01*
X140338988Y-111416699D01*
X140332960Y-111414295D01*
X140325849Y-111412058D01*
X140317310Y-111409982D01*
X140306999Y-111408062D01*
X140294572Y-111406293D01*
X140279685Y-111404668D01*
X140261993Y-111403182D01*
X140241152Y-111401828D01*
X140216819Y-111400602D01*
X140188648Y-111399498D01*
X140156296Y-111398510D01*
X140119419Y-111397632D01*
X140077672Y-111396859D01*
X140030711Y-111396185D01*
X139978192Y-111395604D01*
X139919770Y-111395111D01*
X139855102Y-111394700D01*
X139783844Y-111394365D01*
X139705650Y-111394101D01*
X139620178Y-111393901D01*
X139527082Y-111393761D01*
X139426019Y-111393674D01*
X139316644Y-111393635D01*
X139198613Y-111393638D01*
X139071583Y-111393678D01*
X138935208Y-111393748D01*
X138789144Y-111393844D01*
X138633048Y-111393959D01*
X138466575Y-111394087D01*
X138289381Y-111394224D01*
X138101122Y-111394363D01*
X137920700Y-111394487D01*
X135604118Y-111395995D01*
X135557233Y-111412540D01*
X135494203Y-111440556D01*
X135438951Y-111477321D01*
X135391606Y-111522700D01*
X135352297Y-111576560D01*
X135321153Y-111638766D01*
X135310147Y-111668515D01*
X135308942Y-111672464D01*
X135307829Y-111677135D01*
X135306804Y-111682992D01*
X135305862Y-111690498D01*
X135304999Y-111700116D01*
X135304211Y-111712310D01*
X135303494Y-111727543D01*
X135302842Y-111746279D01*
X135302253Y-111768981D01*
X135301721Y-111796112D01*
X135301243Y-111828136D01*
X135300814Y-111865517D01*
X135300430Y-111908716D01*
X135300086Y-111958199D01*
X135299779Y-112014428D01*
X135299505Y-112077867D01*
X135299258Y-112148980D01*
X135299034Y-112228228D01*
X135298831Y-112316077D01*
X135298642Y-112412990D01*
X135298464Y-112519429D01*
X135298293Y-112635858D01*
X135298124Y-112762741D01*
X135297953Y-112900541D01*
X135297823Y-113009136D01*
X135296282Y-114317523D01*
X134991688Y-114317523D01*
X134991686Y-114286640D01*
X134991682Y-114104417D01*
X134991681Y-113931281D01*
X134991676Y-113736708D01*
X134991665Y-113553502D01*
X134991653Y-113381308D01*
X134991644Y-113219771D01*
X134991645Y-113068536D01*
X134991661Y-112927249D01*
X134991696Y-112795555D01*
X134991755Y-112673099D01*
X134991845Y-112559526D01*
X134991970Y-112454483D01*
X134992135Y-112357613D01*
X134992346Y-112268563D01*
X134992607Y-112186978D01*
X134992924Y-112112502D01*
X134993303Y-112044782D01*
X134993747Y-111983462D01*
X134994263Y-111928188D01*
X134994856Y-111878605D01*
X134995530Y-111834358D01*
X134996291Y-111795093D01*
X134997145Y-111760455D01*
X134998096Y-111730089D01*
X134999149Y-111703641D01*
X135000310Y-111680755D01*
X135001584Y-111661077D01*
X135002976Y-111644253D01*
X135004491Y-111629927D01*
X135006135Y-111617745D01*
X135007912Y-111607352D01*
X135009828Y-111598394D01*
X135011888Y-111590515D01*
X135014098Y-111583361D01*
X135016461Y-111576578D01*
X135018984Y-111569810D01*
X135021672Y-111562703D01*
X135024530Y-111554902D01*
X135026485Y-111549281D01*
X135060147Y-111467890D01*
X135103663Y-111392162D01*
X135156215Y-111322911D01*
X135216989Y-111260946D01*
X135285167Y-111207080D01*
X135359934Y-111162123D01*
X135440473Y-111126886D01*
X135457338Y-111121031D01*
X135465257Y-111118299D01*
X135472329Y-111115723D01*
X135478899Y-111113298D01*
X135485313Y-111111020D01*
X135491917Y-111108883D01*
X135499058Y-111106885D01*
X135507080Y-111105019D01*
X135516331Y-111103282D01*
X135527156Y-111101669D01*
X135539900Y-111100175D01*
X135554911Y-111098796D01*
X135572534Y-111097528D01*
X135593114Y-111096365D01*
X135616999Y-111095303D01*
X135644533Y-111094338D01*
X135676064Y-111093464D01*
X135711936Y-111092679D01*
X135752495Y-111091976D01*
X135798089Y-111091351D01*
X135849062Y-111090801D01*
X135905761Y-111090319D01*
X135968532Y-111089902D01*
X136037720Y-111089546D01*
X136113672Y-111089244D01*
X136196733Y-111088994D01*
X136287250Y-111088791D01*
X136385569Y-111088629D01*
X136492035Y-111088504D01*
X136606995Y-111088413D01*
X136730793Y-111088349D01*
X136863778Y-111088309D01*
X137006293Y-111088288D01*
X137158687Y-111088282D01*
X137321303Y-111088286D01*
G37*
G36*
X139618104Y-114940485D02*
G01*
X139631592Y-114940976D01*
X139728724Y-114949236D01*
X139817073Y-114965155D01*
X139896800Y-114988810D01*
X139968063Y-115020281D01*
X140031020Y-115059646D01*
X140085832Y-115106984D01*
X140132657Y-115162374D01*
X140158164Y-115201502D01*
X140178277Y-115241333D01*
X140196870Y-115288639D01*
X140212497Y-115339174D01*
X140223710Y-115388692D01*
X140225407Y-115398810D01*
X140228506Y-115427276D01*
X140230537Y-115463811D01*
X140231501Y-115505003D01*
X140231396Y-115547443D01*
X140230222Y-115587720D01*
X140227978Y-115622421D01*
X140225457Y-115643600D01*
X140207321Y-115723228D01*
X140179634Y-115796590D01*
X140142836Y-115863180D01*
X140097365Y-115922491D01*
X140043659Y-115974016D01*
X139982157Y-116017249D01*
X139913297Y-116051681D01*
X139854812Y-116072088D01*
X139777957Y-116089982D01*
X139692542Y-116101909D01*
X139600173Y-116107738D01*
X139502455Y-116107337D01*
X139453978Y-116104883D01*
X139418925Y-116102112D01*
X139382212Y-116098411D01*
X139348487Y-116094291D01*
X139325044Y-116090737D01*
X139301461Y-116086690D01*
X139282366Y-116083559D01*
X139270625Y-116081808D01*
X139268481Y-116081593D01*
X139267852Y-116075864D01*
X139267249Y-116059219D01*
X139266680Y-116032463D01*
X139266151Y-115996402D01*
X139265667Y-115951842D01*
X139265236Y-115899586D01*
X139264864Y-115840441D01*
X139264557Y-115775213D01*
X139264321Y-115704706D01*
X139264164Y-115629725D01*
X139264090Y-115551076D01*
X139264085Y-115525209D01*
X139264085Y-115520790D01*
X139264094Y-115431854D01*
X139264130Y-115349525D01*
X139264205Y-115277528D01*
X139264332Y-115215169D01*
X139264524Y-115161753D01*
X139264743Y-115124962D01*
X139475068Y-115124962D01*
X139475068Y-115520790D01*
X139475082Y-115598686D01*
X139475138Y-115665685D01*
X139475258Y-115722613D01*
X139475462Y-115770295D01*
X139475771Y-115809555D01*
X139476208Y-115841219D01*
X139476793Y-115866111D01*
X139477547Y-115885056D01*
X139478492Y-115898879D01*
X139479648Y-115908406D01*
X139481038Y-115914461D01*
X139482682Y-115917869D01*
X139484601Y-115919454D01*
X139485324Y-115919726D01*
X139496350Y-115921022D01*
X139516694Y-115921584D01*
X139543985Y-115921496D01*
X139575850Y-115920840D01*
X139609914Y-115919700D01*
X139643805Y-115918160D01*
X139675150Y-115916300D01*
X139701576Y-115914206D01*
X139720709Y-115911960D01*
X139724145Y-115911370D01*
X139776105Y-115896449D01*
X139826919Y-115872491D01*
X139873891Y-115841243D01*
X139914326Y-115804453D01*
X139941131Y-115770747D01*
X139964877Y-115731880D01*
X139982656Y-115694613D01*
X139995173Y-115656268D01*
X140003135Y-115614168D01*
X140007246Y-115565635D01*
X140008240Y-115516023D01*
X140006522Y-115460344D01*
X140000888Y-115412873D01*
X139990472Y-115370502D01*
X139974405Y-115330121D01*
X139951822Y-115288622D01*
X139939237Y-115268655D01*
X139921791Y-115244027D01*
X139904279Y-115225030D01*
X139882572Y-115207563D01*
X139866905Y-115196830D01*
X139836332Y-115177361D01*
X139809041Y-115162092D01*
X139782869Y-115150472D01*
X139755656Y-115141951D01*
X139725242Y-115135976D01*
X139689464Y-115131997D01*
X139646164Y-115129462D01*
X139596677Y-115127905D01*
X139475068Y-115124962D01*
X139264743Y-115124962D01*
X139264793Y-115116586D01*
X139265152Y-115078972D01*
X139265615Y-115048217D01*
X139266193Y-115023628D01*
X139266899Y-115004508D01*
X139267747Y-114990164D01*
X139268748Y-114979900D01*
X139269917Y-114973024D01*
X139271264Y-114968839D01*
X139272804Y-114966651D01*
X139274342Y-114965822D01*
X139299871Y-114960078D01*
X139334874Y-114954757D01*
X139377104Y-114950017D01*
X139424318Y-114946013D01*
X139474270Y-114942902D01*
X139524715Y-114940840D01*
X139573408Y-114939982D01*
X139618104Y-114940485D01*
G37*
G36*
X136015149Y-114941929D02*
G01*
X136043689Y-114943500D01*
X136098828Y-114948205D01*
X136145638Y-114954621D01*
X136187477Y-114963529D01*
X136227700Y-114975711D01*
X136269664Y-114991948D01*
X136290298Y-115000914D01*
X136318971Y-115014212D01*
X136340274Y-115025801D01*
X136357791Y-115038152D01*
X136375101Y-115053736D01*
X136392128Y-115071159D01*
X136422969Y-115106688D01*
X136445246Y-115140316D01*
X136460827Y-115175489D01*
X136471579Y-115215656D01*
X136472285Y-115219178D01*
X136480174Y-115279971D01*
X136480663Y-115341424D01*
X136474047Y-115400897D01*
X136460623Y-115455748D01*
X136440687Y-115503336D01*
X136440388Y-115503891D01*
X136409067Y-115549639D01*
X136367865Y-115589203D01*
X136316882Y-115622545D01*
X136256219Y-115649628D01*
X136185976Y-115670411D01*
X136106254Y-115684857D01*
X136017154Y-115692927D01*
X135943497Y-115694773D01*
X135853195Y-115694773D01*
X135853195Y-115896964D01*
X135853195Y-116099156D01*
X135747703Y-116099156D01*
X135642212Y-116099156D01*
X135642212Y-115533717D01*
X135642212Y-115513093D01*
X135853195Y-115513093D01*
X135919127Y-115513045D01*
X135952934Y-115512431D01*
X135989186Y-115510822D01*
X136022308Y-115508502D01*
X136036942Y-115507053D01*
X136068483Y-115502123D01*
X136103034Y-115494699D01*
X136133564Y-115486309D01*
X136135914Y-115485545D01*
X136163448Y-115475381D01*
X136184121Y-115464564D01*
X136202607Y-115450362D01*
X136213394Y-115440257D01*
X136232944Y-115418215D01*
X136246179Y-115395225D01*
X136254101Y-115368380D01*
X136257713Y-115334771D01*
X136258230Y-115310321D01*
X136253347Y-115264399D01*
X136238718Y-115224973D01*
X136214372Y-115192073D01*
X136180338Y-115165729D01*
X136136647Y-115145970D01*
X136083326Y-115132825D01*
X136080509Y-115132358D01*
X136061589Y-115130265D01*
X136034037Y-115128486D01*
X136000942Y-115127161D01*
X135965393Y-115126432D01*
X135948430Y-115126335D01*
X135853195Y-115126291D01*
X135853195Y-115319692D01*
X135853195Y-115513093D01*
X135642212Y-115513093D01*
X135642212Y-115319692D01*
X135642212Y-114968277D01*
X135655398Y-114965391D01*
X135703548Y-114956788D01*
X135760366Y-114949840D01*
X135822893Y-114944714D01*
X135888172Y-114941575D01*
X135953243Y-114940591D01*
X136015149Y-114941929D01*
G37*
G36*
X136813553Y-115028125D02*
G01*
X136840732Y-115175629D01*
X136872140Y-115332492D01*
X136907483Y-115497257D01*
X136914263Y-115527744D01*
X136930086Y-115597864D01*
X136943734Y-115656894D01*
X136955315Y-115705241D01*
X136964936Y-115743313D01*
X136972706Y-115771517D01*
X136978731Y-115790261D01*
X136983120Y-115799950D01*
X136985981Y-115800993D01*
X136986353Y-115800264D01*
X137000278Y-115763928D01*
X137016943Y-115717911D01*
X137035835Y-115663794D01*
X137056439Y-115603156D01*
X137078242Y-115537577D01*
X137100728Y-115468637D01*
X137123385Y-115397916D01*
X137145698Y-115326994D01*
X137167153Y-115257450D01*
X137187236Y-115190865D01*
X137205433Y-115128819D01*
X137209941Y-115113104D01*
X137219555Y-115079406D01*
X137311444Y-115079493D01*
X137403333Y-115079581D01*
X137438026Y-115195241D01*
X137446985Y-115224478D01*
X137458428Y-115260832D01*
X137471924Y-115303012D01*
X137487043Y-115349726D01*
X137503354Y-115399681D01*
X137520427Y-115451585D01*
X137537830Y-115504147D01*
X137555132Y-115556074D01*
X137571904Y-115606075D01*
X137587714Y-115652857D01*
X137602132Y-115695128D01*
X137614727Y-115731595D01*
X137625068Y-115760968D01*
X137632724Y-115781954D01*
X137637266Y-115793261D01*
X137637629Y-115794000D01*
X137640654Y-115798563D01*
X137643527Y-115798784D01*
X137646773Y-115793306D01*
X137650919Y-115780773D01*
X137656491Y-115759826D01*
X137664014Y-115729111D01*
X137666022Y-115720742D01*
X137680220Y-115659697D01*
X137695891Y-115589149D01*
X137712616Y-115511161D01*
X137729976Y-115427797D01*
X137747550Y-115341120D01*
X137764918Y-115253194D01*
X137781660Y-115166083D01*
X137797357Y-115081850D01*
X137807849Y-115023730D01*
X137812347Y-114999103D01*
X137816408Y-114978077D01*
X137819392Y-114963916D01*
X137820192Y-114960728D01*
X137822184Y-114957095D01*
X137826816Y-114954430D01*
X137835684Y-114952587D01*
X137850384Y-114951418D01*
X137872512Y-114950775D01*
X137903666Y-114950510D01*
X137931185Y-114950472D01*
X137970338Y-114950620D01*
X137999167Y-114951134D01*
X138019071Y-114952119D01*
X138031445Y-114953678D01*
X138037686Y-114955915D01*
X138039212Y-114958539D01*
X138038008Y-114967865D01*
X138034600Y-114987177D01*
X138029291Y-115015011D01*
X138022387Y-115049902D01*
X138014191Y-115090388D01*
X138005008Y-115135003D01*
X137995142Y-115182285D01*
X137984898Y-115230769D01*
X137974580Y-115278991D01*
X137964493Y-115325487D01*
X137954940Y-115368795D01*
X137946227Y-115407448D01*
X137942521Y-115423536D01*
X137904022Y-115582017D01*
X137862441Y-115738793D01*
X137816729Y-115897637D01*
X137765840Y-116062326D01*
X137762031Y-116074249D01*
X137755935Y-116093296D01*
X137652280Y-116093296D01*
X137548625Y-116093296D01*
X137500226Y-115959966D01*
X137475775Y-115891792D01*
X137450365Y-115819446D01*
X137424828Y-115745388D01*
X137399994Y-115672077D01*
X137376697Y-115601972D01*
X137355767Y-115537534D01*
X137338038Y-115481222D01*
X137335677Y-115473533D01*
X137326548Y-115444356D01*
X137318420Y-115419633D01*
X137311967Y-115401313D01*
X137307860Y-115391345D01*
X137306918Y-115390099D01*
X137304424Y-115395485D01*
X137298712Y-115410797D01*
X137290201Y-115434817D01*
X137279313Y-115466328D01*
X137266466Y-115504112D01*
X137252081Y-115546954D01*
X137236578Y-115593635D01*
X137234604Y-115599616D01*
X137216267Y-115654742D01*
X137196567Y-115713164D01*
X137176397Y-115772286D01*
X137156651Y-115829515D01*
X137138221Y-115882255D01*
X137122001Y-115927913D01*
X137114109Y-115949710D01*
X137062713Y-116090365D01*
X136959375Y-116091965D01*
X136856037Y-116093564D01*
X136835731Y-116030428D01*
X136795038Y-115900092D01*
X136757923Y-115772851D01*
X136723252Y-115644572D01*
X136689889Y-115511125D01*
X136670563Y-115429179D01*
X136661464Y-115389188D01*
X136651566Y-115344585D01*
X136641166Y-115296812D01*
X136630561Y-115247312D01*
X136620050Y-115197526D01*
X136609929Y-115148897D01*
X136600497Y-115102868D01*
X136592050Y-115060879D01*
X136584887Y-115024375D01*
X136579306Y-114994795D01*
X136575603Y-114973584D01*
X136574076Y-114962183D01*
X136574053Y-114961469D01*
X136574682Y-114957668D01*
X136577590Y-114954859D01*
X136584311Y-114952893D01*
X136596376Y-114951620D01*
X136615317Y-114950892D01*
X136642669Y-114950560D01*
X136679962Y-114950473D01*
X136686993Y-114950472D01*
X136799933Y-114950472D01*
X136813553Y-115028125D01*
G37*
G36*
X138594666Y-114942520D02*
G01*
X138652935Y-114946543D01*
X138689743Y-114950994D01*
X138739356Y-114961458D01*
X138792696Y-114978800D01*
X138851926Y-115003732D01*
X138856771Y-115005977D01*
X138885470Y-115020296D01*
X138907596Y-115034219D01*
X138927703Y-115051034D01*
X138948939Y-115072528D01*
X138978763Y-115107138D01*
X139000737Y-115140235D01*
X139016120Y-115174849D01*
X139026168Y-115214008D01*
X139032137Y-115260742D01*
X139033258Y-115275737D01*
X139032999Y-115325039D01*
X139026647Y-115377097D01*
X139015016Y-115427359D01*
X138998919Y-115471276D01*
X138997893Y-115473475D01*
X138976341Y-115507302D01*
X138944252Y-115540862D01*
X138902783Y-115573087D01*
X138863967Y-115597001D01*
X138813336Y-115625233D01*
X138851002Y-115674598D01*
X138883715Y-115719027D01*
X138919434Y-115770229D01*
X138955721Y-115824596D01*
X138990139Y-115878517D01*
X139004049Y-115901151D01*
X139017582Y-115924017D01*
X139032956Y-115950872D01*
X139049128Y-115979792D01*
X139065057Y-116008848D01*
X139079700Y-116036115D01*
X139092016Y-116059665D01*
X139100962Y-116077572D01*
X139105496Y-116087909D01*
X139105848Y-116089385D01*
X139100278Y-116090564D01*
X139084726Y-116091601D01*
X139060932Y-116092438D01*
X139030637Y-116093018D01*
X138995579Y-116093285D01*
X138986637Y-116093296D01*
X138867425Y-116093296D01*
X138850804Y-116062527D01*
X138826128Y-116018783D01*
X138796015Y-115968498D01*
X138762219Y-115914387D01*
X138726493Y-115859168D01*
X138690589Y-115805556D01*
X138656262Y-115756268D01*
X138629541Y-115719680D01*
X138588803Y-115665469D01*
X138504478Y-115665469D01*
X138420154Y-115665469D01*
X138420154Y-115879383D01*
X138420154Y-116093296D01*
X138314662Y-116093296D01*
X138209171Y-116093296D01*
X138209171Y-115530786D01*
X138209171Y-115489650D01*
X138420154Y-115489650D01*
X138504709Y-115489650D01*
X138539840Y-115489185D01*
X138575313Y-115487913D01*
X138607290Y-115486022D01*
X138631932Y-115483697D01*
X138634620Y-115483342D01*
X138688047Y-115472360D01*
X138731500Y-115455469D01*
X138765315Y-115432334D01*
X138789829Y-115402616D01*
X138805382Y-115365980D01*
X138812309Y-115322087D01*
X138812759Y-115305461D01*
X138808033Y-115260757D01*
X138793791Y-115222783D01*
X138769743Y-115191083D01*
X138735594Y-115165200D01*
X138716116Y-115154983D01*
X138691111Y-115144789D01*
X138664171Y-115137151D01*
X138633237Y-115131781D01*
X138596247Y-115128388D01*
X138551141Y-115126681D01*
X138512459Y-115126335D01*
X138420154Y-115126291D01*
X138420154Y-115307970D01*
X138420154Y-115489650D01*
X138209171Y-115489650D01*
X138209171Y-115307970D01*
X138209171Y-114968277D01*
X138222357Y-114965369D01*
X138272508Y-114956416D01*
X138331313Y-114949401D01*
X138395852Y-114944414D01*
X138463204Y-114941545D01*
X138530448Y-114940884D01*
X138594666Y-114942520D01*
G37*
G36*
X138696970Y-111687174D02*
G01*
X138741702Y-111702622D01*
X138782588Y-111727131D01*
X138817848Y-111760623D01*
X138820444Y-111763777D01*
X138825736Y-111770984D01*
X138837397Y-111787347D01*
X138855103Y-111812402D01*
X138878528Y-111845683D01*
X138907348Y-111886724D01*
X138941238Y-111935063D01*
X138979872Y-111990232D01*
X139022925Y-112051768D01*
X139070073Y-112119205D01*
X139120989Y-112192079D01*
X139175350Y-112269924D01*
X139232829Y-112352276D01*
X139293102Y-112438669D01*
X139355844Y-112528639D01*
X139420729Y-112621721D01*
X139487432Y-112717450D01*
X139527713Y-112775275D01*
X139609131Y-112892196D01*
X139684076Y-112999874D01*
X139752793Y-113098670D01*
X139815530Y-113188946D01*
X139872532Y-113271062D01*
X139924047Y-113345379D01*
X139970321Y-113412258D01*
X140011601Y-113472061D01*
X140048132Y-113525147D01*
X140080162Y-113571878D01*
X140107937Y-113612615D01*
X140131703Y-113647718D01*
X140151708Y-113677550D01*
X140168197Y-113702469D01*
X140181418Y-113722839D01*
X140191616Y-113739018D01*
X140199038Y-113751369D01*
X140203932Y-113760252D01*
X140206542Y-113766029D01*
X140207117Y-113769059D01*
X140206874Y-113769547D01*
X140200202Y-113774704D01*
X140185141Y-113785652D01*
X140162934Y-113801508D01*
X140134827Y-113821388D01*
X140102066Y-113844411D01*
X140065896Y-113869692D01*
X140050029Y-113880743D01*
X140007065Y-113910504D01*
X139972665Y-113933993D01*
X139945885Y-113951790D01*
X139925778Y-113964476D01*
X139911398Y-113972630D01*
X139901801Y-113976832D01*
X139896041Y-113977661D01*
X139893789Y-113976550D01*
X139889721Y-113971009D01*
X139879293Y-113956327D01*
X139862841Y-113932985D01*
X139840701Y-113901464D01*
X139813208Y-113862243D01*
X139780698Y-113815802D01*
X139743507Y-113762624D01*
X139701970Y-113703186D01*
X139656422Y-113637971D01*
X139607201Y-113567459D01*
X139554640Y-113492129D01*
X139499077Y-113412463D01*
X139440845Y-113328940D01*
X139380282Y-113242041D01*
X139317722Y-113152246D01*
X139270091Y-113083859D01*
X139206274Y-112992238D01*
X139144208Y-112903165D01*
X139084228Y-112817121D01*
X139026670Y-112734584D01*
X138971869Y-112656035D01*
X138920160Y-112581952D01*
X138871879Y-112512816D01*
X138827360Y-112449107D01*
X138786939Y-112391303D01*
X138750952Y-112339885D01*
X138719733Y-112295333D01*
X138693618Y-112258125D01*
X138672941Y-112228742D01*
X138658039Y-112207663D01*
X138649247Y-112195368D01*
X138646866Y-112192203D01*
X138644427Y-112193579D01*
X138638820Y-112199702D01*
X138629830Y-112210874D01*
X138617240Y-112227402D01*
X138600837Y-112249591D01*
X138580405Y-112277744D01*
X138555729Y-112312167D01*
X138526593Y-112353164D01*
X138492782Y-112401041D01*
X138454082Y-112456102D01*
X138410276Y-112518653D01*
X138361151Y-112588997D01*
X138306489Y-112667440D01*
X138246078Y-112754286D01*
X138179700Y-112849841D01*
X138107142Y-112954409D01*
X138028187Y-113068295D01*
X138017983Y-113083019D01*
X137953996Y-113175304D01*
X137891739Y-113264985D01*
X137831544Y-113351588D01*
X137773746Y-113434639D01*
X137718674Y-113513664D01*
X137666662Y-113588190D01*
X137618042Y-113657742D01*
X137573147Y-113721847D01*
X137532307Y-113780030D01*
X137495856Y-113831817D01*
X137464126Y-113876736D01*
X137437449Y-113914311D01*
X137416156Y-113944068D01*
X137400582Y-113965535D01*
X137391057Y-113978236D01*
X137387965Y-113981787D01*
X137381313Y-113978849D01*
X137366349Y-113969931D01*
X137344315Y-113955849D01*
X137316451Y-113937414D01*
X137283998Y-113915442D01*
X137248197Y-113890746D01*
X137233375Y-113880398D01*
X137196533Y-113854616D01*
X137162581Y-113830908D01*
X137132764Y-113810140D01*
X137108327Y-113793177D01*
X137090516Y-113780884D01*
X137080576Y-113774128D01*
X137079115Y-113773188D01*
X137080163Y-113769712D01*
X137085421Y-113760312D01*
X137095046Y-113744756D01*
X137109199Y-113722813D01*
X137128036Y-113694251D01*
X137151717Y-113658836D01*
X137180399Y-113616338D01*
X137214241Y-113566523D01*
X137253402Y-113509160D01*
X137298040Y-113444017D01*
X137348313Y-113370862D01*
X137404380Y-113289462D01*
X137466400Y-113199586D01*
X137534529Y-113101001D01*
X137608928Y-112993475D01*
X137689755Y-112876776D01*
X137763870Y-112769848D01*
X137831656Y-112672122D01*
X137897835Y-112576793D01*
X137962084Y-112484322D01*
X138024081Y-112395171D01*
X138083501Y-112309802D01*
X138140023Y-112228676D01*
X138193324Y-112152255D01*
X138243081Y-112081001D01*
X138288971Y-112015375D01*
X138330672Y-111955840D01*
X138367861Y-111902856D01*
X138400214Y-111856886D01*
X138427409Y-111818391D01*
X138449124Y-111787833D01*
X138465036Y-111765674D01*
X138474821Y-111752375D01*
X138477821Y-111748618D01*
X138515124Y-111717576D01*
X138557468Y-111695989D01*
X138603075Y-111683779D01*
X138650168Y-111680867D01*
X138696970Y-111687174D01*
G37*
G36*
X137211053Y-111658191D02*
G01*
X137225076Y-111665929D01*
X137245661Y-111678646D01*
X137271378Y-111695345D01*
X137300798Y-111715026D01*
X137332492Y-111736692D01*
X137365031Y-111759344D01*
X137396986Y-111781984D01*
X137426928Y-111803614D01*
X137453428Y-111823236D01*
X137475056Y-111839852D01*
X137490385Y-111852463D01*
X137497984Y-111860070D01*
X137498544Y-111861463D01*
X137495127Y-111866912D01*
X137485379Y-111881420D01*
X137469670Y-111904455D01*
X137448370Y-111935485D01*
X137421850Y-111973981D01*
X137390479Y-112019409D01*
X137354627Y-112071240D01*
X137314664Y-112128941D01*
X137270961Y-112191983D01*
X137223887Y-112259832D01*
X137173813Y-112331959D01*
X137121108Y-112407831D01*
X137066142Y-112486918D01*
X137009286Y-112568688D01*
X136950909Y-112652610D01*
X136891382Y-112738154D01*
X136831075Y-112824786D01*
X136770357Y-112911978D01*
X136709599Y-112999196D01*
X136649170Y-113085910D01*
X136589441Y-113171589D01*
X136530782Y-113255701D01*
X136473562Y-113337715D01*
X136418152Y-113417100D01*
X136364922Y-113493324D01*
X136314242Y-113565857D01*
X136266481Y-113634167D01*
X136222011Y-113697723D01*
X136181200Y-113755993D01*
X136144419Y-113808447D01*
X136112038Y-113854553D01*
X136084427Y-113893780D01*
X136061956Y-113925596D01*
X136044995Y-113949471D01*
X136033914Y-113964873D01*
X136029084Y-113971270D01*
X136028908Y-113971424D01*
X136023518Y-113968284D01*
X136009734Y-113959245D01*
X135988766Y-113945129D01*
X135961822Y-113926756D01*
X135930113Y-113904950D01*
X135894848Y-113880531D01*
X135882393Y-113871870D01*
X135846192Y-113846474D01*
X135813253Y-113822985D01*
X135784776Y-113802291D01*
X135761965Y-113785280D01*
X135746021Y-113772841D01*
X135738148Y-113765859D01*
X135737527Y-113764914D01*
X135740728Y-113759719D01*
X135750270Y-113745447D01*
X135765783Y-113722629D01*
X135786898Y-113691797D01*
X135813244Y-113653484D01*
X135844451Y-113608220D01*
X135880149Y-113556538D01*
X135919967Y-113498970D01*
X135963536Y-113436047D01*
X136010485Y-113368301D01*
X136060444Y-113296264D01*
X136113043Y-113220469D01*
X136167911Y-113141446D01*
X136224680Y-113059728D01*
X136282978Y-112975846D01*
X136342435Y-112890333D01*
X136402681Y-112803721D01*
X136463346Y-112716540D01*
X136524059Y-112629323D01*
X136584452Y-112542602D01*
X136644153Y-112456909D01*
X136702792Y-112372776D01*
X136759999Y-112290733D01*
X136815404Y-112211314D01*
X136868636Y-112135050D01*
X136919327Y-112062473D01*
X136967105Y-111994115D01*
X137011600Y-111930507D01*
X137052442Y-111872182D01*
X137089261Y-111819672D01*
X137121686Y-111773507D01*
X137149349Y-111734221D01*
X137171878Y-111702344D01*
X137188903Y-111678410D01*
X137200054Y-111662949D01*
X137204961Y-111656493D01*
X137205020Y-111656431D01*
X137211053Y-111658191D01*
G37*
D15*
%TO.C,D1*%
X125933000Y-85106000D02*
X125933000Y-87106000D01*
X125933000Y-85106000D02*
X129793000Y-85106000D01*
X125933000Y-87106000D02*
X129793000Y-87106000D01*
D18*
%TO.C,REF\u002A\u002A*%
X138935927Y-95918721D02*
X138954357Y-95944933D01*
X138965516Y-95973036D01*
X138967572Y-95985905D01*
X138952649Y-95992171D01*
X138920174Y-96004544D01*
X138905502Y-96009972D01*
X138854744Y-96040410D01*
X138829427Y-96084480D01*
X138830206Y-96140990D01*
X138831203Y-96145175D01*
X138845508Y-96175345D01*
X138873393Y-96197524D01*
X138918287Y-96212673D01*
X138983615Y-96221750D01*
X139072804Y-96225714D01*
X139120261Y-96226085D01*
X139195071Y-96226270D01*
X139246069Y-96227478D01*
X139278471Y-96230691D01*
X139297495Y-96236891D01*
X139308356Y-96247060D01*
X139316272Y-96262181D01*
X139316670Y-96263054D01*
X139328981Y-96292172D01*
X139333514Y-96306597D01*
X139319809Y-96308814D01*
X139281925Y-96310711D01*
X139224715Y-96312153D01*
X139153027Y-96313002D01*
X139100565Y-96313171D01*
X138999047Y-96312308D01*
X138922032Y-96308930D01*
X138865023Y-96301858D01*
X138823526Y-96289912D01*
X138793043Y-96271910D01*
X138769080Y-96246673D01*
X138752355Y-96221753D01*
X138730097Y-96161829D01*
X138725076Y-96092089D01*
X138737752Y-96026400D01*
X138745334Y-96009052D01*
X138778128Y-95967644D01*
X138825547Y-95932235D01*
X138876151Y-95910336D01*
X138901098Y-95906771D01*
X138935927Y-95918721D01*
G36*
X138935927Y-95918721D02*
G01*
X138954357Y-95944933D01*
X138965516Y-95973036D01*
X138967572Y-95985905D01*
X138952649Y-95992171D01*
X138920174Y-96004544D01*
X138905502Y-96009972D01*
X138854744Y-96040410D01*
X138829427Y-96084480D01*
X138830206Y-96140990D01*
X138831203Y-96145175D01*
X138845508Y-96175345D01*
X138873393Y-96197524D01*
X138918287Y-96212673D01*
X138983615Y-96221750D01*
X139072804Y-96225714D01*
X139120261Y-96226085D01*
X139195071Y-96226270D01*
X139246069Y-96227478D01*
X139278471Y-96230691D01*
X139297495Y-96236891D01*
X139308356Y-96247060D01*
X139316272Y-96262181D01*
X139316670Y-96263054D01*
X139328981Y-96292172D01*
X139333514Y-96306597D01*
X139319809Y-96308814D01*
X139281925Y-96310711D01*
X139224715Y-96312153D01*
X139153027Y-96313002D01*
X139100565Y-96313171D01*
X138999047Y-96312308D01*
X138922032Y-96308930D01*
X138865023Y-96301858D01*
X138823526Y-96289912D01*
X138793043Y-96271910D01*
X138769080Y-96246673D01*
X138752355Y-96221753D01*
X138730097Y-96161829D01*
X138725076Y-96092089D01*
X138737752Y-96026400D01*
X138745334Y-96009052D01*
X138778128Y-95967644D01*
X138825547Y-95932235D01*
X138876151Y-95910336D01*
X138901098Y-95906771D01*
X138935927Y-95918721D01*
G37*
X139319044Y-99887314D02*
X139346697Y-99949001D01*
X139106670Y-99956257D01*
X139017028Y-99959256D01*
X138951962Y-99962402D01*
X138907026Y-99966299D01*
X138877770Y-99971552D01*
X138859748Y-99978768D01*
X138848511Y-99988550D01*
X138846079Y-99991688D01*
X138827083Y-100039239D01*
X138834600Y-100087303D01*
X138854543Y-100115914D01*
X138868675Y-100127553D01*
X138887220Y-100135609D01*
X138915334Y-100140729D01*
X138958173Y-100143560D01*
X139020895Y-100144744D01*
X139086261Y-100144943D01*
X139168268Y-100144982D01*
X139226316Y-100146386D01*
X139265465Y-100151086D01*
X139290780Y-100161013D01*
X139307323Y-100178097D01*
X139320156Y-100204268D01*
X139333491Y-100239225D01*
X139348007Y-100277404D01*
X139090389Y-100272859D01*
X138997519Y-100271029D01*
X138928890Y-100268888D01*
X138879711Y-100265818D01*
X138845198Y-100261206D01*
X138820562Y-100254432D01*
X138801016Y-100244881D01*
X138783770Y-100233366D01*
X138728680Y-100177810D01*
X138696822Y-100110020D01*
X138689191Y-100036287D01*
X138706780Y-99962907D01*
X138733723Y-99916328D01*
X138760466Y-99883942D01*
X138788484Y-99860258D01*
X138822748Y-99843941D01*
X138868227Y-99833661D01*
X138929892Y-99828086D01*
X139012711Y-99825884D01*
X139072246Y-99825629D01*
X139291391Y-99825629D01*
X139319044Y-99887314D01*
G36*
X139319044Y-99887314D02*
G01*
X139346697Y-99949001D01*
X139106670Y-99956257D01*
X139017028Y-99959256D01*
X138951962Y-99962402D01*
X138907026Y-99966299D01*
X138877770Y-99971552D01*
X138859748Y-99978768D01*
X138848511Y-99988550D01*
X138846079Y-99991688D01*
X138827083Y-100039239D01*
X138834600Y-100087303D01*
X138854543Y-100115914D01*
X138868675Y-100127553D01*
X138887220Y-100135609D01*
X138915334Y-100140729D01*
X138958173Y-100143560D01*
X139020895Y-100144744D01*
X139086261Y-100144943D01*
X139168268Y-100144982D01*
X139226316Y-100146386D01*
X139265465Y-100151086D01*
X139290780Y-100161013D01*
X139307323Y-100178097D01*
X139320156Y-100204268D01*
X139333491Y-100239225D01*
X139348007Y-100277404D01*
X139090389Y-100272859D01*
X138997519Y-100271029D01*
X138928890Y-100268888D01*
X138879711Y-100265818D01*
X138845198Y-100261206D01*
X138820562Y-100254432D01*
X138801016Y-100244881D01*
X138783770Y-100233366D01*
X138728680Y-100177810D01*
X138696822Y-100110020D01*
X138689191Y-100036287D01*
X138706780Y-99962907D01*
X138733723Y-99916328D01*
X138760466Y-99883942D01*
X138788484Y-99860258D01*
X138822748Y-99843941D01*
X138868227Y-99833661D01*
X138929892Y-99828086D01*
X139012711Y-99825884D01*
X139072246Y-99825629D01*
X139291391Y-99825629D01*
X139319044Y-99887314D01*
G37*
X138922186Y-97986534D02*
X138949217Y-98010438D01*
X138953813Y-98019284D01*
X138968144Y-98057469D01*
X138964472Y-98076972D01*
X138940407Y-98083579D01*
X138927114Y-98083914D01*
X138878210Y-98096008D01*
X138843999Y-98127529D01*
X138827476Y-98171341D01*
X138831634Y-98220305D01*
X138853227Y-98260106D01*
X138865544Y-98273550D01*
X138880487Y-98283079D01*
X138903075Y-98289515D01*
X138938328Y-98293683D01*
X138991266Y-98296403D01*
X139066907Y-98298498D01*
X139090857Y-98299040D01*
X139172790Y-98301019D01*
X139230455Y-98303270D01*
X139268608Y-98306643D01*
X139292004Y-98311994D01*
X139305398Y-98320176D01*
X139313545Y-98332041D01*
X139317144Y-98339638D01*
X139329452Y-98371898D01*
X139333514Y-98390889D01*
X139319948Y-98397164D01*
X139278934Y-98400994D01*
X139209999Y-98402400D01*
X139112669Y-98401402D01*
X139097657Y-98401091D01*
X139008859Y-98398899D01*
X138944019Y-98396306D01*
X138898067Y-98392618D01*
X138865935Y-98387136D01*
X138842553Y-98379165D01*
X138822852Y-98368007D01*
X138814410Y-98362170D01*
X138777057Y-98328704D01*
X138748003Y-98291273D01*
X138745467Y-98286691D01*
X138725443Y-98219574D01*
X138728755Y-98149074D01*
X138753084Y-98083142D01*
X138796117Y-98029727D01*
X138826409Y-98008836D01*
X138881994Y-97986061D01*
X138922186Y-97986534D01*
G36*
X138922186Y-97986534D02*
G01*
X138949217Y-98010438D01*
X138953813Y-98019284D01*
X138968144Y-98057469D01*
X138964472Y-98076972D01*
X138940407Y-98083579D01*
X138927114Y-98083914D01*
X138878210Y-98096008D01*
X138843999Y-98127529D01*
X138827476Y-98171341D01*
X138831634Y-98220305D01*
X138853227Y-98260106D01*
X138865544Y-98273550D01*
X138880487Y-98283079D01*
X138903075Y-98289515D01*
X138938328Y-98293683D01*
X138991266Y-98296403D01*
X139066907Y-98298498D01*
X139090857Y-98299040D01*
X139172790Y-98301019D01*
X139230455Y-98303270D01*
X139268608Y-98306643D01*
X139292004Y-98311994D01*
X139305398Y-98320176D01*
X139313545Y-98332041D01*
X139317144Y-98339638D01*
X139329452Y-98371898D01*
X139333514Y-98390889D01*
X139319948Y-98397164D01*
X139278934Y-98400994D01*
X139209999Y-98402400D01*
X139112669Y-98401402D01*
X139097657Y-98401091D01*
X139008859Y-98398899D01*
X138944019Y-98396306D01*
X138898067Y-98392618D01*
X138865935Y-98387136D01*
X138842553Y-98379165D01*
X138822852Y-98368007D01*
X138814410Y-98362170D01*
X138777057Y-98328704D01*
X138748003Y-98291273D01*
X138745467Y-98286691D01*
X138725443Y-98219574D01*
X138728755Y-98149074D01*
X138753084Y-98083142D01*
X138796117Y-98029727D01*
X138826409Y-98008836D01*
X138881994Y-97986061D01*
X138922186Y-97986534D01*
G37*
X139317580Y-99029509D02*
X139328420Y-99061973D01*
X139333468Y-99079785D01*
X139333514Y-99080309D01*
X139319828Y-99082063D01*
X139282076Y-99083556D01*
X139225224Y-99084674D01*
X139154234Y-99085304D01*
X139111073Y-99085400D01*
X139025973Y-99085602D01*
X138964981Y-99086641D01*
X138923177Y-99089169D01*
X138895642Y-99093836D01*
X138877456Y-99101293D01*
X138863698Y-99112189D01*
X138857073Y-99118994D01*
X138830375Y-99165728D01*
X138828375Y-99216728D01*
X138850955Y-99262999D01*
X138859107Y-99271556D01*
X138874436Y-99284107D01*
X138892618Y-99292812D01*
X138918909Y-99298369D01*
X138958562Y-99301475D01*
X139016832Y-99302824D01*
X139097173Y-99303114D01*
X139301646Y-99303114D01*
X139317581Y-99348823D01*
X139328420Y-99381287D01*
X139333469Y-99399099D01*
X139333514Y-99399623D01*
X139319623Y-99400963D01*
X139280439Y-99402172D01*
X139219700Y-99403200D01*
X139141141Y-99403998D01*
X139048498Y-99404519D01*
X138945509Y-99404714D01*
X138548342Y-99404714D01*
X138528444Y-99357543D01*
X138508547Y-99310371D01*
X138630289Y-99303114D01*
X138689612Y-99298861D01*
X138724572Y-99293975D01*
X138739820Y-99287205D01*
X138740015Y-99277299D01*
X138738195Y-99274086D01*
X138725015Y-99231356D01*
X138725784Y-99175773D01*
X138739333Y-99119263D01*
X138756861Y-99083918D01*
X138784860Y-99047679D01*
X138816549Y-99021187D01*
X138856813Y-99003001D01*
X138910543Y-98991678D01*
X138982626Y-98985778D01*
X139077951Y-98983857D01*
X139096237Y-98983822D01*
X139301646Y-98983800D01*
X139317580Y-99029509D01*
G36*
X139317580Y-99029509D02*
G01*
X139328420Y-99061973D01*
X139333468Y-99079785D01*
X139333514Y-99080309D01*
X139319828Y-99082063D01*
X139282076Y-99083556D01*
X139225224Y-99084674D01*
X139154234Y-99085304D01*
X139111073Y-99085400D01*
X139025973Y-99085602D01*
X138964981Y-99086641D01*
X138923177Y-99089169D01*
X138895642Y-99093836D01*
X138877456Y-99101293D01*
X138863698Y-99112189D01*
X138857073Y-99118994D01*
X138830375Y-99165728D01*
X138828375Y-99216728D01*
X138850955Y-99262999D01*
X138859107Y-99271556D01*
X138874436Y-99284107D01*
X138892618Y-99292812D01*
X138918909Y-99298369D01*
X138958562Y-99301475D01*
X139016832Y-99302824D01*
X139097173Y-99303114D01*
X139301646Y-99303114D01*
X139317581Y-99348823D01*
X139328420Y-99381287D01*
X139333469Y-99399099D01*
X139333514Y-99399623D01*
X139319623Y-99400963D01*
X139280439Y-99402172D01*
X139219700Y-99403200D01*
X139141141Y-99403998D01*
X139048498Y-99404519D01*
X138945509Y-99404714D01*
X138548342Y-99404714D01*
X138528444Y-99357543D01*
X138508547Y-99310371D01*
X138630289Y-99303114D01*
X138689612Y-99298861D01*
X138724572Y-99293975D01*
X138739820Y-99287205D01*
X138740015Y-99277299D01*
X138738195Y-99274086D01*
X138725015Y-99231356D01*
X138725784Y-99175773D01*
X138739333Y-99119263D01*
X138756861Y-99083918D01*
X138784860Y-99047679D01*
X138816549Y-99021187D01*
X138856813Y-99003001D01*
X138910543Y-98991678D01*
X138982626Y-98985778D01*
X139077951Y-98983857D01*
X139096237Y-98983822D01*
X139301646Y-98983800D01*
X139317580Y-99029509D01*
G37*
X139290127Y-96939674D02*
X139318429Y-96971325D01*
X139329893Y-96999110D01*
X139329168Y-97037085D01*
X139327321Y-97052159D01*
X139321948Y-97099274D01*
X139318870Y-97138244D01*
X139318585Y-97147743D01*
X139320445Y-97179767D01*
X139325114Y-97225568D01*
X139327321Y-97243326D01*
X139330735Y-97286943D01*
X139323320Y-97316255D01*
X139300427Y-97345320D01*
X139290127Y-97355812D01*
X139244196Y-97401743D01*
X138757602Y-97401743D01*
X138740758Y-97364773D01*
X138728282Y-97332941D01*
X138723913Y-97314317D01*
X138737718Y-97309542D01*
X138776286Y-97305080D01*
X138835356Y-97301225D01*
X138910662Y-97298278D01*
X138974286Y-97296857D01*
X139224657Y-97292886D01*
X139229556Y-97258241D01*
X139226130Y-97226732D01*
X139215041Y-97211292D01*
X139194308Y-97206977D01*
X139150145Y-97203292D01*
X139088146Y-97200531D01*
X139013909Y-97198988D01*
X138975706Y-97198765D01*
X138755783Y-97198543D01*
X138739849Y-97152834D01*
X138729015Y-97120482D01*
X138723962Y-97102885D01*
X138723914Y-97102377D01*
X138737648Y-97100612D01*
X138775730Y-97098671D01*
X138833482Y-97096718D01*
X138906227Y-97094916D01*
X138974286Y-97093657D01*
X139224657Y-97089686D01*
X139224657Y-97002600D01*
X138996240Y-96998604D01*
X138767823Y-96994608D01*
X138745868Y-96952153D01*
X138730794Y-96920808D01*
X138723951Y-96902256D01*
X138723914Y-96901721D01*
X138737663Y-96899167D01*
X138775850Y-96896952D01*
X138833886Y-96895216D01*
X138907180Y-96894101D01*
X138984055Y-96893743D01*
X139244196Y-96893743D01*
X139290127Y-96939674D01*
G36*
X139290127Y-96939674D02*
G01*
X139318429Y-96971325D01*
X139329893Y-96999110D01*
X139329168Y-97037085D01*
X139327321Y-97052159D01*
X139321948Y-97099274D01*
X139318870Y-97138244D01*
X139318585Y-97147743D01*
X139320445Y-97179767D01*
X139325114Y-97225568D01*
X139327321Y-97243326D01*
X139330735Y-97286943D01*
X139323320Y-97316255D01*
X139300427Y-97345320D01*
X139290127Y-97355812D01*
X139244196Y-97401743D01*
X138757602Y-97401743D01*
X138740758Y-97364773D01*
X138728282Y-97332941D01*
X138723913Y-97314317D01*
X138737718Y-97309542D01*
X138776286Y-97305080D01*
X138835356Y-97301225D01*
X138910662Y-97298278D01*
X138974286Y-97296857D01*
X139224657Y-97292886D01*
X139229556Y-97258241D01*
X139226130Y-97226732D01*
X139215041Y-97211292D01*
X139194308Y-97206977D01*
X139150145Y-97203292D01*
X139088146Y-97200531D01*
X139013909Y-97198988D01*
X138975706Y-97198765D01*
X138755783Y-97198543D01*
X138739849Y-97152834D01*
X138729015Y-97120482D01*
X138723962Y-97102885D01*
X138723914Y-97102377D01*
X138737648Y-97100612D01*
X138775730Y-97098671D01*
X138833482Y-97096718D01*
X138906227Y-97094916D01*
X138974286Y-97093657D01*
X139224657Y-97089686D01*
X139224657Y-97002600D01*
X138996240Y-96998604D01*
X138767823Y-96994608D01*
X138745868Y-96952153D01*
X138730794Y-96920808D01*
X138723951Y-96902256D01*
X138723914Y-96901721D01*
X138737663Y-96899167D01*
X138775850Y-96896952D01*
X138833886Y-96895216D01*
X138907180Y-96894101D01*
X138984055Y-96893743D01*
X139244196Y-96893743D01*
X139290127Y-96939674D01*
G37*
X139108552Y-101485573D02*
X139173341Y-101496730D01*
X139219873Y-101513286D01*
X139227887Y-101518374D01*
X139287707Y-101578645D01*
X139323535Y-101650232D01*
X139334019Y-101727908D01*
X139317810Y-101806452D01*
X139308092Y-101828311D01*
X139278143Y-101870879D01*
X139238433Y-101908237D01*
X139233397Y-101911768D01*
X139209124Y-101926119D01*
X139183178Y-101935606D01*
X139149022Y-101941210D01*
X139100119Y-101943914D01*
X139029935Y-101944701D01*
X139014201Y-101944714D01*
X139009192Y-101944678D01*
X138939413Y-101944174D01*
X138887159Y-101941904D01*
X138850949Y-101936932D01*
X138824299Y-101928287D01*
X138800722Y-101914995D01*
X138796338Y-101912057D01*
X138737249Y-101862687D01*
X138702947Y-101808891D01*
X138689331Y-101743399D01*
X138688666Y-101721158D01*
X138689426Y-101716008D01*
X138825514Y-101716008D01*
X138831152Y-101751636D01*
X138850686Y-101776006D01*
X138888041Y-101790907D01*
X138947150Y-101798125D01*
X139009192Y-101799571D01*
X139075430Y-101798727D01*
X139119386Y-101795404D01*
X139147779Y-101788417D01*
X139167325Y-101776584D01*
X139173858Y-101770543D01*
X139198680Y-101735814D01*
X139197548Y-101702097D01*
X139176016Y-101668005D01*
X139153029Y-101647670D01*
X139119477Y-101635629D01*
X139066569Y-101628866D01*
X139060399Y-101628402D01*
X138964513Y-101627248D01*
X138893299Y-101639312D01*
X138847194Y-101664430D01*
X138826636Y-101702440D01*
X138825514Y-101716008D01*
X138689426Y-101716008D01*
X138700962Y-101637885D01*
X138736733Y-101569855D01*
X138794301Y-101519649D01*
X138831312Y-101501815D01*
X138886882Y-101487937D01*
X138957096Y-101480834D01*
X139033727Y-101480160D01*
X139108552Y-101485573D01*
G36*
X139108552Y-101485573D02*
G01*
X139173341Y-101496730D01*
X139219873Y-101513286D01*
X139227887Y-101518374D01*
X139287707Y-101578645D01*
X139323535Y-101650232D01*
X139334019Y-101727908D01*
X139317810Y-101806452D01*
X139308092Y-101828311D01*
X139278143Y-101870879D01*
X139238433Y-101908237D01*
X139233397Y-101911768D01*
X139209124Y-101926119D01*
X139183178Y-101935606D01*
X139149022Y-101941210D01*
X139100119Y-101943914D01*
X139029935Y-101944701D01*
X139014201Y-101944714D01*
X139009192Y-101944678D01*
X138939413Y-101944174D01*
X138887159Y-101941904D01*
X138850949Y-101936932D01*
X138824299Y-101928287D01*
X138800722Y-101914995D01*
X138796338Y-101912057D01*
X138737249Y-101862687D01*
X138702947Y-101808891D01*
X138689331Y-101743399D01*
X138688666Y-101721158D01*
X138689426Y-101716008D01*
X138825514Y-101716008D01*
X138831152Y-101751636D01*
X138850686Y-101776006D01*
X138888041Y-101790907D01*
X138947150Y-101798125D01*
X139009192Y-101799571D01*
X139075430Y-101798727D01*
X139119386Y-101795404D01*
X139147779Y-101788417D01*
X139167325Y-101776584D01*
X139173858Y-101770543D01*
X139198680Y-101735814D01*
X139197548Y-101702097D01*
X139176016Y-101668005D01*
X139153029Y-101647670D01*
X139119477Y-101635629D01*
X139066569Y-101628866D01*
X139060399Y-101628402D01*
X138964513Y-101627248D01*
X138893299Y-101639312D01*
X138847194Y-101664430D01*
X138826636Y-101702440D01*
X138825514Y-101716008D01*
X138689426Y-101716008D01*
X138700962Y-101637885D01*
X138736733Y-101569855D01*
X138794301Y-101519649D01*
X138831312Y-101501815D01*
X138886882Y-101487937D01*
X138957096Y-101480834D01*
X139033727Y-101480160D01*
X139108552Y-101485573D01*
G37*
X139179283Y-95417128D02*
X139214969Y-95432177D01*
X139255943Y-95463720D01*
X139261267Y-95468408D01*
X139297720Y-95503494D01*
X139317283Y-95533653D01*
X139326283Y-95571384D01*
X139329230Y-95602665D01*
X139329965Y-95658615D01*
X139320660Y-95698445D01*
X139306846Y-95723292D01*
X139276467Y-95762344D01*
X139243613Y-95789375D01*
X139202294Y-95806483D01*
X139146521Y-95815762D01*
X139070305Y-95819307D01*
X139031622Y-95819590D01*
X138985247Y-95818628D01*
X138941249Y-95817715D01*
X138874384Y-95810804D01*
X138825695Y-95797116D01*
X138789849Y-95774904D01*
X138761513Y-95742426D01*
X138752355Y-95728267D01*
X138728507Y-95663947D01*
X138727135Y-95599590D01*
X138825364Y-95599590D01*
X138829122Y-95648678D01*
X138856884Y-95689773D01*
X138906153Y-95718242D01*
X138945257Y-95727369D01*
X138985247Y-95730993D01*
X139010126Y-95729977D01*
X139014200Y-95727444D01*
X139008665Y-95710726D01*
X138994017Y-95674751D01*
X138973191Y-95626669D01*
X138968715Y-95616614D01*
X138937814Y-95555848D01*
X138910657Y-95522368D01*
X138885220Y-95515010D01*
X138859481Y-95532609D01*
X138848109Y-95547143D01*
X138825364Y-95599590D01*
X138727135Y-95599590D01*
X138727006Y-95593527D01*
X138745966Y-95525406D01*
X138783497Y-95467979D01*
X138817096Y-95440281D01*
X138878064Y-95418338D01*
X138926308Y-95416595D01*
X138990816Y-95420543D01*
X139055934Y-95569313D01*
X139089202Y-95641650D01*
X139115964Y-95688916D01*
X139139144Y-95713493D01*
X139161667Y-95717763D01*
X139186455Y-95704111D01*
X139202886Y-95689057D01*
X139229235Y-95645254D01*
X139231081Y-95597611D01*
X139210546Y-95553855D01*
X139169751Y-95521711D01*
X139155347Y-95515961D01*
X139110357Y-95488424D01*
X139091182Y-95456742D01*
X139074778Y-95413286D01*
X139136966Y-95413286D01*
X139179283Y-95417128D01*
G36*
X139179283Y-95417128D02*
G01*
X139214969Y-95432177D01*
X139255943Y-95463720D01*
X139261267Y-95468408D01*
X139297720Y-95503494D01*
X139317283Y-95533653D01*
X139326283Y-95571384D01*
X139329230Y-95602665D01*
X139329965Y-95658615D01*
X139320660Y-95698445D01*
X139306846Y-95723292D01*
X139276467Y-95762344D01*
X139243613Y-95789375D01*
X139202294Y-95806483D01*
X139146521Y-95815762D01*
X139070305Y-95819307D01*
X139031622Y-95819590D01*
X138985247Y-95818628D01*
X138941249Y-95817715D01*
X138874384Y-95810804D01*
X138825695Y-95797116D01*
X138789849Y-95774904D01*
X138761513Y-95742426D01*
X138752355Y-95728267D01*
X138728507Y-95663947D01*
X138727135Y-95599590D01*
X138825364Y-95599590D01*
X138829122Y-95648678D01*
X138856884Y-95689773D01*
X138906153Y-95718242D01*
X138945257Y-95727369D01*
X138985247Y-95730993D01*
X139010126Y-95729977D01*
X139014200Y-95727444D01*
X139008665Y-95710726D01*
X138994017Y-95674751D01*
X138973191Y-95626669D01*
X138968715Y-95616614D01*
X138937814Y-95555848D01*
X138910657Y-95522368D01*
X138885220Y-95515010D01*
X138859481Y-95532609D01*
X138848109Y-95547143D01*
X138825364Y-95599590D01*
X138727135Y-95599590D01*
X138727006Y-95593527D01*
X138745966Y-95525406D01*
X138783497Y-95467979D01*
X138817096Y-95440281D01*
X138878064Y-95418338D01*
X138926308Y-95416595D01*
X138990816Y-95420543D01*
X139055934Y-95569313D01*
X139089202Y-95641650D01*
X139115964Y-95688916D01*
X139139144Y-95713493D01*
X139161667Y-95717763D01*
X139186455Y-95704111D01*
X139202886Y-95689057D01*
X139229235Y-95645254D01*
X139231081Y-95597611D01*
X139210546Y-95553855D01*
X139169751Y-95521711D01*
X139155347Y-95515961D01*
X139110357Y-95488424D01*
X139091182Y-95456742D01*
X139074778Y-95413286D01*
X139136966Y-95413286D01*
X139179283Y-95417128D01*
G37*
X138844358Y-97488883D02*
X138952837Y-97489067D01*
X139036287Y-97489781D01*
X139098703Y-97491325D01*
X139144085Y-97493999D01*
X139176429Y-97498106D01*
X139199733Y-97503945D01*
X139217995Y-97511818D01*
X139228418Y-97517779D01*
X139284945Y-97567145D01*
X139320377Y-97629736D01*
X139333090Y-97698987D01*
X139321463Y-97768332D01*
X139300568Y-97809625D01*
X139264422Y-97852975D01*
X139220276Y-97882519D01*
X139162462Y-97900345D01*
X139085313Y-97908537D01*
X139028714Y-97909698D01*
X139024647Y-97909542D01*
X138937568Y-97906190D01*
X138869086Y-97894274D01*
X138817600Y-97871864D01*
X138777443Y-97836876D01*
X138756861Y-97809625D01*
X138734625Y-97760093D01*
X138726837Y-97716776D01*
X138827843Y-97716776D01*
X138849159Y-97765204D01*
X138857073Y-97774550D01*
X138874647Y-97790460D01*
X138895587Y-97800390D01*
X138926782Y-97805722D01*
X138975122Y-97807837D01*
X139024647Y-97808143D01*
X139089550Y-97807524D01*
X139132514Y-97804686D01*
X139160622Y-97798160D01*
X139180953Y-97786477D01*
X139196288Y-97772517D01*
X139225890Y-97725636D01*
X139228419Y-97675299D01*
X139203705Y-97627724D01*
X139200356Y-97624021D01*
X139182935Y-97608217D01*
X139162209Y-97598307D01*
X139131362Y-97592942D01*
X139083577Y-97590773D01*
X139030748Y-97590429D01*
X138964381Y-97591173D01*
X138920106Y-97594252D01*
X138891009Y-97600939D01*
X138870173Y-97612504D01*
X138859107Y-97621987D01*
X138831198Y-97666040D01*
X138827843Y-97716776D01*
X138726837Y-97716776D01*
X138724304Y-97702684D01*
X138727067Y-97649317D01*
X138738212Y-97619457D01*
X138741383Y-97607739D01*
X138729557Y-97599964D01*
X138697866Y-97594535D01*
X138649593Y-97590429D01*
X138595829Y-97585933D01*
X138563482Y-97579687D01*
X138544985Y-97568323D01*
X138532770Y-97548472D01*
X138527363Y-97536000D01*
X138507601Y-97488830D01*
X138844358Y-97488883D01*
G36*
X138844358Y-97488883D02*
G01*
X138952837Y-97489067D01*
X139036287Y-97489781D01*
X139098703Y-97491325D01*
X139144085Y-97493999D01*
X139176429Y-97498106D01*
X139199733Y-97503945D01*
X139217995Y-97511818D01*
X139228418Y-97517779D01*
X139284945Y-97567145D01*
X139320377Y-97629736D01*
X139333090Y-97698987D01*
X139321463Y-97768332D01*
X139300568Y-97809625D01*
X139264422Y-97852975D01*
X139220276Y-97882519D01*
X139162462Y-97900345D01*
X139085313Y-97908537D01*
X139028714Y-97909698D01*
X139024647Y-97909542D01*
X138937568Y-97906190D01*
X138869086Y-97894274D01*
X138817600Y-97871864D01*
X138777443Y-97836876D01*
X138756861Y-97809625D01*
X138734625Y-97760093D01*
X138726837Y-97716776D01*
X138827843Y-97716776D01*
X138849159Y-97765204D01*
X138857073Y-97774550D01*
X138874647Y-97790460D01*
X138895587Y-97800390D01*
X138926782Y-97805722D01*
X138975122Y-97807837D01*
X139024647Y-97808143D01*
X139089550Y-97807524D01*
X139132514Y-97804686D01*
X139160622Y-97798160D01*
X139180953Y-97786477D01*
X139196288Y-97772517D01*
X139225890Y-97725636D01*
X139228419Y-97675299D01*
X139203705Y-97627724D01*
X139200356Y-97624021D01*
X139182935Y-97608217D01*
X139162209Y-97598307D01*
X139131362Y-97592942D01*
X139083577Y-97590773D01*
X139030748Y-97590429D01*
X138964381Y-97591173D01*
X138920106Y-97594252D01*
X138891009Y-97600939D01*
X138870173Y-97612504D01*
X138859107Y-97621987D01*
X138831198Y-97666040D01*
X138827843Y-97716776D01*
X138726837Y-97716776D01*
X138724304Y-97702684D01*
X138727067Y-97649317D01*
X138738212Y-97619457D01*
X138741383Y-97607739D01*
X138729557Y-97599964D01*
X138697866Y-97594535D01*
X138649593Y-97590429D01*
X138595829Y-97585933D01*
X138563482Y-97579687D01*
X138544985Y-97568323D01*
X138532770Y-97548472D01*
X138527363Y-97536000D01*
X138507601Y-97488830D01*
X138844358Y-97488883D01*
G37*
X139115866Y-100382357D02*
X139161558Y-100393643D01*
X139201761Y-100409050D01*
X139203322Y-100409828D01*
X139268062Y-100456196D01*
X139312098Y-100516289D01*
X139333711Y-100584535D01*
X139331185Y-100655362D01*
X139302804Y-100723196D01*
X139300808Y-100726212D01*
X139252447Y-100779573D01*
X139189352Y-100814660D01*
X139106387Y-100834078D01*
X139083078Y-100836684D01*
X138973055Y-100841299D01*
X138921748Y-100835767D01*
X138885027Y-100831806D01*
X138815212Y-100807450D01*
X138766302Y-100773544D01*
X138716878Y-100712347D01*
X138692360Y-100644937D01*
X138691911Y-100625154D01*
X138826950Y-100625154D01*
X138845718Y-100662897D01*
X138881915Y-100688966D01*
X138921749Y-100696486D01*
X138953753Y-100694676D01*
X138963093Y-100684778D01*
X138956105Y-100660102D01*
X138939587Y-100621205D01*
X138918881Y-100577725D01*
X138918333Y-100576644D01*
X138898949Y-100539791D01*
X138886013Y-100525000D01*
X138872450Y-100528647D01*
X138854632Y-100544005D01*
X138828845Y-100583077D01*
X138826950Y-100625154D01*
X138691911Y-100625154D01*
X138690797Y-100576120D01*
X138710239Y-100510697D01*
X138748735Y-100453473D01*
X138804335Y-100409251D01*
X138875086Y-100382832D01*
X138927162Y-100377490D01*
X138948893Y-100378097D01*
X138965531Y-100383178D01*
X138980437Y-100397145D01*
X138996973Y-100424411D01*
X139018498Y-100469388D01*
X139048374Y-100536489D01*
X139048524Y-100536829D01*
X139076813Y-100598593D01*
X139101933Y-100649241D01*
X139121179Y-100683596D01*
X139131848Y-100696482D01*
X139131935Y-100696486D01*
X139155166Y-100685128D01*
X139180774Y-100658569D01*
X139199221Y-100628077D01*
X139202886Y-100612630D01*
X139190211Y-100570485D01*
X139158471Y-100534192D01*
X139123572Y-100516483D01*
X139097845Y-100499448D01*
X139068546Y-100466077D01*
X139043235Y-100426851D01*
X139029471Y-100392244D01*
X139028714Y-100385007D01*
X139041160Y-100376861D01*
X139072972Y-100376370D01*
X139115866Y-100382357D01*
G36*
X139115866Y-100382357D02*
G01*
X139161558Y-100393643D01*
X139201761Y-100409050D01*
X139203322Y-100409828D01*
X139268062Y-100456196D01*
X139312098Y-100516289D01*
X139333711Y-100584535D01*
X139331185Y-100655362D01*
X139302804Y-100723196D01*
X139300808Y-100726212D01*
X139252447Y-100779573D01*
X139189352Y-100814660D01*
X139106387Y-100834078D01*
X139083078Y-100836684D01*
X138973055Y-100841299D01*
X138921748Y-100835767D01*
X138885027Y-100831806D01*
X138815212Y-100807450D01*
X138766302Y-100773544D01*
X138716878Y-100712347D01*
X138692360Y-100644937D01*
X138691911Y-100625154D01*
X138826950Y-100625154D01*
X138845718Y-100662897D01*
X138881915Y-100688966D01*
X138921749Y-100696486D01*
X138953753Y-100694676D01*
X138963093Y-100684778D01*
X138956105Y-100660102D01*
X138939587Y-100621205D01*
X138918881Y-100577725D01*
X138918333Y-100576644D01*
X138898949Y-100539791D01*
X138886013Y-100525000D01*
X138872450Y-100528647D01*
X138854632Y-100544005D01*
X138828845Y-100583077D01*
X138826950Y-100625154D01*
X138691911Y-100625154D01*
X138690797Y-100576120D01*
X138710239Y-100510697D01*
X138748735Y-100453473D01*
X138804335Y-100409251D01*
X138875086Y-100382832D01*
X138927162Y-100377490D01*
X138948893Y-100378097D01*
X138965531Y-100383178D01*
X138980437Y-100397145D01*
X138996973Y-100424411D01*
X139018498Y-100469388D01*
X139048374Y-100536489D01*
X139048524Y-100536829D01*
X139076813Y-100598593D01*
X139101933Y-100649241D01*
X139121179Y-100683596D01*
X139131848Y-100696482D01*
X139131935Y-100696486D01*
X139155166Y-100685128D01*
X139180774Y-100658569D01*
X139199221Y-100628077D01*
X139202886Y-100612630D01*
X139190211Y-100570485D01*
X139158471Y-100534192D01*
X139123572Y-100516483D01*
X139097845Y-100499448D01*
X139068546Y-100466077D01*
X139043235Y-100426851D01*
X139029471Y-100392244D01*
X139028714Y-100385007D01*
X139041160Y-100376861D01*
X139072972Y-100376370D01*
X139115866Y-100382357D01*
G37*
X139310678Y-98517284D02*
X139326110Y-98549237D01*
X139333423Y-98568530D01*
X139333514Y-98569422D01*
X139320022Y-98572761D01*
X139283626Y-98575413D01*
X139230452Y-98577044D01*
X139187393Y-98577400D01*
X139117641Y-98577409D01*
X139073837Y-98580597D01*
X139052944Y-98591712D01*
X139051925Y-98615499D01*
X139067741Y-98656704D01*
X139096815Y-98718914D01*
X139120963Y-98764659D01*
X139141913Y-98788187D01*
X139164747Y-98795104D01*
X139165877Y-98795114D01*
X139205212Y-98783701D01*
X139226462Y-98749909D01*
X139229539Y-98698191D01*
X139229006Y-98660939D01*
X139239734Y-98641297D01*
X139265505Y-98629048D01*
X139298337Y-98621998D01*
X139316966Y-98632158D01*
X139319633Y-98635983D01*
X139330340Y-98671999D01*
X139331856Y-98722434D01*
X139324759Y-98774374D01*
X139311789Y-98811178D01*
X139268585Y-98862062D01*
X139208446Y-98890986D01*
X139161462Y-98896714D01*
X139119082Y-98892343D01*
X139084488Y-98876525D01*
X139053763Y-98845203D01*
X139022991Y-98794322D01*
X138988252Y-98719824D01*
X138986288Y-98715286D01*
X138955287Y-98648179D01*
X138929862Y-98606768D01*
X138907014Y-98589019D01*
X138883745Y-98592893D01*
X138857056Y-98616357D01*
X138850914Y-98623373D01*
X138827100Y-98670370D01*
X138828103Y-98719067D01*
X138851451Y-98761478D01*
X138894675Y-98789616D01*
X138903160Y-98792230D01*
X138944308Y-98817692D01*
X138964128Y-98849999D01*
X138983770Y-98896714D01*
X138932950Y-98896714D01*
X138859082Y-98882504D01*
X138791327Y-98840325D01*
X138768661Y-98818376D01*
X138739570Y-98768483D01*
X138726400Y-98705033D01*
X138729968Y-98639256D01*
X138751087Y-98582384D01*
X138751493Y-98581733D01*
X138777380Y-98546560D01*
X138807633Y-98520593D01*
X138847058Y-98502330D01*
X138900462Y-98490268D01*
X138972651Y-98482904D01*
X139068432Y-98478736D01*
X139082078Y-98478371D01*
X139287842Y-98473124D01*
X139310678Y-98517284D01*
G36*
X139310678Y-98517284D02*
G01*
X139326110Y-98549237D01*
X139333423Y-98568530D01*
X139333514Y-98569422D01*
X139320022Y-98572761D01*
X139283626Y-98575413D01*
X139230452Y-98577044D01*
X139187393Y-98577400D01*
X139117641Y-98577409D01*
X139073837Y-98580597D01*
X139052944Y-98591712D01*
X139051925Y-98615499D01*
X139067741Y-98656704D01*
X139096815Y-98718914D01*
X139120963Y-98764659D01*
X139141913Y-98788187D01*
X139164747Y-98795104D01*
X139165877Y-98795114D01*
X139205212Y-98783701D01*
X139226462Y-98749909D01*
X139229539Y-98698191D01*
X139229006Y-98660939D01*
X139239734Y-98641297D01*
X139265505Y-98629048D01*
X139298337Y-98621998D01*
X139316966Y-98632158D01*
X139319633Y-98635983D01*
X139330340Y-98671999D01*
X139331856Y-98722434D01*
X139324759Y-98774374D01*
X139311789Y-98811178D01*
X139268585Y-98862062D01*
X139208446Y-98890986D01*
X139161462Y-98896714D01*
X139119082Y-98892343D01*
X139084488Y-98876525D01*
X139053763Y-98845203D01*
X139022991Y-98794322D01*
X138988252Y-98719824D01*
X138986288Y-98715286D01*
X138955287Y-98648179D01*
X138929862Y-98606768D01*
X138907014Y-98589019D01*
X138883745Y-98592893D01*
X138857056Y-98616357D01*
X138850914Y-98623373D01*
X138827100Y-98670370D01*
X138828103Y-98719067D01*
X138851451Y-98761478D01*
X138894675Y-98789616D01*
X138903160Y-98792230D01*
X138944308Y-98817692D01*
X138964128Y-98849999D01*
X138983770Y-98896714D01*
X138932950Y-98896714D01*
X138859082Y-98882504D01*
X138791327Y-98840325D01*
X138768661Y-98818376D01*
X138739570Y-98768483D01*
X138726400Y-98705033D01*
X138729968Y-98639256D01*
X138751087Y-98582384D01*
X138751493Y-98581733D01*
X138777380Y-98546560D01*
X138807633Y-98520593D01*
X138847058Y-98502330D01*
X138900462Y-98490268D01*
X138972651Y-98482904D01*
X139068432Y-98478736D01*
X139082078Y-98478371D01*
X139287842Y-98473124D01*
X139310678Y-98517284D01*
G37*
X139096588Y-100931148D02*
X139166657Y-100939606D01*
X139218931Y-100955826D01*
X139258869Y-100981546D01*
X139291930Y-101018503D01*
X139293886Y-101021218D01*
X139313908Y-101057640D01*
X139323815Y-101101498D01*
X139326257Y-101157276D01*
X139326257Y-101247952D01*
X139414283Y-101247990D01*
X139463307Y-101248834D01*
X139492065Y-101253976D01*
X139509311Y-101267413D01*
X139523808Y-101293142D01*
X139526769Y-101299321D01*
X139540648Y-101328236D01*
X139549414Y-101350624D01*
X139550171Y-101367271D01*
X139540023Y-101378964D01*
X139516072Y-101386490D01*
X139475426Y-101390634D01*
X139415186Y-101392186D01*
X139332455Y-101391929D01*
X139224339Y-101390651D01*
X139192000Y-101390252D01*
X139080524Y-101388815D01*
X139007603Y-101387528D01*
X138994245Y-101387292D01*
X138929333Y-101385323D01*
X138881957Y-101382550D01*
X138848290Y-101378612D01*
X138824498Y-101373151D01*
X138806753Y-101365808D01*
X138791224Y-101356223D01*
X138785381Y-101352113D01*
X138730185Y-101297595D01*
X138698890Y-101228664D01*
X138690776Y-101154509D01*
X138825514Y-101154509D01*
X138832926Y-101195234D01*
X138857330Y-101223168D01*
X138901980Y-101239983D01*
X138970130Y-101247350D01*
X139007603Y-101248029D01*
X139069499Y-101247245D01*
X139109997Y-101243760D01*
X139136708Y-101235876D01*
X139157244Y-101221895D01*
X139167260Y-101212403D01*
X139196567Y-101173596D01*
X139198952Y-101139237D01*
X139174750Y-101103784D01*
X139173857Y-101102886D01*
X139155153Y-101088461D01*
X139129732Y-101079688D01*
X139090584Y-101075261D01*
X139030697Y-101073882D01*
X139017430Y-101073858D01*
X138934901Y-101077188D01*
X138877691Y-101088031D01*
X138842766Y-101107660D01*
X138827094Y-101137350D01*
X138825514Y-101154509D01*
X138690776Y-101154509D01*
X138690165Y-101148928D01*
X138698918Y-101079256D01*
X138726568Y-101023799D01*
X138777480Y-100974852D01*
X138796337Y-100961371D01*
X138821015Y-100946686D01*
X138847816Y-100937158D01*
X138883587Y-100931707D01*
X138935169Y-100929253D01*
X139003267Y-100928714D01*
X139096588Y-100931148D01*
G36*
X139096588Y-100931148D02*
G01*
X139166657Y-100939606D01*
X139218931Y-100955826D01*
X139258869Y-100981546D01*
X139291930Y-101018503D01*
X139293886Y-101021218D01*
X139313908Y-101057640D01*
X139323815Y-101101498D01*
X139326257Y-101157276D01*
X139326257Y-101247952D01*
X139414283Y-101247990D01*
X139463307Y-101248834D01*
X139492065Y-101253976D01*
X139509311Y-101267413D01*
X139523808Y-101293142D01*
X139526769Y-101299321D01*
X139540648Y-101328236D01*
X139549414Y-101350624D01*
X139550171Y-101367271D01*
X139540023Y-101378964D01*
X139516072Y-101386490D01*
X139475426Y-101390634D01*
X139415186Y-101392186D01*
X139332455Y-101391929D01*
X139224339Y-101390651D01*
X139192000Y-101390252D01*
X139080524Y-101388815D01*
X139007603Y-101387528D01*
X138994245Y-101387292D01*
X138929333Y-101385323D01*
X138881957Y-101382550D01*
X138848290Y-101378612D01*
X138824498Y-101373151D01*
X138806753Y-101365808D01*
X138791224Y-101356223D01*
X138785381Y-101352113D01*
X138730185Y-101297595D01*
X138698890Y-101228664D01*
X138690776Y-101154509D01*
X138825514Y-101154509D01*
X138832926Y-101195234D01*
X138857330Y-101223168D01*
X138901980Y-101239983D01*
X138970130Y-101247350D01*
X139007603Y-101248029D01*
X139069499Y-101247245D01*
X139109997Y-101243760D01*
X139136708Y-101235876D01*
X139157244Y-101221895D01*
X139167260Y-101212403D01*
X139196567Y-101173596D01*
X139198952Y-101139237D01*
X139174750Y-101103784D01*
X139173857Y-101102886D01*
X139155153Y-101088461D01*
X139129732Y-101079688D01*
X139090584Y-101075261D01*
X139030697Y-101073882D01*
X139017430Y-101073858D01*
X138934901Y-101077188D01*
X138877691Y-101088031D01*
X138842766Y-101107660D01*
X138827094Y-101137350D01*
X138825514Y-101154509D01*
X138690776Y-101154509D01*
X138690165Y-101148928D01*
X138698918Y-101079256D01*
X138726568Y-101023799D01*
X138777480Y-100974852D01*
X138796337Y-100961371D01*
X138821015Y-100946686D01*
X138847816Y-100937158D01*
X138883587Y-100931707D01*
X138935169Y-100929253D01*
X139003267Y-100928714D01*
X139096588Y-100931148D01*
G37*
X139316670Y-96437226D02*
X139328981Y-96466344D01*
X139333514Y-96480769D01*
X139320025Y-96483528D01*
X139283654Y-96485718D01*
X139230542Y-96487058D01*
X139188372Y-96487343D01*
X139127447Y-96488566D01*
X139079115Y-96491864D01*
X139049518Y-96496679D01*
X139043229Y-96500504D01*
X139049652Y-96526217D01*
X139066126Y-96566582D01*
X139088458Y-96613321D01*
X139112457Y-96658155D01*
X139133930Y-96692806D01*
X139148685Y-96708998D01*
X139148845Y-96709062D01*
X139176152Y-96707670D01*
X139202219Y-96695182D01*
X139223392Y-96673257D01*
X139230474Y-96641257D01*
X139229649Y-96613908D01*
X139229042Y-96575174D01*
X139238116Y-96554842D01*
X139262092Y-96542631D01*
X139266613Y-96541091D01*
X139300806Y-96535798D01*
X139321569Y-96549953D01*
X139331462Y-96586852D01*
X139333292Y-96626711D01*
X139319727Y-96698438D01*
X139300355Y-96735568D01*
X139254845Y-96781424D01*
X139198982Y-96805744D01*
X139139957Y-96807927D01*
X139084953Y-96787371D01*
X139050486Y-96756451D01*
X139031190Y-96725580D01*
X139006759Y-96677058D01*
X138981985Y-96620515D01*
X138978199Y-96611090D01*
X138950791Y-96548981D01*
X138926634Y-96513178D01*
X138902619Y-96501663D01*
X138875635Y-96512420D01*
X138854544Y-96530886D01*
X138828572Y-96574531D01*
X138826624Y-96622554D01*
X138846637Y-96666594D01*
X138886551Y-96698291D01*
X138896848Y-96702451D01*
X138934724Y-96726673D01*
X138962842Y-96762036D01*
X138985917Y-96806658D01*
X138920485Y-96806657D01*
X138880506Y-96804031D01*
X138848997Y-96792770D01*
X138815378Y-96767801D01*
X138789484Y-96743831D01*
X138752817Y-96706559D01*
X138733121Y-96677599D01*
X138725219Y-96646495D01*
X138723914Y-96611287D01*
X138735335Y-96534124D01*
X138754344Y-96492333D01*
X138777378Y-96459531D01*
X138803133Y-96435497D01*
X138836358Y-96418903D01*
X138881801Y-96408423D01*
X138944207Y-96402729D01*
X139028327Y-96400493D01*
X139083721Y-96400257D01*
X139299826Y-96400257D01*
X139316670Y-96437226D01*
G36*
X139316670Y-96437226D02*
G01*
X139328981Y-96466344D01*
X139333514Y-96480769D01*
X139320025Y-96483528D01*
X139283654Y-96485718D01*
X139230542Y-96487058D01*
X139188372Y-96487343D01*
X139127447Y-96488566D01*
X139079115Y-96491864D01*
X139049518Y-96496679D01*
X139043229Y-96500504D01*
X139049652Y-96526217D01*
X139066126Y-96566582D01*
X139088458Y-96613321D01*
X139112457Y-96658155D01*
X139133930Y-96692806D01*
X139148685Y-96708998D01*
X139148845Y-96709062D01*
X139176152Y-96707670D01*
X139202219Y-96695182D01*
X139223392Y-96673257D01*
X139230474Y-96641257D01*
X139229649Y-96613908D01*
X139229042Y-96575174D01*
X139238116Y-96554842D01*
X139262092Y-96542631D01*
X139266613Y-96541091D01*
X139300806Y-96535798D01*
X139321569Y-96549953D01*
X139331462Y-96586852D01*
X139333292Y-96626711D01*
X139319727Y-96698438D01*
X139300355Y-96735568D01*
X139254845Y-96781424D01*
X139198982Y-96805744D01*
X139139957Y-96807927D01*
X139084953Y-96787371D01*
X139050486Y-96756451D01*
X139031190Y-96725580D01*
X139006759Y-96677058D01*
X138981985Y-96620515D01*
X138978199Y-96611090D01*
X138950791Y-96548981D01*
X138926634Y-96513178D01*
X138902619Y-96501663D01*
X138875635Y-96512420D01*
X138854544Y-96530886D01*
X138828572Y-96574531D01*
X138826624Y-96622554D01*
X138846637Y-96666594D01*
X138886551Y-96698291D01*
X138896848Y-96702451D01*
X138934724Y-96726673D01*
X138962842Y-96762036D01*
X138985917Y-96806658D01*
X138920485Y-96806657D01*
X138880506Y-96804031D01*
X138848997Y-96792770D01*
X138815378Y-96767801D01*
X138789484Y-96743831D01*
X138752817Y-96706559D01*
X138733121Y-96677599D01*
X138725219Y-96646495D01*
X138723914Y-96611287D01*
X138735335Y-96534124D01*
X138754344Y-96492333D01*
X138777378Y-96459531D01*
X138803133Y-96435497D01*
X138836358Y-96418903D01*
X138881801Y-96408423D01*
X138944207Y-96402729D01*
X139028327Y-96400493D01*
X139083721Y-96400257D01*
X139299826Y-96400257D01*
X139316670Y-96437226D01*
G37*
X136646839Y-96461943D02*
X136654995Y-96504337D01*
X136666899Y-96567600D01*
X136681116Y-96644038D01*
X136696211Y-96725957D01*
X136700356Y-96748600D01*
X136715054Y-96824194D01*
X136729505Y-96890047D01*
X136742375Y-96940634D01*
X136752322Y-96970426D01*
X136755287Y-96975388D01*
X136776283Y-96987574D01*
X136816967Y-97005047D01*
X136869322Y-97024423D01*
X136880600Y-97028266D01*
X136950523Y-97053661D01*
X137029418Y-97085183D01*
X137100265Y-97116031D01*
X137100596Y-97116183D01*
X137211733Y-97167553D01*
X137460253Y-96998601D01*
X137708772Y-96829648D01*
X137926058Y-97046571D01*
X137990726Y-97112181D01*
X138047733Y-97172021D01*
X138094033Y-97222733D01*
X138126584Y-97260954D01*
X138142343Y-97283325D01*
X138143343Y-97286534D01*
X138135469Y-97305374D01*
X138113578Y-97343820D01*
X138080267Y-97397670D01*
X138038131Y-97462724D01*
X137990943Y-97533060D01*
X137942810Y-97604445D01*
X137900928Y-97668092D01*
X137867871Y-97719960D01*
X137846218Y-97756005D01*
X137838543Y-97772133D01*
X137845037Y-97791812D01*
X137862150Y-97829125D01*
X137886326Y-97876379D01*
X137889013Y-97881388D01*
X137920927Y-97945023D01*
X137936579Y-97988659D01*
X137936745Y-98015798D01*
X137922204Y-98029943D01*
X137922000Y-98030024D01*
X137904779Y-98037096D01*
X137863899Y-98053958D01*
X137802525Y-98079305D01*
X137723818Y-98111829D01*
X137630947Y-98150222D01*
X137527072Y-98193178D01*
X137426502Y-98234779D01*
X137315516Y-98280496D01*
X137212703Y-98322474D01*
X137121215Y-98359452D01*
X137044201Y-98390173D01*
X136984815Y-98413378D01*
X136946209Y-98427810D01*
X136931800Y-98432257D01*
X136915272Y-98421104D01*
X136888930Y-98391931D01*
X136859887Y-98353029D01*
X136768039Y-98242243D01*
X136662759Y-98155649D01*
X136546266Y-98094284D01*
X136420776Y-98059185D01*
X136288507Y-98051392D01*
X136227457Y-98057057D01*
X136100795Y-98087922D01*
X135988941Y-98141080D01*
X135893001Y-98213233D01*
X135814076Y-98301083D01*
X135753270Y-98401335D01*
X135711687Y-98510690D01*
X135690428Y-98625853D01*
X135690599Y-98743525D01*
X135713301Y-98860410D01*
X135759638Y-98973211D01*
X135830713Y-99078631D01*
X135870911Y-99122632D01*
X135974129Y-99207021D01*
X136086925Y-99265778D01*
X136206009Y-99299296D01*
X136328095Y-99307964D01*
X136449893Y-99292177D01*
X136568116Y-99252321D01*
X136679475Y-99188793D01*
X136780684Y-99101979D01*
X136859887Y-99004971D01*
X136890162Y-98964563D01*
X136916219Y-98936018D01*
X136931825Y-98925743D01*
X136948843Y-98931123D01*
X136989500Y-98946425D01*
X137050641Y-98970388D01*
X137129119Y-99001755D01*
X137221780Y-99039268D01*
X137325472Y-99081668D01*
X137426526Y-99123337D01*
X137537607Y-99169310D01*
X137640541Y-99211893D01*
X137732165Y-99249779D01*
X137809315Y-99281660D01*
X137868831Y-99306229D01*
X137907544Y-99322180D01*
X137922000Y-99328090D01*
X137936684Y-99342052D01*
X137936642Y-99369061D01*
X137921099Y-99412587D01*
X137889284Y-99476110D01*
X137889013Y-99476612D01*
X137864323Y-99524440D01*
X137846338Y-99563103D01*
X137838614Y-99584905D01*
X137838543Y-99585867D01*
X137846378Y-99602279D01*
X137868165Y-99638513D01*
X137901328Y-99690526D01*
X137943291Y-99754275D01*
X137990943Y-99824940D01*
X138039192Y-99896884D01*
X138081151Y-99961726D01*
X138114227Y-100015265D01*
X138135821Y-100053303D01*
X138143343Y-100071467D01*
X138133457Y-100088192D01*
X138105826Y-100121820D01*
X138063495Y-100168990D01*
X138009504Y-100226342D01*
X137946899Y-100290516D01*
X137925983Y-100311502D01*
X137708623Y-100528501D01*
X137466220Y-100363333D01*
X137391781Y-100313136D01*
X137324972Y-100269082D01*
X137269665Y-100233639D01*
X137229729Y-100209282D01*
X137209036Y-100198478D01*
X137207563Y-100198162D01*
X137188058Y-100203857D01*
X137148822Y-100219174D01*
X137096430Y-100241463D01*
X137061355Y-100257107D01*
X136994202Y-100286359D01*
X136926358Y-100313906D01*
X136869034Y-100335263D01*
X136851572Y-100341065D01*
X136804938Y-100357548D01*
X136768905Y-100373660D01*
X136755287Y-100382510D01*
X136746952Y-100402040D01*
X136735137Y-100444666D01*
X136721181Y-100504855D01*
X136706422Y-100577078D01*
X136700356Y-100609400D01*
X136685273Y-100691478D01*
X136670669Y-100770205D01*
X136657979Y-100837891D01*
X136648642Y-100886841D01*
X136646839Y-100896057D01*
X136631799Y-100972257D01*
X136314492Y-100972257D01*
X136210154Y-100972086D01*
X136131213Y-100971384D01*
X136074038Y-100969865D01*
X136034999Y-100967251D01*
X136010465Y-100963254D01*
X135996805Y-100957591D01*
X135990389Y-100949980D01*
X135989198Y-100946857D01*
X135984980Y-100928022D01*
X135976562Y-100886412D01*
X135964961Y-100827369D01*
X135951195Y-100756243D01*
X135936280Y-100678376D01*
X135921232Y-100599112D01*
X135907069Y-100523802D01*
X135894806Y-100457787D01*
X135885461Y-100406413D01*
X135880050Y-100375025D01*
X135879114Y-100368041D01*
X135866596Y-100361715D01*
X135833246Y-100347710D01*
X135785377Y-100328645D01*
X135766629Y-100321367D01*
X135694195Y-100292004D01*
X135614170Y-100257429D01*
X135546729Y-100226463D01*
X135495159Y-100203677D01*
X135452785Y-100188518D01*
X135426834Y-100183458D01*
X135423356Y-100184263D01*
X135406936Y-100194959D01*
X135370417Y-100219381D01*
X135317687Y-100254905D01*
X135252634Y-100298913D01*
X135179151Y-100348783D01*
X135164645Y-100358644D01*
X135078704Y-100416508D01*
X135013261Y-100459044D01*
X134965304Y-100487946D01*
X134931820Y-100504910D01*
X134909795Y-100511633D01*
X134896217Y-100509810D01*
X134896131Y-100509764D01*
X134878297Y-100495414D01*
X134843817Y-100463677D01*
X134796268Y-100417990D01*
X134739223Y-100361796D01*
X134676255Y-100298532D01*
X134669227Y-100291398D01*
X134592020Y-100211670D01*
X134535330Y-100150143D01*
X134498110Y-100105579D01*
X134479316Y-100076743D01*
X134476889Y-100064042D01*
X134487471Y-100045506D01*
X134511916Y-100007039D01*
X134547612Y-99952615D01*
X134591947Y-99886202D01*
X134642311Y-99811775D01*
X134654160Y-99794399D01*
X134822626Y-99547703D01*
X134772062Y-99436294D01*
X134742595Y-99368543D01*
X134712959Y-99295817D01*
X134689330Y-99233297D01*
X134688358Y-99230543D01*
X134670457Y-99181640D01*
X134655320Y-99143943D01*
X134646210Y-99125575D01*
X134646184Y-99125544D01*
X134629717Y-99119715D01*
X134589219Y-99109808D01*
X134529242Y-99096805D01*
X134454340Y-99081691D01*
X134369064Y-99065448D01*
X134361875Y-99064119D01*
X134274014Y-99047825D01*
X134194260Y-99032867D01*
X134127681Y-99020209D01*
X134079347Y-99010814D01*
X134054325Y-99005646D01*
X134053943Y-99005556D01*
X134043299Y-99002411D01*
X134035262Y-98996296D01*
X134029467Y-98983547D01*
X134025547Y-98960500D01*
X134023135Y-98923491D01*
X134021866Y-98868856D01*
X134021371Y-98792933D01*
X134021286Y-98692056D01*
X134021286Y-98679000D01*
X134021348Y-98575090D01*
X134021778Y-98496546D01*
X134022942Y-98439702D01*
X134025207Y-98400895D01*
X134028940Y-98376462D01*
X134034506Y-98362738D01*
X134042273Y-98356060D01*
X134052605Y-98352764D01*
X134053943Y-98352444D01*
X134078079Y-98347438D01*
X134125701Y-98338171D01*
X134191741Y-98325609D01*
X134271128Y-98310713D01*
X134358796Y-98294449D01*
X134361875Y-98293881D01*
X134447789Y-98277590D01*
X134523696Y-98262348D01*
X134585045Y-98249139D01*
X134627282Y-98238946D01*
X134645855Y-98232752D01*
X134646184Y-98232457D01*
X134655253Y-98214212D01*
X134670367Y-98176595D01*
X134688262Y-98127730D01*
X134688358Y-98127457D01*
X134711493Y-98065907D01*
X134740965Y-97993343D01*
X134770597Y-97924943D01*
X134772062Y-97921706D01*
X134822626Y-97810298D01*
X134654160Y-97563601D01*
X134602803Y-97487923D01*
X134556889Y-97419369D01*
X134519030Y-97361912D01*
X134491837Y-97319524D01*
X134477921Y-97296176D01*
X134476889Y-97293958D01*
X134481484Y-97276990D01*
X134503655Y-97245299D01*
X134544446Y-97197648D01*
X134604905Y-97132802D01*
X134669227Y-97066603D01*
X134732612Y-97002786D01*
X134790451Y-96945671D01*
X134839175Y-96898695D01*
X134875210Y-96865297D01*
X134894984Y-96848915D01*
X134896002Y-96848306D01*
X134909572Y-96846495D01*
X134931733Y-96853317D01*
X134965478Y-96870460D01*
X135013800Y-96899607D01*
X135079692Y-96942445D01*
X135164517Y-96999552D01*
X135239177Y-97050234D01*
X135306140Y-97095539D01*
X135361516Y-97132850D01*
X135401420Y-97159548D01*
X135421962Y-97173015D01*
X135423356Y-97173862D01*
X135443038Y-97172219D01*
X135481293Y-97159755D01*
X135530889Y-97138952D01*
X135546728Y-97131538D01*
X135617290Y-97099186D01*
X135697353Y-97064672D01*
X135766629Y-97036635D01*
X135818045Y-97016432D01*
X135857119Y-97000385D01*
X135877541Y-96991112D01*
X135879114Y-96989959D01*
X135881721Y-96972904D01*
X135888863Y-96932702D01*
X135899523Y-96874698D01*
X135912685Y-96804237D01*
X135927333Y-96726665D01*
X135942449Y-96647328D01*
X135957018Y-96571569D01*
X135970022Y-96504736D01*
X135980445Y-96452172D01*
X135987270Y-96419224D01*
X135989198Y-96411143D01*
X135993962Y-96402795D01*
X136004717Y-96396494D01*
X136025098Y-96391955D01*
X136058734Y-96388896D01*
X136109255Y-96387033D01*
X136180292Y-96386083D01*
X136275476Y-96385760D01*
X136314492Y-96385743D01*
X136631799Y-96385743D01*
X136646839Y-96461943D01*
G36*
X136646839Y-96461943D02*
G01*
X136654995Y-96504337D01*
X136666899Y-96567600D01*
X136681116Y-96644038D01*
X136696211Y-96725957D01*
X136700356Y-96748600D01*
X136715054Y-96824194D01*
X136729505Y-96890047D01*
X136742375Y-96940634D01*
X136752322Y-96970426D01*
X136755287Y-96975388D01*
X136776283Y-96987574D01*
X136816967Y-97005047D01*
X136869322Y-97024423D01*
X136880600Y-97028266D01*
X136950523Y-97053661D01*
X137029418Y-97085183D01*
X137100265Y-97116031D01*
X137100596Y-97116183D01*
X137211733Y-97167553D01*
X137460253Y-96998601D01*
X137708772Y-96829648D01*
X137926058Y-97046571D01*
X137990726Y-97112181D01*
X138047733Y-97172021D01*
X138094033Y-97222733D01*
X138126584Y-97260954D01*
X138142343Y-97283325D01*
X138143343Y-97286534D01*
X138135469Y-97305374D01*
X138113578Y-97343820D01*
X138080267Y-97397670D01*
X138038131Y-97462724D01*
X137990943Y-97533060D01*
X137942810Y-97604445D01*
X137900928Y-97668092D01*
X137867871Y-97719960D01*
X137846218Y-97756005D01*
X137838543Y-97772133D01*
X137845037Y-97791812D01*
X137862150Y-97829125D01*
X137886326Y-97876379D01*
X137889013Y-97881388D01*
X137920927Y-97945023D01*
X137936579Y-97988659D01*
X137936745Y-98015798D01*
X137922204Y-98029943D01*
X137922000Y-98030024D01*
X137904779Y-98037096D01*
X137863899Y-98053958D01*
X137802525Y-98079305D01*
X137723818Y-98111829D01*
X137630947Y-98150222D01*
X137527072Y-98193178D01*
X137426502Y-98234779D01*
X137315516Y-98280496D01*
X137212703Y-98322474D01*
X137121215Y-98359452D01*
X137044201Y-98390173D01*
X136984815Y-98413378D01*
X136946209Y-98427810D01*
X136931800Y-98432257D01*
X136915272Y-98421104D01*
X136888930Y-98391931D01*
X136859887Y-98353029D01*
X136768039Y-98242243D01*
X136662759Y-98155649D01*
X136546266Y-98094284D01*
X136420776Y-98059185D01*
X136288507Y-98051392D01*
X136227457Y-98057057D01*
X136100795Y-98087922D01*
X135988941Y-98141080D01*
X135893001Y-98213233D01*
X135814076Y-98301083D01*
X135753270Y-98401335D01*
X135711687Y-98510690D01*
X135690428Y-98625853D01*
X135690599Y-98743525D01*
X135713301Y-98860410D01*
X135759638Y-98973211D01*
X135830713Y-99078631D01*
X135870911Y-99122632D01*
X135974129Y-99207021D01*
X136086925Y-99265778D01*
X136206009Y-99299296D01*
X136328095Y-99307964D01*
X136449893Y-99292177D01*
X136568116Y-99252321D01*
X136679475Y-99188793D01*
X136780684Y-99101979D01*
X136859887Y-99004971D01*
X136890162Y-98964563D01*
X136916219Y-98936018D01*
X136931825Y-98925743D01*
X136948843Y-98931123D01*
X136989500Y-98946425D01*
X137050641Y-98970388D01*
X137129119Y-99001755D01*
X137221780Y-99039268D01*
X137325472Y-99081668D01*
X137426526Y-99123337D01*
X137537607Y-99169310D01*
X137640541Y-99211893D01*
X137732165Y-99249779D01*
X137809315Y-99281660D01*
X137868831Y-99306229D01*
X137907544Y-99322180D01*
X137922000Y-99328090D01*
X137936684Y-99342052D01*
X137936642Y-99369061D01*
X137921099Y-99412587D01*
X137889284Y-99476110D01*
X137889013Y-99476612D01*
X137864323Y-99524440D01*
X137846338Y-99563103D01*
X137838614Y-99584905D01*
X137838543Y-99585867D01*
X137846378Y-99602279D01*
X137868165Y-99638513D01*
X137901328Y-99690526D01*
X137943291Y-99754275D01*
X137990943Y-99824940D01*
X138039192Y-99896884D01*
X138081151Y-99961726D01*
X138114227Y-100015265D01*
X138135821Y-100053303D01*
X138143343Y-100071467D01*
X138133457Y-100088192D01*
X138105826Y-100121820D01*
X138063495Y-100168990D01*
X138009504Y-100226342D01*
X137946899Y-100290516D01*
X137925983Y-100311502D01*
X137708623Y-100528501D01*
X137466220Y-100363333D01*
X137391781Y-100313136D01*
X137324972Y-100269082D01*
X137269665Y-100233639D01*
X137229729Y-100209282D01*
X137209036Y-100198478D01*
X137207563Y-100198162D01*
X137188058Y-100203857D01*
X137148822Y-100219174D01*
X137096430Y-100241463D01*
X137061355Y-100257107D01*
X136994202Y-100286359D01*
X136926358Y-100313906D01*
X136869034Y-100335263D01*
X136851572Y-100341065D01*
X136804938Y-100357548D01*
X136768905Y-100373660D01*
X136755287Y-100382510D01*
X136746952Y-100402040D01*
X136735137Y-100444666D01*
X136721181Y-100504855D01*
X136706422Y-100577078D01*
X136700356Y-100609400D01*
X136685273Y-100691478D01*
X136670669Y-100770205D01*
X136657979Y-100837891D01*
X136648642Y-100886841D01*
X136646839Y-100896057D01*
X136631799Y-100972257D01*
X136314492Y-100972257D01*
X136210154Y-100972086D01*
X136131213Y-100971384D01*
X136074038Y-100969865D01*
X136034999Y-100967251D01*
X136010465Y-100963254D01*
X135996805Y-100957591D01*
X135990389Y-100949980D01*
X135989198Y-100946857D01*
X135984980Y-100928022D01*
X135976562Y-100886412D01*
X135964961Y-100827369D01*
X135951195Y-100756243D01*
X135936280Y-100678376D01*
X135921232Y-100599112D01*
X135907069Y-100523802D01*
X135894806Y-100457787D01*
X135885461Y-100406413D01*
X135880050Y-100375025D01*
X135879114Y-100368041D01*
X135866596Y-100361715D01*
X135833246Y-100347710D01*
X135785377Y-100328645D01*
X135766629Y-100321367D01*
X135694195Y-100292004D01*
X135614170Y-100257429D01*
X135546729Y-100226463D01*
X135495159Y-100203677D01*
X135452785Y-100188518D01*
X135426834Y-100183458D01*
X135423356Y-100184263D01*
X135406936Y-100194959D01*
X135370417Y-100219381D01*
X135317687Y-100254905D01*
X135252634Y-100298913D01*
X135179151Y-100348783D01*
X135164645Y-100358644D01*
X135078704Y-100416508D01*
X135013261Y-100459044D01*
X134965304Y-100487946D01*
X134931820Y-100504910D01*
X134909795Y-100511633D01*
X134896217Y-100509810D01*
X134896131Y-100509764D01*
X134878297Y-100495414D01*
X134843817Y-100463677D01*
X134796268Y-100417990D01*
X134739223Y-100361796D01*
X134676255Y-100298532D01*
X134669227Y-100291398D01*
X134592020Y-100211670D01*
X134535330Y-100150143D01*
X134498110Y-100105579D01*
X134479316Y-100076743D01*
X134476889Y-100064042D01*
X134487471Y-100045506D01*
X134511916Y-100007039D01*
X134547612Y-99952615D01*
X134591947Y-99886202D01*
X134642311Y-99811775D01*
X134654160Y-99794399D01*
X134822626Y-99547703D01*
X134772062Y-99436294D01*
X134742595Y-99368543D01*
X134712959Y-99295817D01*
X134689330Y-99233297D01*
X134688358Y-99230543D01*
X134670457Y-99181640D01*
X134655320Y-99143943D01*
X134646210Y-99125575D01*
X134646184Y-99125544D01*
X134629717Y-99119715D01*
X134589219Y-99109808D01*
X134529242Y-99096805D01*
X134454340Y-99081691D01*
X134369064Y-99065448D01*
X134361875Y-99064119D01*
X134274014Y-99047825D01*
X134194260Y-99032867D01*
X134127681Y-99020209D01*
X134079347Y-99010814D01*
X134054325Y-99005646D01*
X134053943Y-99005556D01*
X134043299Y-99002411D01*
X134035262Y-98996296D01*
X134029467Y-98983547D01*
X134025547Y-98960500D01*
X134023135Y-98923491D01*
X134021866Y-98868856D01*
X134021371Y-98792933D01*
X134021286Y-98692056D01*
X134021286Y-98679000D01*
X134021348Y-98575090D01*
X134021778Y-98496546D01*
X134022942Y-98439702D01*
X134025207Y-98400895D01*
X134028940Y-98376462D01*
X134034506Y-98362738D01*
X134042273Y-98356060D01*
X134052605Y-98352764D01*
X134053943Y-98352444D01*
X134078079Y-98347438D01*
X134125701Y-98338171D01*
X134191741Y-98325609D01*
X134271128Y-98310713D01*
X134358796Y-98294449D01*
X134361875Y-98293881D01*
X134447789Y-98277590D01*
X134523696Y-98262348D01*
X134585045Y-98249139D01*
X134627282Y-98238946D01*
X134645855Y-98232752D01*
X134646184Y-98232457D01*
X134655253Y-98214212D01*
X134670367Y-98176595D01*
X134688262Y-98127730D01*
X134688358Y-98127457D01*
X134711493Y-98065907D01*
X134740965Y-97993343D01*
X134770597Y-97924943D01*
X134772062Y-97921706D01*
X134822626Y-97810298D01*
X134654160Y-97563601D01*
X134602803Y-97487923D01*
X134556889Y-97419369D01*
X134519030Y-97361912D01*
X134491837Y-97319524D01*
X134477921Y-97296176D01*
X134476889Y-97293958D01*
X134481484Y-97276990D01*
X134503655Y-97245299D01*
X134544446Y-97197648D01*
X134604905Y-97132802D01*
X134669227Y-97066603D01*
X134732612Y-97002786D01*
X134790451Y-96945671D01*
X134839175Y-96898695D01*
X134875210Y-96865297D01*
X134894984Y-96848915D01*
X134896002Y-96848306D01*
X134909572Y-96846495D01*
X134931733Y-96853317D01*
X134965478Y-96870460D01*
X135013800Y-96899607D01*
X135079692Y-96942445D01*
X135164517Y-96999552D01*
X135239177Y-97050234D01*
X135306140Y-97095539D01*
X135361516Y-97132850D01*
X135401420Y-97159548D01*
X135421962Y-97173015D01*
X135423356Y-97173862D01*
X135443038Y-97172219D01*
X135481293Y-97159755D01*
X135530889Y-97138952D01*
X135546728Y-97131538D01*
X135617290Y-97099186D01*
X135697353Y-97064672D01*
X135766629Y-97036635D01*
X135818045Y-97016432D01*
X135857119Y-97000385D01*
X135877541Y-96991112D01*
X135879114Y-96989959D01*
X135881721Y-96972904D01*
X135888863Y-96932702D01*
X135899523Y-96874698D01*
X135912685Y-96804237D01*
X135927333Y-96726665D01*
X135942449Y-96647328D01*
X135957018Y-96571569D01*
X135970022Y-96504736D01*
X135980445Y-96452172D01*
X135987270Y-96419224D01*
X135989198Y-96411143D01*
X135993962Y-96402795D01*
X136004717Y-96396494D01*
X136025098Y-96391955D01*
X136058734Y-96388896D01*
X136109255Y-96387033D01*
X136180292Y-96386083D01*
X136275476Y-96385760D01*
X136314492Y-96385743D01*
X136631799Y-96385743D01*
X136646839Y-96461943D01*
G37*
D15*
%TO.C,C2*%
X127965252Y-108310000D02*
X126542748Y-108310000D01*
X127965252Y-110130000D02*
X126542748Y-110130000D01*
D14*
%TO.C,U1*%
X122568000Y-90429000D02*
X123318000Y-90429000D01*
X122568000Y-106929000D02*
X122568000Y-90429000D01*
X123318000Y-106929000D02*
X122568000Y-106929000D01*
X139318000Y-106929000D02*
X140068000Y-106929000D01*
X140068000Y-90429000D02*
X139318000Y-90429000D01*
X140068000Y-106929000D02*
X140068000Y-90429000D01*
D15*
X123318000Y-107729000D02*
X122817999Y-107229000D01*
X123318000Y-107229000D01*
X123318000Y-107729000D01*
G36*
X123318000Y-107729000D02*
G01*
X122817999Y-107229000D01*
X123318000Y-107229000D01*
X123318000Y-107729000D01*
G37*
%TD*%
M02*
