%TF.GenerationSoftware,KiCad,Pcbnew,8.0.6*%
%TF.CreationDate,2024-11-08T20:03:32-06:00*%
%TF.ProjectId,lora micronode,6c6f7261-206d-4696-9372-6f6e6f64652e,rev?*%
%TF.SameCoordinates,Original*%
%TF.FileFunction,Copper,L3,Inr*%
%TF.FilePolarity,Positive*%
%FSLAX46Y46*%
G04 Gerber Fmt 4.6, Leading zero omitted, Abs format (unit mm)*
G04 Created by KiCad (PCBNEW 8.0.6) date 2024-11-08 20:03:32*
%MOMM*%
%LPD*%
G01*
G04 APERTURE LIST*
G04 Aperture macros list*
%AMRoundRect*
0 Rectangle with rounded corners*
0 $1 Rounding radius*
0 $2 $3 $4 $5 $6 $7 $8 $9 X,Y pos of 4 corners*
0 Add a 4 corners polygon primitive as box body*
4,1,4,$2,$3,$4,$5,$6,$7,$8,$9,$2,$3,0*
0 Add four circle primitives for the rounded corners*
1,1,$1+$1,$2,$3*
1,1,$1+$1,$4,$5*
1,1,$1+$1,$6,$7*
1,1,$1+$1,$8,$9*
0 Add four rect primitives between the rounded corners*
20,1,$1+$1,$2,$3,$4,$5,0*
20,1,$1+$1,$4,$5,$6,$7,0*
20,1,$1+$1,$6,$7,$8,$9,0*
20,1,$1+$1,$8,$9,$2,$3,0*%
G04 Aperture macros list end*
%TA.AperFunction,ComponentPad*%
%ADD10RoundRect,0.200000X0.200000X0.450000X-0.200000X0.450000X-0.200000X-0.450000X0.200000X-0.450000X0*%
%TD*%
%TA.AperFunction,ComponentPad*%
%ADD11O,0.800000X1.300000*%
%TD*%
%TA.AperFunction,ComponentPad*%
%ADD12R,2.300000X1.900000*%
%TD*%
%TA.AperFunction,ComponentPad*%
%ADD13C,1.360000*%
%TD*%
%TA.AperFunction,ComponentPad*%
%ADD14C,3.000000*%
%TD*%
%TA.AperFunction,ViaPad*%
%ADD15C,0.600000*%
%TD*%
G04 APERTURE END LIST*
D10*
%TO.N,Solar+*%
%TO.C,SC1*%
X134874000Y-86106000D03*
D11*
%TO.N,GND*%
X133624001Y-86106000D03*
%TD*%
D12*
%TO.N,GND*%
%TO.C,U2*%
X126691000Y-60446000D03*
%TO.N,BAT_VCC*%
X126691000Y-62546000D03*
%TD*%
D13*
%TO.N,Net-(AE1-A)*%
%TO.C,AE1*%
X124568000Y-118618000D03*
D14*
%TO.N,N/C*%
X137668000Y-118618000D03*
%TD*%
D15*
%TO.N,GND*%
X126746000Y-109220000D03*
X123571000Y-108331000D03*
X140462000Y-109855000D03*
X140589000Y-52197000D03*
X121666000Y-52197000D03*
%TO.N,+3.3V*%
X128143000Y-108204000D03*
X130429000Y-109220000D03*
X128143000Y-105029000D03*
X137668000Y-60206000D03*
X137096500Y-59753500D03*
X136525000Y-59182000D03*
%TO.N,SX126X_BUSY*%
X135890000Y-92710000D03*
%TO.N,SX126X_CS*%
X126238000Y-92710000D03*
%TO.N,MOSI*%
X128143000Y-92710000D03*
%TO.N,MISO*%
X130175000Y-92710000D03*
%TO.N,SCK*%
X132207000Y-92710000D03*
%TO.N,SX126X_DIO1*%
X134112000Y-104267000D03*
%TO.N,SX126X_RESET*%
X130048000Y-104267000D03*
X125095000Y-64643000D03*
%TO.N,SX126X_BUSY*%
X125222000Y-58801000D03*
%TO.N,SX126X_DIO1*%
X124968000Y-57658000D03*
%TO.N,SX126X_CS*%
X124960000Y-55126000D03*
%TO.N,SCK*%
X137160000Y-67818000D03*
%TO.N,MISO*%
X137160000Y-65278000D03*
%TO.N,MOSI*%
X137160000Y-62738000D03*
%TD*%
%TA.AperFunction,Conductor*%
%TO.N,+3.3V*%
G36*
X140468061Y-50920097D02*
G01*
X140599973Y-50933089D01*
X140623801Y-50937828D01*
X140744793Y-50974531D01*
X140767245Y-50983832D01*
X140822993Y-51013629D01*
X140878738Y-51043426D01*
X140898949Y-51056930D01*
X140996677Y-51137132D01*
X141013867Y-51154322D01*
X141094069Y-51252050D01*
X141107573Y-51272261D01*
X141132971Y-51319777D01*
X141147213Y-51388179D01*
X141122213Y-51453423D01*
X141065908Y-51494794D01*
X140996175Y-51499156D01*
X140957641Y-51483224D01*
X140938523Y-51471211D01*
X140768254Y-51411631D01*
X140768249Y-51411630D01*
X140589004Y-51391435D01*
X140588996Y-51391435D01*
X140409750Y-51411630D01*
X140409745Y-51411631D01*
X140239476Y-51471211D01*
X140086737Y-51567184D01*
X139959184Y-51694737D01*
X139863211Y-51847476D01*
X139803631Y-52017745D01*
X139803630Y-52017750D01*
X139783435Y-52196996D01*
X139783435Y-52197003D01*
X139803630Y-52376249D01*
X139803631Y-52376254D01*
X139863211Y-52546523D01*
X139946500Y-52679075D01*
X139959184Y-52699262D01*
X140086738Y-52826816D01*
X140239478Y-52922789D01*
X140368032Y-52967772D01*
X140409745Y-52982368D01*
X140409750Y-52982369D01*
X140588996Y-53002565D01*
X140589000Y-53002565D01*
X140589004Y-53002565D01*
X140768249Y-52982369D01*
X140768252Y-52982368D01*
X140768255Y-52982368D01*
X140938522Y-52922789D01*
X141034027Y-52862778D01*
X141101264Y-52843778D01*
X141168099Y-52864145D01*
X141213314Y-52917413D01*
X141224000Y-52967772D01*
X141224000Y-109185560D01*
X141204315Y-109252599D01*
X141151511Y-109298354D01*
X141082353Y-109308298D01*
X141018797Y-109279273D01*
X141012319Y-109273241D01*
X140964262Y-109225184D01*
X140811523Y-109129211D01*
X140641254Y-109069631D01*
X140641249Y-109069630D01*
X140462004Y-109049435D01*
X140461996Y-109049435D01*
X140282750Y-109069630D01*
X140282745Y-109069631D01*
X140112476Y-109129211D01*
X139959737Y-109225184D01*
X139832184Y-109352737D01*
X139736211Y-109505476D01*
X139676631Y-109675745D01*
X139676630Y-109675750D01*
X139656435Y-109854996D01*
X139656435Y-109855003D01*
X139676630Y-110034249D01*
X139676631Y-110034254D01*
X139736211Y-110204523D01*
X139832184Y-110357262D01*
X139880241Y-110405319D01*
X139913726Y-110466642D01*
X139908742Y-110536334D01*
X139866870Y-110592267D01*
X139801406Y-110616684D01*
X139792560Y-110617000D01*
X121155000Y-110617000D01*
X121087961Y-110597315D01*
X121042206Y-110544511D01*
X121031000Y-110493000D01*
X121031000Y-109219996D01*
X125940435Y-109219996D01*
X125940435Y-109220003D01*
X125960630Y-109399249D01*
X125960631Y-109399254D01*
X126020211Y-109569523D01*
X126116184Y-109722262D01*
X126243738Y-109849816D01*
X126396478Y-109945789D01*
X126566745Y-110005368D01*
X126566750Y-110005369D01*
X126745996Y-110025565D01*
X126746000Y-110025565D01*
X126746004Y-110025565D01*
X126925249Y-110005369D01*
X126925252Y-110005368D01*
X126925255Y-110005368D01*
X127095522Y-109945789D01*
X127248262Y-109849816D01*
X127375816Y-109722262D01*
X127471789Y-109569522D01*
X127531368Y-109399255D01*
X127536609Y-109352738D01*
X127551565Y-109220003D01*
X127551565Y-109219996D01*
X127531369Y-109040750D01*
X127531368Y-109040745D01*
X127471789Y-108870478D01*
X127375816Y-108717738D01*
X127248262Y-108590184D01*
X127095523Y-108494211D01*
X126925254Y-108434631D01*
X126925249Y-108434630D01*
X126746004Y-108414435D01*
X126745996Y-108414435D01*
X126566750Y-108434630D01*
X126566745Y-108434631D01*
X126396476Y-108494211D01*
X126243737Y-108590184D01*
X126116184Y-108717737D01*
X126020211Y-108870476D01*
X125960631Y-109040745D01*
X125960630Y-109040750D01*
X125940435Y-109219996D01*
X121031000Y-109219996D01*
X121031000Y-108330996D01*
X122765435Y-108330996D01*
X122765435Y-108331003D01*
X122785630Y-108510249D01*
X122785631Y-108510254D01*
X122845211Y-108680523D01*
X122868595Y-108717738D01*
X122941184Y-108833262D01*
X123068738Y-108960816D01*
X123221478Y-109056789D01*
X123391745Y-109116368D01*
X123391750Y-109116369D01*
X123570996Y-109136565D01*
X123571000Y-109136565D01*
X123571004Y-109136565D01*
X123750249Y-109116369D01*
X123750252Y-109116368D01*
X123750255Y-109116368D01*
X123920522Y-109056789D01*
X124073262Y-108960816D01*
X124200816Y-108833262D01*
X124296789Y-108680522D01*
X124356368Y-108510255D01*
X124364889Y-108434630D01*
X124376565Y-108331003D01*
X124376565Y-108330996D01*
X124356369Y-108151750D01*
X124356368Y-108151745D01*
X124296788Y-107981476D01*
X124200815Y-107828737D01*
X124073262Y-107701184D01*
X123920523Y-107605211D01*
X123750254Y-107545631D01*
X123750249Y-107545630D01*
X123571004Y-107525435D01*
X123570996Y-107525435D01*
X123391750Y-107545630D01*
X123391745Y-107545631D01*
X123221476Y-107605211D01*
X123068737Y-107701184D01*
X122941184Y-107828737D01*
X122845211Y-107981476D01*
X122785631Y-108151745D01*
X122785630Y-108151750D01*
X122765435Y-108330996D01*
X121031000Y-108330996D01*
X121031000Y-104266996D01*
X129242435Y-104266996D01*
X129242435Y-104267003D01*
X129262630Y-104446249D01*
X129262631Y-104446254D01*
X129322211Y-104616523D01*
X129418184Y-104769262D01*
X129545738Y-104896816D01*
X129698478Y-104992789D01*
X129868745Y-105052368D01*
X129868750Y-105052369D01*
X130047996Y-105072565D01*
X130048000Y-105072565D01*
X130048004Y-105072565D01*
X130227249Y-105052369D01*
X130227252Y-105052368D01*
X130227255Y-105052368D01*
X130397522Y-104992789D01*
X130550262Y-104896816D01*
X130677816Y-104769262D01*
X130773789Y-104616522D01*
X130833368Y-104446255D01*
X130853565Y-104267000D01*
X130853565Y-104266996D01*
X133306435Y-104266996D01*
X133306435Y-104267003D01*
X133326630Y-104446249D01*
X133326631Y-104446254D01*
X133386211Y-104616523D01*
X133482184Y-104769262D01*
X133609738Y-104896816D01*
X133762478Y-104992789D01*
X133932745Y-105052368D01*
X133932750Y-105052369D01*
X134111996Y-105072565D01*
X134112000Y-105072565D01*
X134112004Y-105072565D01*
X134291249Y-105052369D01*
X134291252Y-105052368D01*
X134291255Y-105052368D01*
X134461522Y-104992789D01*
X134614262Y-104896816D01*
X134741816Y-104769262D01*
X134837789Y-104616522D01*
X134897368Y-104446255D01*
X134917565Y-104267000D01*
X134897368Y-104087745D01*
X134837789Y-103917478D01*
X134741816Y-103764738D01*
X134614262Y-103637184D01*
X134461523Y-103541211D01*
X134291254Y-103481631D01*
X134291249Y-103481630D01*
X134112004Y-103461435D01*
X134111996Y-103461435D01*
X133932750Y-103481630D01*
X133932745Y-103481631D01*
X133762476Y-103541211D01*
X133609737Y-103637184D01*
X133482184Y-103764737D01*
X133386211Y-103917476D01*
X133326631Y-104087745D01*
X133326630Y-104087750D01*
X133306435Y-104266996D01*
X130853565Y-104266996D01*
X130833368Y-104087745D01*
X130773789Y-103917478D01*
X130677816Y-103764738D01*
X130550262Y-103637184D01*
X130397523Y-103541211D01*
X130227254Y-103481631D01*
X130227249Y-103481630D01*
X130048004Y-103461435D01*
X130047996Y-103461435D01*
X129868750Y-103481630D01*
X129868745Y-103481631D01*
X129698476Y-103541211D01*
X129545737Y-103637184D01*
X129418184Y-103764737D01*
X129322211Y-103917476D01*
X129262631Y-104087745D01*
X129262630Y-104087750D01*
X129242435Y-104266996D01*
X121031000Y-104266996D01*
X121031000Y-92709996D01*
X125432435Y-92709996D01*
X125432435Y-92710003D01*
X125452630Y-92889249D01*
X125452631Y-92889254D01*
X125512211Y-93059523D01*
X125608184Y-93212262D01*
X125735738Y-93339816D01*
X125888478Y-93435789D01*
X126058745Y-93495368D01*
X126058750Y-93495369D01*
X126237996Y-93515565D01*
X126238000Y-93515565D01*
X126238004Y-93515565D01*
X126417249Y-93495369D01*
X126417252Y-93495368D01*
X126417255Y-93495368D01*
X126587522Y-93435789D01*
X126740262Y-93339816D01*
X126867816Y-93212262D01*
X126963789Y-93059522D01*
X127023368Y-92889255D01*
X127043565Y-92710000D01*
X127043565Y-92709996D01*
X127337435Y-92709996D01*
X127337435Y-92710003D01*
X127357630Y-92889249D01*
X127357631Y-92889254D01*
X127417211Y-93059523D01*
X127513184Y-93212262D01*
X127640738Y-93339816D01*
X127793478Y-93435789D01*
X127963745Y-93495368D01*
X127963750Y-93495369D01*
X128142996Y-93515565D01*
X128143000Y-93515565D01*
X128143004Y-93515565D01*
X128322249Y-93495369D01*
X128322252Y-93495368D01*
X128322255Y-93495368D01*
X128492522Y-93435789D01*
X128645262Y-93339816D01*
X128772816Y-93212262D01*
X128868789Y-93059522D01*
X128928368Y-92889255D01*
X128948565Y-92710000D01*
X128948565Y-92709996D01*
X129369435Y-92709996D01*
X129369435Y-92710003D01*
X129389630Y-92889249D01*
X129389631Y-92889254D01*
X129449211Y-93059523D01*
X129545184Y-93212262D01*
X129672738Y-93339816D01*
X129825478Y-93435789D01*
X129995745Y-93495368D01*
X129995750Y-93495369D01*
X130174996Y-93515565D01*
X130175000Y-93515565D01*
X130175004Y-93515565D01*
X130354249Y-93495369D01*
X130354252Y-93495368D01*
X130354255Y-93495368D01*
X130524522Y-93435789D01*
X130677262Y-93339816D01*
X130804816Y-93212262D01*
X130900789Y-93059522D01*
X130960368Y-92889255D01*
X130980565Y-92710000D01*
X130980565Y-92709996D01*
X131401435Y-92709996D01*
X131401435Y-92710003D01*
X131421630Y-92889249D01*
X131421631Y-92889254D01*
X131481211Y-93059523D01*
X131577184Y-93212262D01*
X131704738Y-93339816D01*
X131857478Y-93435789D01*
X132027745Y-93495368D01*
X132027750Y-93495369D01*
X132206996Y-93515565D01*
X132207000Y-93515565D01*
X132207004Y-93515565D01*
X132386249Y-93495369D01*
X132386252Y-93495368D01*
X132386255Y-93495368D01*
X132556522Y-93435789D01*
X132709262Y-93339816D01*
X132836816Y-93212262D01*
X132932789Y-93059522D01*
X132992368Y-92889255D01*
X133012565Y-92710000D01*
X133012565Y-92709996D01*
X135084435Y-92709996D01*
X135084435Y-92710003D01*
X135104630Y-92889249D01*
X135104631Y-92889254D01*
X135164211Y-93059523D01*
X135260184Y-93212262D01*
X135387738Y-93339816D01*
X135540478Y-93435789D01*
X135710745Y-93495368D01*
X135710750Y-93495369D01*
X135889996Y-93515565D01*
X135890000Y-93515565D01*
X135890004Y-93515565D01*
X136069249Y-93495369D01*
X136069252Y-93495368D01*
X136069255Y-93495368D01*
X136239522Y-93435789D01*
X136392262Y-93339816D01*
X136519816Y-93212262D01*
X136615789Y-93059522D01*
X136675368Y-92889255D01*
X136695565Y-92710000D01*
X136675368Y-92530745D01*
X136615789Y-92360478D01*
X136519816Y-92207738D01*
X136392262Y-92080184D01*
X136239523Y-91984211D01*
X136069254Y-91924631D01*
X136069249Y-91924630D01*
X135890004Y-91904435D01*
X135889996Y-91904435D01*
X135710750Y-91924630D01*
X135710745Y-91924631D01*
X135540476Y-91984211D01*
X135387737Y-92080184D01*
X135260184Y-92207737D01*
X135164211Y-92360476D01*
X135104631Y-92530745D01*
X135104630Y-92530750D01*
X135084435Y-92709996D01*
X133012565Y-92709996D01*
X132992368Y-92530745D01*
X132932789Y-92360478D01*
X132836816Y-92207738D01*
X132709262Y-92080184D01*
X132556523Y-91984211D01*
X132386254Y-91924631D01*
X132386249Y-91924630D01*
X132207004Y-91904435D01*
X132206996Y-91904435D01*
X132027750Y-91924630D01*
X132027745Y-91924631D01*
X131857476Y-91984211D01*
X131704737Y-92080184D01*
X131577184Y-92207737D01*
X131481211Y-92360476D01*
X131421631Y-92530745D01*
X131421630Y-92530750D01*
X131401435Y-92709996D01*
X130980565Y-92709996D01*
X130960368Y-92530745D01*
X130900789Y-92360478D01*
X130804816Y-92207738D01*
X130677262Y-92080184D01*
X130524523Y-91984211D01*
X130354254Y-91924631D01*
X130354249Y-91924630D01*
X130175004Y-91904435D01*
X130174996Y-91904435D01*
X129995750Y-91924630D01*
X129995745Y-91924631D01*
X129825476Y-91984211D01*
X129672737Y-92080184D01*
X129545184Y-92207737D01*
X129449211Y-92360476D01*
X129389631Y-92530745D01*
X129389630Y-92530750D01*
X129369435Y-92709996D01*
X128948565Y-92709996D01*
X128928368Y-92530745D01*
X128868789Y-92360478D01*
X128772816Y-92207738D01*
X128645262Y-92080184D01*
X128492523Y-91984211D01*
X128322254Y-91924631D01*
X128322249Y-91924630D01*
X128143004Y-91904435D01*
X128142996Y-91904435D01*
X127963750Y-91924630D01*
X127963745Y-91924631D01*
X127793476Y-91984211D01*
X127640737Y-92080184D01*
X127513184Y-92207737D01*
X127417211Y-92360476D01*
X127357631Y-92530745D01*
X127357630Y-92530750D01*
X127337435Y-92709996D01*
X127043565Y-92709996D01*
X127023368Y-92530745D01*
X126963789Y-92360478D01*
X126867816Y-92207738D01*
X126740262Y-92080184D01*
X126587523Y-91984211D01*
X126417254Y-91924631D01*
X126417249Y-91924630D01*
X126238004Y-91904435D01*
X126237996Y-91904435D01*
X126058750Y-91924630D01*
X126058745Y-91924631D01*
X125888476Y-91984211D01*
X125735737Y-92080184D01*
X125608184Y-92207737D01*
X125512211Y-92360476D01*
X125452631Y-92530745D01*
X125452630Y-92530750D01*
X125432435Y-92709996D01*
X121031000Y-92709996D01*
X121031000Y-85767304D01*
X132723501Y-85767304D01*
X132723501Y-86444695D01*
X132758104Y-86618658D01*
X132758107Y-86618667D01*
X132825984Y-86782540D01*
X132825991Y-86782553D01*
X132924536Y-86930034D01*
X132924539Y-86930038D01*
X133049962Y-87055461D01*
X133049966Y-87055464D01*
X133197447Y-87154009D01*
X133197460Y-87154016D01*
X133307215Y-87199477D01*
X133361335Y-87221894D01*
X133361337Y-87221894D01*
X133361342Y-87221896D01*
X133535305Y-87256499D01*
X133535308Y-87256500D01*
X133535310Y-87256500D01*
X133712694Y-87256500D01*
X133712695Y-87256499D01*
X133770683Y-87244964D01*
X133886659Y-87221896D01*
X133886662Y-87221894D01*
X133886667Y-87221894D01*
X134050548Y-87154013D01*
X134107835Y-87115733D01*
X134174512Y-87094855D01*
X134240875Y-87112717D01*
X134384394Y-87199478D01*
X134546804Y-87250086D01*
X134617384Y-87256500D01*
X134617387Y-87256500D01*
X135130613Y-87256500D01*
X135130616Y-87256500D01*
X135201196Y-87250086D01*
X135363606Y-87199478D01*
X135509185Y-87111472D01*
X135629472Y-86991185D01*
X135717478Y-86845606D01*
X135768086Y-86683196D01*
X135774500Y-86612616D01*
X135774500Y-85599384D01*
X135768086Y-85528804D01*
X135717478Y-85366394D01*
X135629472Y-85220815D01*
X135629470Y-85220813D01*
X135629469Y-85220811D01*
X135509188Y-85100530D01*
X135363606Y-85012522D01*
X135291659Y-84990103D01*
X135201196Y-84961914D01*
X135201194Y-84961913D01*
X135201192Y-84961913D01*
X135151778Y-84957423D01*
X135130616Y-84955500D01*
X134617384Y-84955500D01*
X134598145Y-84957248D01*
X134546807Y-84961913D01*
X134384391Y-85012523D01*
X134240875Y-85099281D01*
X134173321Y-85117117D01*
X134107837Y-85096267D01*
X134050548Y-85057987D01*
X134050545Y-85057985D01*
X134050541Y-85057983D01*
X133886668Y-84990106D01*
X133886659Y-84990103D01*
X133712695Y-84955500D01*
X133712692Y-84955500D01*
X133535310Y-84955500D01*
X133535307Y-84955500D01*
X133361342Y-84990103D01*
X133361333Y-84990106D01*
X133197460Y-85057983D01*
X133197447Y-85057990D01*
X133049966Y-85156535D01*
X133049962Y-85156538D01*
X132924539Y-85281961D01*
X132924536Y-85281965D01*
X132825991Y-85429446D01*
X132825984Y-85429459D01*
X132758107Y-85593332D01*
X132758104Y-85593341D01*
X132723501Y-85767304D01*
X121031000Y-85767304D01*
X121031000Y-67817996D01*
X136354435Y-67817996D01*
X136354435Y-67818003D01*
X136374630Y-67997249D01*
X136374631Y-67997254D01*
X136434211Y-68167523D01*
X136530184Y-68320262D01*
X136657738Y-68447816D01*
X136810478Y-68543789D01*
X136980745Y-68603368D01*
X136980750Y-68603369D01*
X137159996Y-68623565D01*
X137160000Y-68623565D01*
X137160004Y-68623565D01*
X137339249Y-68603369D01*
X137339252Y-68603368D01*
X137339255Y-68603368D01*
X137509522Y-68543789D01*
X137662262Y-68447816D01*
X137789816Y-68320262D01*
X137885789Y-68167522D01*
X137945368Y-67997255D01*
X137965565Y-67818000D01*
X137945368Y-67638745D01*
X137885789Y-67468478D01*
X137789816Y-67315738D01*
X137662262Y-67188184D01*
X137509523Y-67092211D01*
X137339254Y-67032631D01*
X137339249Y-67032630D01*
X137160004Y-67012435D01*
X137159996Y-67012435D01*
X136980750Y-67032630D01*
X136980745Y-67032631D01*
X136810476Y-67092211D01*
X136657737Y-67188184D01*
X136530184Y-67315737D01*
X136434211Y-67468476D01*
X136374631Y-67638745D01*
X136374630Y-67638750D01*
X136354435Y-67817996D01*
X121031000Y-67817996D01*
X121031000Y-57657996D01*
X124162435Y-57657996D01*
X124162435Y-57658003D01*
X124182630Y-57837249D01*
X124182631Y-57837254D01*
X124242211Y-58007523D01*
X124246148Y-58013788D01*
X124338184Y-58160262D01*
X124465738Y-58287816D01*
X124465743Y-58287819D01*
X124467911Y-58289548D01*
X124468949Y-58291027D01*
X124470662Y-58292740D01*
X124470361Y-58293040D01*
X124508050Y-58346738D01*
X124510898Y-58416549D01*
X124498778Y-58444988D01*
X124499231Y-58445206D01*
X124496210Y-58451478D01*
X124436633Y-58621737D01*
X124436630Y-58621750D01*
X124416435Y-58800996D01*
X124416435Y-58801003D01*
X124436630Y-58980249D01*
X124436631Y-58980254D01*
X124496211Y-59150523D01*
X124561024Y-59253671D01*
X124592184Y-59303262D01*
X124719738Y-59430816D01*
X124872478Y-59526789D01*
X124957454Y-59556523D01*
X125014230Y-59597245D01*
X125039978Y-59662197D01*
X125040500Y-59673565D01*
X125040500Y-61443869D01*
X125040501Y-61443878D01*
X125044679Y-61482745D01*
X125044679Y-61509251D01*
X125040500Y-61548123D01*
X125040500Y-63543870D01*
X125040501Y-63543876D01*
X125046909Y-63603484D01*
X125077097Y-63684425D01*
X125082081Y-63754117D01*
X125048595Y-63815439D01*
X124987272Y-63848924D01*
X124974800Y-63850977D01*
X124915749Y-63857631D01*
X124915745Y-63857631D01*
X124745476Y-63917211D01*
X124592737Y-64013184D01*
X124465184Y-64140737D01*
X124369211Y-64293476D01*
X124309631Y-64463745D01*
X124309630Y-64463750D01*
X124289435Y-64642996D01*
X124289435Y-64643003D01*
X124309630Y-64822249D01*
X124309631Y-64822254D01*
X124369211Y-64992523D01*
X124465184Y-65145262D01*
X124592738Y-65272816D01*
X124745478Y-65368789D01*
X124915745Y-65428368D01*
X124915750Y-65428369D01*
X125094996Y-65448565D01*
X125095000Y-65448565D01*
X125095004Y-65448565D01*
X125274249Y-65428369D01*
X125274252Y-65428368D01*
X125274255Y-65428368D01*
X125444522Y-65368789D01*
X125589018Y-65277996D01*
X136354435Y-65277996D01*
X136354435Y-65278003D01*
X136374630Y-65457249D01*
X136374631Y-65457254D01*
X136434211Y-65627523D01*
X136530184Y-65780262D01*
X136657738Y-65907816D01*
X136810478Y-66003789D01*
X136980745Y-66063368D01*
X136980750Y-66063369D01*
X137159996Y-66083565D01*
X137160000Y-66083565D01*
X137160004Y-66083565D01*
X137339249Y-66063369D01*
X137339252Y-66063368D01*
X137339255Y-66063368D01*
X137509522Y-66003789D01*
X137662262Y-65907816D01*
X137789816Y-65780262D01*
X137885789Y-65627522D01*
X137945368Y-65457255D01*
X137965565Y-65278000D01*
X137950609Y-65145262D01*
X137945369Y-65098750D01*
X137945368Y-65098745D01*
X137885788Y-64928476D01*
X137846582Y-64866080D01*
X137789816Y-64775738D01*
X137662262Y-64648184D01*
X137509523Y-64552211D01*
X137339254Y-64492631D01*
X137339249Y-64492630D01*
X137160004Y-64472435D01*
X137159996Y-64472435D01*
X136980750Y-64492630D01*
X136980745Y-64492631D01*
X136810476Y-64552211D01*
X136657737Y-64648184D01*
X136530184Y-64775737D01*
X136434211Y-64928476D01*
X136374631Y-65098745D01*
X136374630Y-65098750D01*
X136354435Y-65277996D01*
X125589018Y-65277996D01*
X125597262Y-65272816D01*
X125724816Y-65145262D01*
X125820789Y-64992522D01*
X125880368Y-64822255D01*
X125885609Y-64775738D01*
X125900565Y-64643003D01*
X125900565Y-64642996D01*
X125880369Y-64463750D01*
X125880368Y-64463745D01*
X125820788Y-64293476D01*
X125753552Y-64186471D01*
X125734552Y-64119234D01*
X125754920Y-64052399D01*
X125808187Y-64007185D01*
X125858546Y-63996499D01*
X127888871Y-63996499D01*
X127888872Y-63996499D01*
X127948483Y-63990091D01*
X128083331Y-63939796D01*
X128198546Y-63853546D01*
X128284796Y-63738331D01*
X128335091Y-63603483D01*
X128341500Y-63543873D01*
X128341500Y-62737996D01*
X136354435Y-62737996D01*
X136354435Y-62738003D01*
X136374630Y-62917249D01*
X136374631Y-62917254D01*
X136434211Y-63087523D01*
X136530184Y-63240262D01*
X136657738Y-63367816D01*
X136810478Y-63463789D01*
X136980745Y-63523368D01*
X136980750Y-63523369D01*
X137159996Y-63543565D01*
X137160000Y-63543565D01*
X137160004Y-63543565D01*
X137339249Y-63523369D01*
X137339252Y-63523368D01*
X137339255Y-63523368D01*
X137509522Y-63463789D01*
X137662262Y-63367816D01*
X137789816Y-63240262D01*
X137885789Y-63087522D01*
X137945368Y-62917255D01*
X137965565Y-62738000D01*
X137945368Y-62558745D01*
X137885789Y-62388478D01*
X137789816Y-62235738D01*
X137662262Y-62108184D01*
X137509523Y-62012211D01*
X137339254Y-61952631D01*
X137339249Y-61952630D01*
X137160004Y-61932435D01*
X137159996Y-61932435D01*
X136980750Y-61952630D01*
X136980745Y-61952631D01*
X136810476Y-62012211D01*
X136657737Y-62108184D01*
X136530184Y-62235737D01*
X136434211Y-62388476D01*
X136374631Y-62558745D01*
X136374630Y-62558750D01*
X136354435Y-62737996D01*
X128341500Y-62737996D01*
X128341499Y-61548128D01*
X128341499Y-61548127D01*
X128341498Y-61548111D01*
X128337320Y-61509253D01*
X128337320Y-61482745D01*
X128341500Y-61443873D01*
X128341499Y-59448128D01*
X128335091Y-59388517D01*
X128284796Y-59253669D01*
X128284795Y-59253668D01*
X128284793Y-59253664D01*
X128198547Y-59138455D01*
X128198544Y-59138452D01*
X128083335Y-59052206D01*
X128083328Y-59052202D01*
X127948482Y-59001908D01*
X127948483Y-59001908D01*
X127888883Y-58995501D01*
X127888881Y-58995500D01*
X127888873Y-58995500D01*
X127888865Y-58995500D01*
X126144406Y-58995500D01*
X126077367Y-58975815D01*
X126031612Y-58923011D01*
X126021186Y-58857616D01*
X126027565Y-58801002D01*
X126027565Y-58800996D01*
X126007369Y-58621750D01*
X126007368Y-58621745D01*
X125947788Y-58451476D01*
X125851815Y-58298737D01*
X125724260Y-58171182D01*
X125722087Y-58169449D01*
X125721051Y-58167973D01*
X125719338Y-58166260D01*
X125719638Y-58165959D01*
X125681948Y-58112260D01*
X125679101Y-58042448D01*
X125691225Y-58014006D01*
X125690771Y-58013788D01*
X125693788Y-58007523D01*
X125693789Y-58007522D01*
X125753368Y-57837255D01*
X125773565Y-57658000D01*
X125753368Y-57478745D01*
X125693789Y-57308478D01*
X125597816Y-57155738D01*
X125470262Y-57028184D01*
X125317523Y-56932211D01*
X125147254Y-56872631D01*
X125147249Y-56872630D01*
X124968004Y-56852435D01*
X124967996Y-56852435D01*
X124788750Y-56872630D01*
X124788745Y-56872631D01*
X124618476Y-56932211D01*
X124465737Y-57028184D01*
X124338184Y-57155737D01*
X124242211Y-57308476D01*
X124182631Y-57478745D01*
X124182630Y-57478750D01*
X124162435Y-57657996D01*
X121031000Y-57657996D01*
X121031000Y-55125996D01*
X124154435Y-55125996D01*
X124154435Y-55126003D01*
X124174630Y-55305249D01*
X124174631Y-55305254D01*
X124234211Y-55475523D01*
X124330184Y-55628262D01*
X124457738Y-55755816D01*
X124610478Y-55851789D01*
X124780745Y-55911368D01*
X124780750Y-55911369D01*
X124959996Y-55931565D01*
X124960000Y-55931565D01*
X124960004Y-55931565D01*
X125139249Y-55911369D01*
X125139252Y-55911368D01*
X125139255Y-55911368D01*
X125309522Y-55851789D01*
X125462262Y-55755816D01*
X125589816Y-55628262D01*
X125685789Y-55475522D01*
X125745368Y-55305255D01*
X125765565Y-55126000D01*
X125745368Y-54946745D01*
X125685789Y-54776478D01*
X125589816Y-54623738D01*
X125462262Y-54496184D01*
X125309523Y-54400211D01*
X125139254Y-54340631D01*
X125139249Y-54340630D01*
X124960004Y-54320435D01*
X124959996Y-54320435D01*
X124780750Y-54340630D01*
X124780745Y-54340631D01*
X124610476Y-54400211D01*
X124457737Y-54496184D01*
X124330184Y-54623737D01*
X124234211Y-54776476D01*
X124174631Y-54946745D01*
X124174630Y-54946750D01*
X124154435Y-55125996D01*
X121031000Y-55125996D01*
X121031000Y-52967772D01*
X121050685Y-52900733D01*
X121103489Y-52854978D01*
X121172647Y-52845034D01*
X121220973Y-52862779D01*
X121316475Y-52922788D01*
X121486745Y-52982368D01*
X121486750Y-52982369D01*
X121665996Y-53002565D01*
X121666000Y-53002565D01*
X121666004Y-53002565D01*
X121845249Y-52982369D01*
X121845252Y-52982368D01*
X121845255Y-52982368D01*
X122015522Y-52922789D01*
X122168262Y-52826816D01*
X122295816Y-52699262D01*
X122391789Y-52546522D01*
X122451368Y-52376255D01*
X122471565Y-52197000D01*
X122451368Y-52017745D01*
X122391789Y-51847478D01*
X122295816Y-51694738D01*
X122168262Y-51567184D01*
X122160602Y-51562371D01*
X122015523Y-51471211D01*
X121845254Y-51411631D01*
X121845249Y-51411630D01*
X121666004Y-51391435D01*
X121665996Y-51391435D01*
X121486750Y-51411630D01*
X121486745Y-51411631D01*
X121316475Y-51471211D01*
X121297356Y-51483225D01*
X121230119Y-51502224D01*
X121163284Y-51481855D01*
X121118071Y-51428586D01*
X121108835Y-51359330D01*
X121122027Y-51319779D01*
X121147427Y-51272259D01*
X121160930Y-51252050D01*
X121241137Y-51154316D01*
X121258316Y-51137137D01*
X121356052Y-51056928D01*
X121376261Y-51043426D01*
X121487757Y-50983830D01*
X121510202Y-50974532D01*
X121631200Y-50937828D01*
X121655024Y-50933089D01*
X121786939Y-50920097D01*
X121799093Y-50919500D01*
X121858892Y-50919500D01*
X140396108Y-50919500D01*
X140455907Y-50919500D01*
X140468061Y-50920097D01*
G37*
%TD.AperFunction*%
%TD*%
M02*
