%TF.GenerationSoftware,KiCad,Pcbnew,8.0.6*%
%TF.CreationDate,2024-11-08T20:03:32-06:00*%
%TF.ProjectId,lora micronode,6c6f7261-206d-4696-9372-6f6e6f64652e,rev?*%
%TF.SameCoordinates,Original*%
%TF.FileFunction,Paste,Top*%
%TF.FilePolarity,Positive*%
%FSLAX46Y46*%
G04 Gerber Fmt 4.6, Leading zero omitted, Abs format (unit mm)*
G04 Created by KiCad (PCBNEW 8.0.6) date 2024-11-08 20:03:32*
%MOMM*%
%LPD*%
G01*
G04 APERTURE LIST*
G04 Aperture macros list*
%AMRoundRect*
0 Rectangle with rounded corners*
0 $1 Rounding radius*
0 $2 $3 $4 $5 $6 $7 $8 $9 X,Y pos of 4 corners*
0 Add a 4 corners polygon primitive as box body*
4,1,4,$2,$3,$4,$5,$6,$7,$8,$9,$2,$3,0*
0 Add four circle primitives for the rounded corners*
1,1,$1+$1,$2,$3*
1,1,$1+$1,$4,$5*
1,1,$1+$1,$6,$7*
1,1,$1+$1,$8,$9*
0 Add four rect primitives between the rounded corners*
20,1,$1+$1,$2,$3,$4,$5,0*
20,1,$1+$1,$4,$5,$6,$7,0*
20,1,$1+$1,$6,$7,$8,$9,0*
20,1,$1+$1,$8,$9,$2,$3,0*%
G04 Aperture macros list end*
%ADD10RoundRect,0.412500X2.087500X-0.412500X2.087500X0.412500X-2.087500X0.412500X-2.087500X-0.412500X0*%
%ADD11R,3.000000X2.000000*%
%ADD12C,1.500000*%
%ADD13R,1.300000X2.300000*%
%ADD14RoundRect,0.250000X-0.300000X-0.300000X0.300000X-0.300000X0.300000X0.300000X-0.300000X0.300000X0*%
%ADD15RoundRect,0.250000X0.412500X0.650000X-0.412500X0.650000X-0.412500X-0.650000X0.412500X-0.650000X0*%
%ADD16R,1.500000X2.000000*%
G04 APERTURE END LIST*
D10*
%TO.C,J1*%
X138448000Y-82926000D03*
X138448000Y-80396000D03*
X138448000Y-77856000D03*
X138448000Y-75316000D03*
%TD*%
D11*
%TO.C,U2*%
X122691000Y-55126000D03*
X122691000Y-57666000D03*
X122691000Y-60206000D03*
X122691000Y-62746000D03*
X122691000Y-65286000D03*
X122691000Y-67826000D03*
X122691000Y-70366000D03*
X139691000Y-70366000D03*
X139691000Y-67826000D03*
X139691000Y-65286000D03*
X139691000Y-62746000D03*
X139691000Y-60206000D03*
X139691000Y-57666000D03*
X139691000Y-55126000D03*
D12*
X129921000Y-54356000D03*
X132461000Y-54356000D03*
X129921000Y-56896000D03*
X132461000Y-56896000D03*
D13*
X134991000Y-71996000D03*
X136891000Y-71996000D03*
%TD*%
D14*
%TO.C,D1*%
X126743000Y-86106000D03*
X129543000Y-86106000D03*
%TD*%
D15*
%TO.C,C2*%
X128816500Y-109220000D03*
X125691500Y-109220000D03*
%TD*%
D16*
%TO.C,U1*%
X124318000Y-106679000D03*
X126318000Y-106679000D03*
X128318000Y-106679000D03*
X130318000Y-106679000D03*
X132318000Y-106679000D03*
X134318000Y-106679000D03*
X136318000Y-106679000D03*
X138318000Y-106679000D03*
X138318000Y-90679000D03*
X136318000Y-90679000D03*
X134318000Y-90679000D03*
X132318000Y-90679000D03*
X130318000Y-90679000D03*
X128318000Y-90679000D03*
X126318000Y-90679000D03*
X124318000Y-90679000D03*
%TD*%
M02*
