M48
; DRILL file {KiCad 8.0.6} date 2024-11-08T20:03:35-0600
; FORMAT={-:-/ absolute / inch / decimal}
; #@! TF.CreationDate,2024-11-08T20:03:35-06:00
; #@! TF.GenerationSoftware,Kicad,Pcbnew,8.0.6
; #@! TF.FileFunction,Plated,1,4,PTH
FMAT,2
INCH
; #@! TA.AperFunction,Plated,PTH,ViaDrill
T1C0.0118
; #@! TA.AperFunction,Plated,PTH,ComponentDrill
T2C0.0197
; #@! TA.AperFunction,Plated,PTH,ComponentDrill
T3C0.0394
; #@! TA.AperFunction,Plated,PTH,ComponentDrill
T4C0.0591
%
G90
G05
T1
X4.79Y-2.055
X4.865Y-4.265
X4.9197Y-2.1703
X4.92Y-2.27
X4.925Y-2.545
X4.93Y-2.315
X4.97Y-3.65
X4.99Y-4.3
X5.045Y-3.65
X5.045Y-4.135
X5.045Y-4.26
X5.12Y-4.105
X5.125Y-3.65
X5.135Y-4.3
X5.205Y-3.65
X5.28Y-4.105
X5.35Y-3.65
X5.375Y-2.33
X5.3975Y-2.3525
X5.4Y-2.47
X5.4Y-2.57
X5.4Y-2.67
X5.42Y-2.3703
X5.53Y-4.325
X5.535Y-2.055
T2
X5.2608Y-3.39
X5.31Y-3.39
T3
X4.9043Y-4.67
X5.42Y-4.67
T4
X4.9878Y-2.3798
X4.9878Y-2.4624
M30
