  0
SECTION
  2
HEADER
  9
$ACADVER
  1
AC1014
  9
$HANDSEED
  5
FFFF
  9
$MEASUREMENT
 70
     1
  0
ENDSEC
  0
SECTION
  2
TABLES
  0
TABLE
  2
VPORT
  5
8
330
0
100
AcDbSymbolTable
 70
     4
  0
VPORT
  5
2E
330
8
100
AcDbSymbolTableRecord
100
AcDbViewportTableRecord
  2
*ACTIVE
 70
     0
 10
0.0
 20
0.0
 11
1.0
 21
1.0
 12
210.0
 22
148.5
 13
0.0
 23
0.0
 14
10.0
 24
10.0
 15
10.0
 25
10.0
 16
0.0
 26
0.0
 36
1.0
 17
0.0
 27
0.0
 37
0.0
 40
341.0
 41
1.24
 42
50.0
 43
0.0
 44
0.0
 50
0.0
 51
0.0
 71
     0
 72
   100
 73
     1
 74
     3
 75
     0
 76
     0
 77
     0
 78
     0
  0
ENDTAB
  0
TABLE
  2
LTYPE
  5
5
330
0
100
AcDbSymbolTable
 70
     1
  0
LTYPE
  5
14
330
5
100
AcDbSymbolTableRecord
100
AcDbLinetypeTableRecord
  2
BYBLOCK
 70
     0
  3

 72
    65
 73
     0
 40
0.0
  0
LTYPE
  5
15
330
5
100
AcDbSymbolTableRecord
100
AcDbLinetypeTableRecord
  2
BYLAYER
 70
     0
  3

 72
    65
 73
     0
 40
0.0
  0
LTYPE
  5
16
330
5
100
AcDbSymbolTableRecord
100
AcDbLinetypeTableRecord
  2
CONTINUOUS
 70
     0
  3
Solid line
 72
    65
 73
     0
 40
0.0
  0
ENDTAB
  0
TABLE
  2
LAYER
  5
2
100
AcDbSymbolTable
 70
2
  0
LAYER
  5
50
100
AcDbSymbolTableRecord
100
AcDbLayerTableRecord
  2
0
 70
0
  6
CONTINUOUS
  0
LAYER
  5
51
100
AcDbSymbolTableRecord
100
AcDbLayerTableRecord
  2
Layer_1
 70
0
  6
CONTINUOUS
  0
ENDTAB
  0
TABLE
  2
STYLE
  5
3
330
0
100
AcDbSymbolTable
 70
     1
  0
STYLE
  5
11
330
3
100
AcDbSymbolTableRecord
100
AcDbTextStyleTableRecord
  2
STANDARD
 70
     0
 40
0.0
 41
1.0
 50
0.0
 71
     0
 42
2.5
  3
txt
  4

  0
ENDTAB
  0
TABLE
  2
VIEW
  5
6
330
0
100
AcDbSymbolTable
 70
     0
  0
ENDTAB
  0
TABLE
  2
UCS
  5
7
330
0
100
AcDbSymbolTable
 70
     0
  0
ENDTAB
  0
TABLE
  2
APPID
  5
9
330
0
100
AcDbSymbolTable
 70
     2
  0
APPID
  5
12
330
9
100
AcDbSymbolTableRecord
100
AcDbRegAppTableRecord
  2
ACAD
 70
     0
  0
ENDTAB
  0
TABLE
  2
DIMSTYLE
  5
A
330
0
100
AcDbSymbolTable
 70
     1
  0
DIMSTYLE
105
27
330
A
100
AcDbSymbolTableRecord
100
AcDbDimStyleTableRecord
  2
ISO-25
 70
     0
  3

  4

  5

  6

  7

 40
1.0
 41
2.5
 42
0.625
 43
3.75
 44
1.25
 45
0.0
 46
0.0
 47
0.0
 48
0.0
140
2.5
141
2.5
142
0.0
143
0.03937007874016
144
1.0
145
0.0
146
1.0
147
0.625
 71
     0
 72
     0
 73
     0
 74
     0
 75
     0
 76
     0
 77
     1
 78
     8
170
     0
171
     3
172
     1
173
     0
174
     0
175
     0
176
     0
177
     0
178
     0
270
     2
271
     2
272
     2
273
     2
274
     3
340
11
275
     0
280
     0
281
     0
282
     0
283
     0
284
     8
285
     0
286
     0
287
     3
288
     0
  0
ENDTAB
  0
TABLE
  2
BLOCK_RECORD
  5
1
330
0
100
AcDbSymbolTable
 70
     1
  0
BLOCK_RECORD
  5
1F
330
1
100
AcDbSymbolTableRecord
100
AcDbBlockTableRecord
  2
*MODEL_SPACE
  0
BLOCK_RECORD
  5
1B
330
1
100
AcDbSymbolTableRecord
100
AcDbBlockTableRecord
  2
*PAPER_SPACE
  0
ENDTAB
  0
ENDSEC
  0
SECTION
  2
BLOCKS
  0
BLOCK
  5
20
330
1F
100
AcDbEntity
  8
0
100
AcDbBlockBegin
  2
*MODEL_SPACE
 70
     0
 10
0.0
 20
0.0
 30
0.0
  3
*MODEL_SPACE
  1

  0
ENDBLK
  5
21
330
1F
100
AcDbEntity
  8
0
100
AcDbBlockEnd
  0
BLOCK
  5
1C
330
1B
100
AcDbEntity
 67
     1
  8
0
100
AcDbBlockBegin
  2
*PAPER_SPACE
  1

  0
ENDBLK
  5
1D
330
1B
100
AcDbEntity
 67
     1
  8
0
100
AcDbBlockEnd
  0
ENDSEC
  0
SECTION
  2
ENTITIES
  0
LWPOLYLINE
  5
100
100
AcDbEntity
  8
Layer_1
 62
7
100
AcDbPolyline
 90
4
 70
1
 10
0.000000
 20
42.519685
 30
0.0
 10
42.519660
 20
42.519685
 30
0.0
 10
42.519660
 20
0.000025
 30
0.0
 10
0.000000
 20
0.000025
 30
0.0
  0
SPLINE
  5
101
100
AcDbEntity
  8
Layer_1
 62
7
100
AcDbSpline
 70
8
 71
3
 72
8
 73
4
 74
0
 40
0
 40
0
 40
0
 40
0
 40
1
 40
1
 40
1
 40
1
 10
37.423473
 20
40.971344
 30
0.0
 10
38.613021
 20
40.971344
 30
0.0
 10
39.753848
 20
40.498798
 30
0.0
 10
40.594986
 20
39.657661
 30
0.0
  0
SPLINE
  5
102
100
AcDbEntity
  8
Layer_1
 62
7
100
AcDbSpline
 70
8
 71
3
 72
8
 73
4
 74
0
 40
0
 40
0
 40
0
 40
0
 40
1
 40
1
 40
1
 40
1
 10
40.594986
 20
39.657661
 30
0.0
 10
41.436123
 20
38.816523
 30
0.0
 10
41.908669
 20
37.675696
 30
0.0
 10
41.908669
 20
36.486148
 30
0.0
  0
LWPOLYLINE
  5
103
100
AcDbEntity
  8
Layer_1
 62
7
100
AcDbPolyline
 90
2
 70
0
 10
5.329021
 20
40.971344
 30
0.0
 10
37.423473
 20
40.971344
 30
0.0
  0
SPLINE
  5
104
100
AcDbEntity
  8
Layer_1
 62
7
100
AcDbSpline
 70
8
 71
3
 72
8
 73
4
 74
0
 40
0
 40
0
 40
0
 40
0
 40
1
 40
1
 40
1
 40
1
 10
41.908669
 20
5.873739
 30
0.0
 10
41.908666
 20
3.396635
 30
0.0
 10
39.900576
 20
1.388548
 30
0.0
 10
37.423473
 20
1.388548
 30
0.0
  0
LWPOLYLINE
  5
105
100
AcDbEntity
  8
Layer_1
 62
7
100
AcDbPolyline
 90
2
 70
0
 10
41.908669
 20
36.486148
 30
0.0
 10
41.908669
 20
5.873739
 30
0.0
  0
SPLINE
  5
106
100
AcDbEntity
  8
Layer_1
 62
7
100
AcDbSpline
 70
8
 71
3
 72
8
 73
4
 74
0
 40
0
 40
0
 40
0
 40
0
 40
1
 40
1
 40
1
 40
1
 10
5.329021
 20
1.388548
 30
0.0
 10
2.851917
 20
1.388548
 30
0.0
 10
0.843827
 20
3.396635
 30
0.0
 10
0.843825
 20
5.873739
 30
0.0
  0
LWPOLYLINE
  5
107
100
AcDbEntity
  8
Layer_1
 62
7
100
AcDbPolyline
 90
2
 70
0
 10
37.423473
 20
1.388548
 30
0.0
 10
5.329021
 20
1.388548
 30
0.0
  0
SPLINE
  5
108
100
AcDbEntity
  8
Layer_1
 62
7
100
AcDbSpline
 70
8
 71
3
 72
8
 73
4
 74
0
 40
0
 40
0
 40
0
 40
0
 40
1
 40
1
 40
1
 40
1
 10
0.843825
 20
36.486148
 30
0.0
 10
0.843825
 20
37.675696
 30
0.0
 10
1.316371
 20
38.816523
 30
0.0
 10
2.157508
 20
39.657661
 30
0.0
  0
SPLINE
  5
109
100
AcDbEntity
  8
Layer_1
 62
7
100
AcDbSpline
 70
8
 71
3
 72
8
 73
4
 74
0
 40
0
 40
0
 40
0
 40
0
 40
1
 40
1
 40
1
 40
1
 10
2.157508
 20
39.657661
 30
0.0
 10
2.998645
 20
40.498798
 30
0.0
 10
4.139473
 20
40.971344
 30
0.0
 10
5.329021
 20
40.971344
 30
0.0
  0
LWPOLYLINE
  5
10a
100
AcDbEntity
  8
Layer_1
 62
7
100
AcDbPolyline
 90
2
 70
0
 10
0.843825
 20
5.873739
 30
0.0
 10
0.843825
 20
36.486148
 30
0.0
  0
LWPOLYLINE
  5
10b
100
AcDbEntity
  8
Layer_1
 62
7
100
AcDbPolyline
 90
1
 70
1
 10
5.329021
 20
40.971344
 30
0.0
  0
SPLINE
  5
10c
100
AcDbEntity
  8
Layer_1
 62
7
100
AcDbSpline
 70
8
 71
3
 72
8
 73
4
 74
0
 40
0
 40
0
 40
0
 40
0
 40
1
 40
1
 40
1
 40
1
 10
2.637903
 20
5.873739
 30
0.0
 10
2.637906
 20
4.387478
 30
0.0
 10
3.842759
 20
3.182626
 30
0.0
 10
5.329021
 20
3.182626
 30
0.0
  0
LWPOLYLINE
  5
10d
100
AcDbEntity
  8
Layer_1
 62
7
100
AcDbPolyline
 90
3
 70
0
 10
40.114591
 20
16.619727
 30
0.0
 10
2.637903
 20
16.619727
 30
0.0
 10
2.637903
 20
5.873739
 30
0.0
  0
SPLINE
  5
10e
100
AcDbEntity
  8
Layer_1
 62
7
100
AcDbSpline
 70
8
 71
3
 72
8
 73
4
 74
0
 40
0
 40
0
 40
0
 40
0
 40
1
 40
1
 40
1
 40
1
 10
37.423473
 20
3.182626
 30
0.0
 10
38.909734
 20
3.182626
 30
0.0
 10
40.114588
 20
4.387478
 30
0.0
 10
40.114591
 20
5.873739
 30
0.0
  0
LWPOLYLINE
  5
10f
100
AcDbEntity
  8
Layer_1
 62
7
100
AcDbPolyline
 90
2
 70
0
 10
5.329021
 20
3.182626
 30
0.0
 10
37.423473
 20
3.182626
 30
0.0
  0
LWPOLYLINE
  5
110
100
AcDbEntity
  8
Layer_1
 62
7
100
AcDbPolyline
 90
2
 70
0
 10
40.114591
 20
5.873739
 30
0.0
 10
40.114591
 20
16.619727
 30
0.0
  0
LWPOLYLINE
  5
111
100
AcDbEntity
  8
Layer_1
 62
7
100
AcDbPolyline
 90
49
 70
1
 10
5.130518
 20
13.812103
 30
0.0
 10
5.130518
 20
13.812103
 30
0.0
 10
5.695316
 20
13.912572
 30
0.0
 10
6.266380
 20
13.968188
 30
0.0
 10
6.266380
 20
13.968188
 30
0.0
 10
6.839812
 20
13.996893
 30
0.0
 10
7.413890
 20
14.007963
 30
0.0
 10
7.413890
 20
14.007963
 30
0.0
 10
8.122085
 20
13.981052
 30
0.0
 10
8.470816
 20
13.946964
 30
0.0
 10
8.813108
 20
13.887760
 30
0.0
 10
9.146943
 20
13.794468
 30
0.0
 10
9.472746
 20
13.670676
 30
0.0
 10
9.793142
 20
13.525356
 30
0.0
 10
10.110833
 20
13.369271
 30
0.0
 10
10.110833
 20
13.369271
 30
0.0
 10
10.325430
 20
13.166002
 30
0.0
 10
10.527106
 20
12.956453
 30
0.0
 10
10.702944
 20
12.734347
 30
0.0
 10
10.777129
 20
12.615937
 30
0.0
 10
10.840047
 20
12.492146
 30
0.0
 10
10.891466
 20
12.362972
 30
0.0
 10
10.932747
 20
12.228416
 30
0.0
 10
10.990696
 20
11.949258
 30
0.0
 10
11.025465
 20
11.658797
 30
0.0
 10
11.048645
 20
11.362594
 30
0.0
 10
11.048645
 20
11.362594
 30
0.0
 10
11.033551
 20
11.048092
 30
0.0
 10
10.993579
 20
10.738973
 30
0.0
 10
10.909885
 20
10.439182
 30
0.0
 10
10.798186
 20
10.145312
 30
0.0
 10
10.798186
 20
10.145312
 30
0.0
 10
10.654122
 20
9.905085
 30
0.0
 10
10.489282
 20
9.683157
 30
0.0
 10
10.289974
 20
9.491550
 30
0.0
 10
10.070085
 20
9.317524
 30
0.0
 10
10.070085
 20
9.317524
 30
0.0
 10
9.794428
 20
9.161439
 30
0.0
 10
9.509943
 20
9.026884
 30
0.0
 10
9.211503
 20
8.926415
 30
0.0
 10
8.905073
 20
8.845682
 30
0.0
 10
8.905073
 20
8.845682
 30
0.0
 10
8.514832
 20
8.777507
 30
0.0
 10
8.122914
 20
8.727272
 30
0.0
 10
7.728374
 20
8.702155
 30
0.0
 10
7.332342
 20
8.692970
 30
0.0
 10
6.598401
 20
8.692970
 30
0.0
 10
6.598401
 20
5.850398
 30
0.0
 10
5.130518
 20
5.850398
 30
0.0
  0
LWPOLYLINE
  5
112
100
AcDbEntity
  8
Layer_1
 62
7
100
AcDbPolyline
 90
65
 70
1
 10
36.369612
 20
13.025741
 30
0.0
 10
36.369612
 20
13.025741
 30
0.0
 10
36.654117
 20
12.743891
 30
0.0
 10
36.787237
 20
12.596777
 30
0.0
 10
36.909414
 20
12.440692
 30
0.0
 10
37.018315
 20
12.275637
 30
0.0
 10
37.116630
 20
12.103405
 30
0.0
 10
37.295679
 20
11.744948
 30
0.0
 10
37.295679
 20
11.744948
 30
0.0
 10
37.441538
 20
11.295173
 30
0.0
 10
37.502895
 20
11.068222
 30
0.0
 10
37.550618
 20
10.838759
 30
0.0
 10
37.582552
 20
10.606247
 30
0.0
 10
37.602466
 20
10.371581
 30
0.0
 10
37.621843
 20
9.898483
 30
0.0
 10
37.621843
 20
9.898483
 30
0.0
 10
37.601928
 20
9.431305
 30
0.0
 10
37.581835
 20
9.199510
 30
0.0
 10
37.549721
 20
8.970047
 30
0.0
 10
37.501998
 20
8.743455
 30
0.0
 10
37.440820
 20
8.519375
 30
0.0
 10
37.295679
 20
8.075340
 30
0.0
 10
37.295679
 20
8.075340
 30
0.0
 10
37.115823
 20
7.714910
 30
0.0
 10
37.017148
 20
7.540884
 30
0.0
 10
36.908068
 20
7.374035
 30
0.0
 10
36.786071
 20
7.216156
 30
0.0
 10
36.653309
 20
7.067248
 30
0.0
 10
36.369648
 20
6.781451
 30
0.0
 10
36.369648
 20
6.781451
 30
0.0
 10
36.037277
 20
6.535483
 30
0.0
 10
35.866121
 20
6.422456
 30
0.0
 10
35.688867
 20
6.320193
 30
0.0
 10
35.504543
 20
6.230489
 30
0.0
 10
35.314532
 20
6.151550
 30
0.0
 10
34.925038
 20
6.011612
 30
0.0
 10
34.925038
 20
6.011612
 30
0.0
 10
34.463995
 20
5.902173
 30
0.0
 10
33.999365
 20
5.819645
 30
0.0
 10
33.528958
 20
5.778382
 30
0.0
 10
33.055231
 20
5.761697
 30
0.0
 10
33.055231
 20
5.761697
 30
0.0
 10
32.501543
 20
5.773556
 30
0.0
 10
31.948500
 20
5.802261
 30
0.0
 10
31.948500
 20
5.802261
 30
0.0
 10
31.356795
 20
5.863259
 30
0.0
 10
30.771854
 20
5.970904
 30
0.0
 10
30.771854
 20
13.811260
 30
0.0
 10
30.771854
 20
13.811260
 30
0.0
 10
31.362500
 20
13.918905
 30
0.0
 10
31.960126
 20
13.974521
 30
0.0
 10
31.960126
 20
13.974521
 30
0.0
 10
32.519089
 20
13.999638
 30
0.0
 10
33.078518
 20
14.009452
 30
0.0
 10
33.078518
 20
14.009452
 30
0.0
 10
33.547365
 20
13.993521
 30
0.0
 10
34.013143
 20
13.954051
 30
0.0
 10
34.473648
 20
13.875111
 30
0.0
 10
34.930850
 20
13.771055
 30
0.0
 10
34.930850
 20
13.771055
 30
0.0
 10
35.318013
 20
13.636499
 30
0.0
 10
35.507001
 20
13.561148
 30
0.0
 10
35.690481
 20
13.475032
 30
0.0
 10
35.867019
 20
13.376358
 30
0.0
 10
36.037815
 20
13.265125
 30
0.0
  0
LWPOLYLINE
  5
113
100
AcDbEntity
  8
Layer_1
 62
7
100
AcDbPolyline
 90
36
 70
1
 10
8.940023
 20
12.460714
 30
0.0
 10
8.940023
 20
12.460714
 30
0.0
 10
8.787796
 20
12.534271
 30
0.0
 10
8.631890
 20
12.597064
 30
0.0
 10
8.305101
 20
12.677797
 30
0.0
 10
8.305101
 20
12.677797
 30
0.0
 10
7.913322
 20
12.726237
 30
0.0
 10
7.518735
 20
12.741308
 30
0.0
 10
7.518735
 20
12.741308
 30
0.0
 10
7.058134
 20
12.734490
 30
0.0
 10
6.598396
 20
12.705785
 30
0.0
 10
6.598396
 20
9.956413
 30
0.0
 10
7.309037
 20
9.956413
 30
0.0
 10
7.309037
 20
9.956413
 30
0.0
 10
7.729184
 20
9.967914
 30
0.0
 10
7.937311
 20
9.983504
 30
0.0
 10
8.143104
 20
10.010415
 30
0.0
 10
8.345821
 20
10.053473
 30
0.0
 10
8.545563
 20
10.110884
 30
0.0
 10
8.940018
 20
10.252616
 30
0.0
 10
8.940018
 20
10.252616
 30
0.0
 10
9.199203
 20
10.471135
 30
0.0
 10
9.307691
 20
10.591338
 30
0.0
 10
9.390954
 20
10.725894
 30
0.0
 10
9.446194
 20
10.874802
 30
0.0
 10
9.479779
 20
11.036269
 30
0.0
 10
9.510852
 20
11.377324
 30
0.0
 10
9.510852
 20
11.377324
 30
0.0
 10
9.502036
 20
11.549555
 30
0.0
 10
9.478085
 20
11.718199
 30
0.0
 10
9.427385
 20
11.881460
 30
0.0
 10
9.359407
 20
12.041133
 30
0.0
 10
9.359407
 20
12.041133
 30
0.0
 10
9.274583
 20
12.166718
 30
0.0
 10
9.178833
 20
12.279745
 30
0.0
 10
9.064873
 20
12.374831
 30
0.0
  0
LWPOLYLINE
  5
114
100
AcDbEntity
  8
Layer_1
 62
7
100
AcDbPolyline
 90
40
 70
1
 10
33.171726
 20
12.740321
 30
0.0
 10
33.171726
 20
12.740321
 30
0.0
 10
32.705194
 20
12.735351
 30
0.0
 10
32.239738
 20
12.704852
 30
0.0
 10
32.239738
 20
7.066316
 30
0.0
 10
32.239738
 20
7.066316
 30
0.0
 10
32.577581
 20
7.048842
 30
0.0
 10
32.577581
 20
7.048842
 30
0.0
 10
33.148421
 20
7.043011
 30
0.0
 10
33.148421
 20
7.043011
 30
0.0
 10
33.755232
 20
7.078893
 30
0.0
 10
34.049856
 20
7.121951
 30
0.0
 10
34.333966
 20
7.193714
 30
0.0
 10
34.604334
 20
7.303153
 30
0.0
 10
34.862017
 20
7.446679
 30
0.0
 10
35.111179
 20
7.613528
 30
0.0
 10
35.356088
 20
7.793116
 30
0.0
 10
35.356088
 20
7.793116
 30
0.0
 10
35.525629
 20
8.027602
 30
0.0
 10
35.684584
 20
8.265855
 30
0.0
 10
35.822369
 20
8.511823
 30
0.0
 10
35.928579
 20
8.769094
 30
0.0
 10
35.999445
 20
9.039282
 30
0.0
 10
36.042862
 20
9.319338
 30
0.0
 10
36.084125
 20
9.895955
 30
0.0
 10
36.084125
 20
9.895955
 30
0.0
 10
36.046450
 20
10.472751
 30
0.0
 10
36.005006
 20
10.753166
 30
0.0
 10
35.936473
 20
11.023892
 30
0.0
 10
35.832954
 20
11.282239
 30
0.0
 10
35.697501
 20
11.529284
 30
0.0
 10
35.540878
 20
11.768793
 30
0.0
 10
35.373491
 20
12.004535
 30
0.0
 10
35.373491
 20
12.004535
 30
0.0
 10
35.128725
 20
12.182149
 30
0.0
 10
34.879760
 20
12.347204
 30
0.0
 10
34.622382
 20
12.488936
 30
0.0
 10
34.352481
 20
12.594787
 30
0.0
 10
34.069196
 20
12.664756
 30
0.0
 10
33.775703
 20
12.706020
 30
0.0
  0
LWPOLYLINE
  5
115
100
AcDbEntity
  8
Layer_1
 62
7
100
AcDbPolyline
 90
67
 70
1
 10
25.715818
 20
8.907506
 30
0.0
 10
24.783830
 20
8.907506
 30
0.0
 10
24.783830
 20
5.855260
 30
0.0
 10
23.315951
 20
5.855260
 30
0.0
 10
23.315951
 20
13.812103
 30
0.0
 10
23.315951
 20
13.812103
 30
0.0
 10
23.883884
 20
13.910778
 30
0.0
 10
24.457631
 20
13.968188
 30
0.0
 10
24.457631
 20
13.968188
 30
0.0
 10
24.999012
 20
13.996893
 30
0.0
 10
25.541057
 20
14.008286
 30
0.0
 10
25.541057
 20
14.008286
 30
0.0
 10
26.243779
 20
13.981375
 30
0.0
 10
26.589713
 20
13.947287
 30
0.0
 10
26.929153
 20
13.888083
 30
0.0
 10
27.260053
 20
13.794790
 30
0.0
 10
27.582826
 20
13.670999
 30
0.0
 10
27.900126
 20
13.525679
 30
0.0
 10
28.214700
 20
13.369594
 30
0.0
 10
28.214700
 20
13.369594
 30
0.0
 10
28.424948
 20
13.170989
 30
0.0
 10
28.622745
 20
12.966464
 30
0.0
 10
28.795694
 20
12.749740
 30
0.0
 10
28.868893
 20
12.634919
 30
0.0
 10
28.931147
 20
12.514716
 30
0.0
 10
28.982278
 20
12.389130
 30
0.0
 10
29.023363
 20
12.258162
 30
0.0
 10
29.081491
 20
11.985283
 30
0.0
 10
29.116834
 20
11.701460
 30
0.0
 10
29.140875
 20
11.412075
 30
0.0
 10
29.140875
 20
11.412075
 30
0.0
 10
29.083285
 20
11.029757
 30
0.0
 10
29.007037
 20
10.660894
 30
0.0
 10
28.956085
 20
10.485075
 30
0.0
 10
28.893472
 20
10.318225
 30
0.0
 10
28.816864
 20
10.162140
 30
0.0
 10
28.723752
 20
10.016820
 30
0.0
 10
28.613057
 20
9.884058
 30
0.0
 10
28.486575
 20
9.763855
 30
0.0
 10
28.346457
 20
9.652622
 30
0.0
 10
28.195037
 20
9.550360
 30
0.0
 10
27.867366
 20
9.362340
 30
0.0
 10
27.521576
 20
9.188315
 30
0.0
 10
27.521576
 20
9.188315
 30
0.0
 10
27.776963
 20
8.865919
 30
0.0
 10
28.022518
 20
8.535988
 30
0.0
 10
28.022518
 20
8.535988
 30
0.0
 10
28.313428
 20
8.123350
 30
0.0
 10
28.593358
 20
7.703177
 30
0.0
 10
28.593358
 20
7.703177
 30
0.0
 10
28.879801
 20
7.247122
 30
0.0
 10
29.152554
 20
6.782814
 30
0.0
 10
29.152554
 20
6.782814
 30
0.0
 10
29.401070
 20
6.324607
 30
0.0
 10
29.630174
 20
5.856532
 30
0.0
 10
27.987552
 20
5.856532
 30
0.0
 10
27.987552
 20
5.856532
 30
0.0
 10
27.754716
 20
6.282266
 30
0.0
 10
27.509896
 20
6.701184
 30
0.0
 10
27.509896
 20
6.701184
 30
0.0
 10
26.991479
 20
7.528254
 30
0.0
 10
26.991479
 20
7.528254
 30
0.0
 10
26.736702
 20
7.909854
 30
0.0
 10
26.473044
 20
8.285355
 30
0.0
 10
26.473044
 20
8.285355
 30
0.0
 10
25.995407
 20
8.920279
 30
0.0
 10
25.995407
 20
8.920279
 30
0.0
  0
LWPOLYLINE
  5
116
100
AcDbEntity
  8
Layer_1
 62
7
100
AcDbPolyline
 90
40
 70
1
 10
27.061377
 20
12.460714
 30
0.0
 10
27.061377
 20
12.460714
 30
0.0
 10
26.912109
 20
12.534271
 30
0.0
 10
26.759254
 20
12.597064
 30
0.0
 10
26.438096
 20
12.677797
 30
0.0
 10
26.438096
 20
12.677797
 30
0.0
 10
26.043434
 20
12.726237
 30
0.0
 10
25.645903
 20
12.740949
 30
0.0
 10
25.645903
 20
12.740949
 30
0.0
 10
25.214463
 20
12.732911
 30
0.0
 10
24.783812
 20
12.706000
 30
0.0
 10
24.783812
 20
10.096423
 30
0.0
 10
25.424549
 20
10.096423
 30
0.0
 10
25.424549
 20
10.096423
 30
0.0
 10
25.897432
 20
10.109036
 30
0.0
 10
26.368199
 20
10.153888
 30
0.0
 10
26.368199
 20
10.153888
 30
0.0
 10
26.545095
 20
10.186181
 30
0.0
 10
26.718582
 20
10.229239
 30
0.0
 10
26.886149
 20
10.290238
 30
0.0
 10
27.049769
 20
10.363795
 30
0.0
 10
27.049769
 20
10.363795
 30
0.0
 10
27.173560
 20
10.444528
 30
0.0
 10
27.286408
 20
10.536026
 30
0.0
 10
27.380597
 20
10.647259
 30
0.0
 10
27.463483
 20
10.769257
 30
0.0
 10
27.463483
 20
10.769257
 30
0.0
 10
27.526994
 20
10.925341
 30
0.0
 10
27.573999
 20
11.085014
 30
0.0
 10
27.595707
 20
11.251864
 30
0.0
 10
27.603265
 20
11.420507
 30
0.0
 10
27.603265
 20
11.420507
 30
0.0
 10
27.595034
 20
11.583768
 30
0.0
 10
27.572788
 20
11.743441
 30
0.0
 10
27.525962
 20
11.897732
 30
0.0
 10
27.463349
 20
12.048435
 30
0.0
 10
27.463349
 20
12.048435
 30
0.0
 10
27.382615
 20
12.170432
 30
0.0
 10
27.291117
 20
12.281665
 30
0.0
 10
27.181679
 20
12.374957
 30
0.0
  0
SPLINE
  5
117
100
AcDbEntity
  8
Layer_1
 62
7
100
AcDbSpline
 70
8
 71
3
 72
8
 73
4
 74
0
 40
0
 40
0
 40
0
 40
0
 40
1
 40
1
 40
1
 40
1
 10
40.114591
 20
36.486148
 30
0.0
 10
40.114591
 20
37.199877
 30
0.0
 10
39.831063
 20
37.884373
 30
0.0
 10
39.326381
 20
38.389056
 30
0.0
  0
SPLINE
  5
118
100
AcDbEntity
  8
Layer_1
 62
7
100
AcDbSpline
 70
8
 71
3
 72
8
 73
4
 74
0
 40
0
 40
0
 40
0
 40
0
 40
1
 40
1
 40
1
 40
1
 10
39.326381
 20
38.389056
 30
0.0
 10
38.821698
 20
38.893738
 30
0.0
 10
38.137202
 20
39.177266
 30
0.0
 10
37.423473
 20
39.177266
 30
0.0
  0
LWPOLYLINE
  5
119
100
AcDbEntity
  8
Layer_1
 62
7
100
AcDbPolyline
 90
2
 70
0
 10
40.114591
 20
18.413805
 30
0.0
 10
40.114591
 20
36.486148
 30
0.0
  0
SPLINE
  5
11a
100
AcDbEntity
  8
Layer_1
 62
7
100
AcDbSpline
 70
8
 71
3
 72
8
 73
4
 74
0
 40
0
 40
0
 40
0
 40
0
 40
1
 40
1
 40
1
 40
1
 10
5.329021
 20
39.177266
 30
0.0
 10
4.615292
 20
39.177266
 30
0.0
 10
3.930796
 20
38.893738
 30
0.0
 10
3.426113
 20
38.389056
 30
0.0
  0
SPLINE
  5
11b
100
AcDbEntity
  8
Layer_1
 62
7
100
AcDbSpline
 70
8
 71
3
 72
8
 73
4
 74
0
 40
0
 40
0
 40
0
 40
0
 40
1
 40
1
 40
1
 40
1
 10
3.426113
 20
38.389056
 30
0.0
 10
2.921431
 20
37.884373
 30
0.0
 10
2.637903
 20
37.199877
 30
0.0
 10
2.637903
 20
36.486148
 30
0.0
  0
LWPOLYLINE
  5
11c
100
AcDbEntity
  8
Layer_1
 62
7
100
AcDbPolyline
 90
2
 70
0
 10
37.423473
 20
39.177266
 30
0.0
 10
5.329021
 20
39.177266
 30
0.0
  0
LWPOLYLINE
  5
11d
100
AcDbEntity
  8
Layer_1
 62
7
100
AcDbPolyline
 90
3
 70
0
 10
2.637903
 20
36.486148
 30
0.0
 10
2.637903
 20
18.413805
 30
0.0
 10
40.114591
 20
18.413805
 30
0.0
  0
LWPOLYLINE
  5
11e
100
AcDbEntity
  8
Layer_1
 62
7
100
AcDbPolyline
 90
70
 70
1
 10
15.924112
 20
11.715131
 30
0.0
 10
15.924112
 20
11.715131
 30
0.0
 10
16.302733
 20
13.019964
 30
0.0
 10
17.560916
 20
13.019964
 30
0.0
 10
17.560916
 20
13.019964
 30
0.0
 10
17.957013
 20
11.709390
 30
0.0
 10
17.957013
 20
11.709390
 30
0.0
 10
18.393882
 20
10.346428
 30
0.0
 10
18.393882
 20
10.346428
 30
0.0
 10
18.848232
 20
9.006790
 30
0.0
 10
18.848232
 20
9.006790
 30
0.0
 10
19.285108
 20
7.766005
 30
0.0
 10
19.285108
 20
7.766005
 30
0.0
 10
19.463260
 20
8.448114
 30
0.0
 10
19.622933
 20
9.134887
 30
0.0
 10
19.622933
 20
9.134887
 30
0.0
 10
19.949133
 20
10.672592
 30
0.0
 10
19.949133
 20
10.672592
 30
0.0
 10
20.269501
 20
12.297668
 30
0.0
 10
20.269501
 20
12.297668
 30
0.0
 10
20.566583
 20
13.928665
 30
0.0
 10
22.081072
 20
13.928665
 30
0.0
 10
22.081072
 20
13.928665
 30
0.0
 10
21.875381
 20
12.871235
 30
0.0
 10
21.658279
 20
11.816317
 30
0.0
 10
21.421856
 20
10.765525
 30
0.0
 10
21.173645
 20
9.717245
 30
0.0
 10
21.173645
 20
9.717245
 30
0.0
 10
20.921075
 20
8.744137
 30
0.0
 10
20.654169
 20
7.775155
 30
0.0
 10
20.362955
 20
6.813170
 30
0.0
 10
20.056903
 20
5.855491
 30
0.0
 10
18.644353
 20
5.855491
 30
0.0
 10
18.644353
 20
5.855491
 30
0.0
 10
18.175641
 20
7.128802
 30
0.0
 10
17.724769
 20
8.408429
 30
0.0
 10
17.302519
 20
9.697815
 30
0.0
 10
16.896874
 20
10.992853
 30
0.0
 10
16.896874
 20
10.992853
 30
0.0
 10
16.472404
 20
9.648908
 30
0.0
 10
16.022042
 20
8.313396
 30
0.0
 10
16.022042
 20
8.313396
 30
0.0
 10
15.585309
 20
7.081941
 30
0.0
 10
15.135561
 20
5.855150
 30
0.0
 10
13.735030
 20
5.855150
 30
0.0
 10
13.735030
 20
5.855150
 30
0.0
 10
13.424991
 20
6.811932
 30
0.0
 10
13.131328
 20
7.773558
 30
0.0
 10
12.864478
 20
8.742899
 30
0.0
 10
12.613458
 20
9.716904
 30
0.0
 10
12.613458
 20
9.716904
 30
0.0
 10
12.367913
 20
10.765686
 30
0.0
 10
12.133610
 20
11.816586
 30
0.0
 10
11.917716
 20
12.871432
 30
0.0
 10
11.712687
 20
13.928611
 30
0.0
 10
13.285419
 20
13.928611
 30
0.0
 10
13.285419
 20
13.928611
 30
0.0
 10
13.582490
 20
12.309276
 30
0.0
 10
13.582490
 20
12.309276
 30
0.0
 10
13.908686
 20
10.684199
 30
0.0
 10
13.908686
 20
10.684199
 30
0.0
 10
14.252356
 20
9.140574
 30
0.0
 10
14.252356
 20
9.140574
 30
0.0
 10
14.420138
 20
8.451469
 30
0.0
 10
14.601844
 20
7.765951
 30
0.0
 10
14.601844
 20
7.765951
 30
0.0
 10
15.050364
 20
9.018398
 30
0.0
 10
15.050364
 20
9.018398
 30
0.0
 10
15.498883
 20
10.358036
 30
0.0
 10
15.498883
 20
10.358036
 30
0.0
  0
LWPOLYLINE
  5
11f
100
AcDbEntity
  8
Layer_1
 62
7
100
AcDbPolyline
 90
4
 70
1
 10
7.837982
 20
20.908848
 30
0.0
 10
5.774015
 20
22.349493
 30
0.0
 10
16.207372
 20
37.297861
 30
0.0
 10
18.271338
 20
35.857395
 30
0.0
  0
SPLINE
  5
120
100
AcDbEntity
  8
Layer_1
 62
7
100
AcDbSpline
 70
8
 71
3
 72
8
 73
4
 74
0
 40
0
 40
0
 40
0
 40
0
 40
1
 40
1
 40
1
 40
1
 10
25.035758
 20
36.412304
 30
0.0
 10
25.337084
 20
36.846787
 30
0.0
 10
25.832043
 20
37.106210
 30
0.0
 10
26.360789
 20
37.106793
 30
0.0
  0
SPLINE
  5
121
100
AcDbEntity
  8
Layer_1
 62
7
100
AcDbSpline
 70
8
 71
3
 72
8
 73
4
 74
0
 40
0
 40
0
 40
0
 40
0
 40
1
 40
1
 40
1
 40
1
 10
26.360789
 20
37.106793
 30
0.0
 10
26.889535
 20
37.107376
 30
0.0
 10
27.385065
 20
36.849045
 30
0.0
 10
27.687349
 20
36.415228
 30
0.0
  0
LWPOLYLINE
  5
122
100
AcDbEntity
  8
Layer_1
 62
7
100
AcDbPolyline
 90
7
 70
0
 10
27.687349
 20
36.415228
 30
0.0
 10
37.479694
 20
22.361962
 30
0.0
 10
35.271733
 20
20.823450
 30
0.0
 10
26.364653
 20
33.606240
 30
0.0
 10
17.484928
 20
20.802513
 30
0.0
 10
15.273574
 20
22.336127
 30
0.0
 10
25.035758
 20
36.412304
 30
0.0
  0
LWPOLYLINE
  5
123
100
AcDbEntity
  8
Layer_1
 62
7
100
AcDbPolyline
 90
1
 70
1
 10
27.687349
 20
36.415228
 30
0.0
  0
ENDSEC
  0
SECTION
  2
OBJECTS
  0
DICTIONARY
  5
C
330
0
100
AcDbDictionary
  3
ACAD_GROUP
350
D
  3
ACAD_MLINESTYLE
350
17
  0
DICTIONARY
  5
D
330
C
100
AcDbDictionary
  0
DICTIONARY
  5
1A
330
C
100
AcDbDictionary
  0
DICTIONARY
  5
17
330
C
100
AcDbDictionary
  3
STANDARD
350
18
  0
DICTIONARY
  5
19
330
C
100
AcDbDictionary
  0
ENDSEC
  0
EOF
